<svg width="500" height="500" viewBox="0 0 500 500" fill="none" xmlns="http://www.w3.org/2000/svg">
<path d="M284.959 98.0682C246.93 137.412 227.039 140.255 178.856 162.02C139.464 179.814 100.458 214.401 87.152 257.497C52.099 371.027 207.902 385.224 281.468 366.69C333.263 353.641 353.984 323.588 367.099 273.733C372.2 254.343 373.688 233.371 382.09 214.918C391.117 195.093 409.602 185.441 418.804 168.035C463.408 83.6662 335.651 45.6242 284.959 98.0682Z" fill="#407BFF"/>
<path opacity="0.9" d="M284.959 98.0682C246.93 137.412 227.039 140.255 178.856 162.02C139.464 179.814 100.458 214.401 87.152 257.497C52.099 371.027 207.902 385.224 281.468 366.69C333.263 353.641 353.984 323.588 367.099 273.733C372.2 254.343 373.688 233.371 382.09 214.918C391.117 195.093 409.602 185.441 418.804 168.035C463.408 83.6662 335.651 45.6242 284.959 98.0682Z" fill="white"/>
<path d="M52.301 113.525C52.301 110.072 55.126 107.246 58.58 107.246H338.8C342.253 107.246 345.079 110.071 345.079 113.525V133.736H52.301V113.525Z" fill="#263238"/>
<path d="M103.067 125.795C100.143 125.795 97.7631 123.416 97.7631 120.492C97.7631 117.568 100.142 115.189 103.067 115.189C105.991 115.189 108.37 117.568 108.37 120.492C108.37 123.416 105.991 125.795 103.067 125.795ZM103.067 116.3C100.756 116.3 98.8751 118.181 98.8751 120.492C98.8751 122.803 100.755 124.684 103.067 124.684C105.378 124.684 107.259 122.803 107.259 120.492C107.258 118.18 105.378 116.3 103.067 116.3Z" fill="#F0F0F0"/>
<path d="M86.245 125.795C83.321 125.795 80.942 123.416 80.942 120.492C80.942 117.568 83.321 115.189 86.245 115.189C89.169 115.189 91.549 117.568 91.549 120.492C91.548 123.416 89.169 125.795 86.245 125.795ZM86.245 116.3C83.934 116.3 82.053 118.181 82.053 120.492C82.053 122.803 83.933 124.684 86.245 124.684C88.557 124.684 90.437 122.803 90.437 120.492C90.436 118.18 88.556 116.3 86.245 116.3Z" fill="#F0F0F0"/>
<path d="M69.422 125.795C66.498 125.795 64.118 123.416 64.118 120.492C64.118 117.568 66.497 115.189 69.422 115.189C72.346 115.189 74.725 117.568 74.725 120.492C74.726 123.416 72.347 125.795 69.422 125.795ZM69.422 116.3C67.111 116.3 65.23 118.181 65.23 120.492C65.23 122.803 67.11 124.684 69.422 124.684C71.733 124.684 73.614 122.803 73.614 120.492C73.614 118.18 71.734 116.3 69.422 116.3Z" fill="#F0F0F0"/>
<path d="M338.8 326.573H58.579C55.126 326.573 52.3 323.748 52.3 320.294V133.736H345.078V320.294C345.079 323.748 342.253 326.573 338.8 326.573Z" fill="#407BFF"/>
<path d="M343.301 139.106H54.0791V304.439H343.301V139.106Z" fill="white"/>
<path d="M182.229 175.612H72.0631C69.9591 175.612 68.2531 173.906 68.2531 171.802V157.09C68.2531 154.986 69.9591 153.28 72.0631 153.28H182.23C184.334 153.28 186.04 154.986 186.04 157.09V171.802C186.039 173.906 184.333 175.612 182.229 175.612Z" fill="#407BFF"/>
<path d="M325.317 154.279C326.867 154.279 328.127 155.54 328.127 157.09V171.802C328.127 173.351 326.866 174.612 325.317 174.612H215.151C213.601 174.612 212.34 173.351 212.34 171.802V157.09C212.34 155.54 213.601 154.279 215.151 154.279H325.317ZM325.317 153.279H215.151C213.047 153.279 211.34 154.985 211.34 157.09V171.802C211.34 173.906 213.046 175.612 215.151 175.612H325.317C327.421 175.612 329.127 173.906 329.127 171.802V157.09C329.128 154.985 327.422 153.279 325.317 153.279Z" fill="#407BFF"/>
<path d="M87.8321 185.613C98.0771 185.613 106.412 193.948 106.412 204.193C106.412 214.438 98.0771 222.773 87.8321 222.773C77.5871 222.773 69.2521 214.438 69.2521 204.193C69.2521 193.948 77.5871 185.613 87.8321 185.613ZM87.8321 184.613C77.0181 184.613 68.2521 193.38 68.2521 204.193C68.2521 215.006 77.0181 223.773 87.8321 223.773C98.6451 223.773 107.412 215.007 107.412 204.193C107.412 193.38 98.6461 184.613 87.8321 184.613Z" fill="#407BFF"/>
<path opacity="0.4" d="M102.038 211.889C99.312 216.926 93.975 220.351 87.831 220.351C81.688 220.351 76.35 216.925 73.624 211.889C77.692 209.171 82.574 207.585 87.831 207.585C93.088 207.584 97.97 209.171 102.038 211.889Z" fill="#407BFF"/>
<path opacity="0.4" d="M87.832 205.861C91.8074 205.861 95.03 202.639 95.03 198.663C95.03 194.688 91.8074 191.465 87.832 191.465C83.8567 191.465 80.634 194.688 80.634 198.663C80.634 202.639 83.8567 205.861 87.832 205.861Z" fill="#407BFF"/>
<path opacity="0.4" d="M319.063 214.258H128.477C122.918 214.258 118.412 209.752 118.412 204.193C118.412 198.634 122.918 194.128 128.477 194.128H319.063C324.622 194.128 329.128 198.634 329.128 204.193C329.128 209.752 324.621 214.258 319.063 214.258Z" fill="#407BFF"/>
<path d="M87.8321 238.946C98.0771 238.946 106.412 247.281 106.412 257.526C106.412 267.771 98.0771 276.106 87.8321 276.106C77.5871 276.106 69.2521 267.771 69.2521 257.526C69.2521 247.281 77.5871 238.946 87.8321 238.946ZM87.8321 237.946C77.0181 237.946 68.2521 246.712 68.2521 257.526C68.2521 268.339 77.0181 277.106 87.8321 277.106C98.6451 277.106 107.412 268.34 107.412 257.526C107.412 246.712 98.6461 237.946 87.8321 237.946Z" fill="#407BFF"/>
<path opacity="0.4" d="M102.038 265.221C99.312 270.258 93.975 273.684 87.831 273.684C81.688 273.684 76.35 270.257 73.624 265.221C77.692 262.503 82.574 260.917 87.831 260.917C93.088 260.917 97.97 262.504 102.038 265.221Z" fill="#407BFF"/>
<path opacity="0.4" d="M87.832 259.193C91.8074 259.193 95.03 255.971 95.03 251.995C95.03 248.02 91.8074 244.797 87.832 244.797C83.8567 244.797 80.634 248.02 80.634 251.995C80.634 255.971 83.8567 259.193 87.832 259.193Z" fill="#407BFF"/>
<path opacity="0.4" d="M319.063 267.591H128.477C122.918 267.591 118.412 263.085 118.412 257.526C118.412 251.967 122.918 247.461 128.477 247.461H319.063C324.622 247.461 329.128 251.967 329.128 257.526C329.128 263.085 324.621 267.591 319.063 267.591Z" fill="#407BFF"/>
<path opacity="0.1" d="M272.12 267.3C272.12 273.43 272.72 279.53 273.91 285.52C262.75 292.14 255.52 304.33 255.52 317.75C255.52 320.79 255.88 323.74 256.57 326.57H338.8C342.25 326.57 345.08 323.75 345.08 320.29V176.33C303.38 185.59 272.12 222.86 272.12 267.3Z" fill="black"/>
<path d="M424.124 330.063C456.611 297.576 456.611 244.904 424.124 212.417C391.637 179.93 338.966 179.93 306.479 212.417C273.992 244.904 273.992 297.576 306.479 330.063C338.966 362.55 391.637 362.55 424.124 330.063Z" fill="#407BFF"/>
<path d="M419.316 324.755C448.932 295.139 448.932 247.123 419.316 217.508C389.701 187.892 341.684 187.892 312.069 217.508C282.453 247.123 282.453 295.139 312.069 324.755C341.684 354.371 389.701 354.371 419.316 324.755Z" fill="white"/>
<path d="M340.113 220.249L335.272 226.447C335.272 226.447 331.022 229.674 329.413 232.43C327.531 234.294 325.807 236.199 324.107 238.205C322.194 240.483 320.377 242.863 318.671 245.416C317.002 248.004 315.372 250.673 314.149 254.007C313.559 255.695 312.991 257.523 312.94 259.998C312.928 261.233 313.084 262.684 313.696 264.247C314.296 265.81 315.483 267.396 316.868 268.446L317.931 269.251L319.521 269.552C322.724 270.158 325.909 270.457 329.043 270.486C329.111 270.487 330.237 270.381 330.304 270.381L329.032 257.729C327.958 257.769 325.662 257.939 324.608 257.916C324.645 257.721 324.686 257.522 324.735 257.32C325.244 255.193 326.213 252.724 327.342 250.33C328.461 247.906 329.75 245.474 331.092 243.047C332.269 240.912 333.534 238.76 334.769 236.661L340.754 232.884L344.272 226.651L340.113 220.249ZM324.5 259.751C324.48 259.677 324.47 259.575 324.463 259.461C324.505 259.545 324.537 259.626 324.551 259.691C324.621 259.929 324.545 259.944 324.5 259.751Z" fill="#7F3E3B"/>
<path d="M374.19 233.648C374.343 232.88 374.098 232.828 373.903 232.832C373.75 232.835 373.267 233.207 373.155 233.67C372.226 235.112 371.079 236.357 369.562 237.452C369.365 237.594 369.173 237.739 368.963 237.876C367.038 239.136 365.022 239.74 363.068 239.817C363.107 240.027 363.146 240.237 363.178 240.447C363.255 240.939 363.309 241.428 363.343 241.914C363.567 245.104 362.736 248.067 359.145 249.761C359.131 249.96 358.656 250.167 358.496 250.31C357.493 251.203 356.1 253.162 356.116 254.859C356.127 256.164 357.338 257.19 358.774 258.43L360.796 259.783L363.535 259.522C371.947 257.052 375.868 249.366 375.688 248.798C373.509 245.239 373.539 239.033 374.19 233.648Z" fill="#7F3E3B"/>
<path d="M392.374 251.869C392.374 251.869 391.81 251.766 390.847 251.612C388.855 251.293 379.931 249.275 375.624 248.886C375.623 248.889 375.621 248.89 375.619 248.893C374.606 251.015 371.344 256.216 362.931 258.686L360.85 259.179L358.891 258.138C357.455 256.898 356.719 255.608 356.708 254.303C356.693 252.606 357.885 251.186 358.888 250.293C358.964 250.226 359.019 250.147 359.061 250.062C359.043 249.82 359.041 249.664 359.065 249.641C358.438 249.72 350.463 250.933 349.786 251.04C339.405 252.687 327.718 257.167 327.718 257.167L327.801 257.885L329.246 270.485L329.792 275.252C329.792 275.252 333.801 274.804 339.042 273.879C337.605 286.622 337.332 305.08 341.699 328.812C346.301 328.726 358.771 328.478 358.771 328.492C371.028 328.262 383.889 328.02 388.429 327.935C388.551 325.94 388.333 321.799 388.116 316.139L387.849 307.404C387.687 299.684 387.721 290.424 388.413 280.476C388.522 278.911 388.65 277.327 388.794 275.73C388.796 275.732 388.798 275.734 388.799 275.736C394.86 282.293 400.931 288.553 400.931 288.553L403.795 285.791C407.466 284.016 410.357 280.852 412.879 277.035L416.245 273.79C416.247 273.79 400.572 253.247 392.374 251.869Z" fill="#407BFF"/>
<path opacity="0.3" d="M384.16 270.644C384.379 272.702 385.046 274.721 386.11 276.539L388.413 280.477C388.522 278.912 388.65 277.328 388.794 275.731C387.213 274.02 385.632 272.289 384.16 270.644Z" fill="black"/>
<path opacity="0.3" d="M388.8 275.737C388.798 275.735 388.797 275.733 388.795 275.731C388.651 277.327 388.523 278.912 388.414 280.477L388.416 280.48C388.524 278.916 388.656 277.331 388.8 275.737Z" fill="black"/>
<path d="M363.066 239.817C363.105 240.027 363.144 240.238 363.177 240.447C363.145 240.237 363.106 240.027 363.066 239.817V239.817Z" fill="#7F3E3B"/>
<path opacity="0.2" d="M363.342 241.914C363.308 241.429 363.254 240.939 363.177 240.447C363.252 240.939 363.312 241.429 363.342 241.914Z" fill="black"/>
<path d="M369.561 237.452C369.364 237.595 369.172 237.739 368.962 237.876C367.037 239.136 365.021 239.74 363.067 239.817C363.106 240.027 363.145 240.237 363.177 240.447C363.254 240.939 363.308 241.428 363.342 241.914C363.344 241.942 363.35 241.971 363.352 241.999C365.502 241.649 368.304 239.672 369.561 237.452Z" fill="#7F3E3B"/>
<path d="M380.786 250.406C380.606 249.597 379.987 248.914 379.129 248.71L377.051 248.215C376.505 248.084 375.966 248.328 375.686 248.798C375.666 248.832 375.636 248.858 375.619 248.894C374.606 251.016 371.344 256.217 362.931 258.687L362.277 258.842L360.85 259.18L358.891 258.139C357.455 256.899 356.719 255.609 356.708 254.304C356.693 252.607 357.885 251.187 358.888 250.294C358.964 250.227 359.133 250.008 359.175 249.923C359.265 249.693 359.247 249.578 359.086 249.477C356.885 247.888 351.935 250.339 351.739 250.765C351.528 250.969 351.318 251.193 351.113 251.441C350.106 252.654 349.257 254.399 349.514 256.741C350.084 261.942 354.397 264.403 354.58 264.505C354.625 264.53 354.674 264.542 354.723 264.542C354.778 264.542 354.833 264.526 354.881 264.496C354.972 264.438 355.025 264.334 355.017 264.227C355.007 264.078 354.824 260.609 358.719 258.715L360.472 259.646C352.947 290.512 358.052 327.497 358.193 328.499C358.563 328.493 358.773 328.49 358.773 328.492C358.773 328.478 358.784 328.469 358.782 328.455C358.728 328.081 353.476 290.767 361.056 259.736L362.893 259.301C365.022 261.902 364.012 265.762 364.001 265.801C363.972 265.91 364.007 266.027 364.093 266.101C364.148 266.148 364.216 266.173 364.286 266.173C364.326 266.173 364.366 266.165 364.404 266.149C364.804 265.974 374.261 261.826 377.568 257.878C379.532 255.533 380.404 253.049 380.789 251.38C380.865 251.049 380.855 250.719 380.786 250.406Z" fill="white"/>
<path opacity="0.2" d="M369.561 237.452C369.364 237.595 369.172 237.739 368.962 237.876C367.037 239.136 365.021 239.74 363.067 239.817C363.106 240.027 363.145 240.237 363.177 240.447C363.254 240.939 363.308 241.428 363.342 241.914C363.344 241.942 363.35 241.971 363.352 241.999C365.502 241.649 368.304 239.672 369.561 237.452Z" fill="black"/>
<path d="M355.01 214.121C356.016 212.325 357.235 210.699 358.68 209.396C357.995 208.881 357.418 208.3 356.984 207.648C355.409 208.387 353.921 210.48 353.149 215.156C352.949 216.365 352.95 217.475 353.066 218.505C353.369 217.625 353.713 216.756 354.1 215.912L355.01 214.121Z" fill="#263238"/>
<path d="M373.596 226.397C378.109 221.174 375.239 214.522 372.599 213.025C373.087 206.043 363.044 205.13 358.681 209.395C357.237 210.698 356.017 212.324 355.011 214.12L354.102 215.91C353.715 216.754 353.371 217.623 353.068 218.503C351.907 221.87 351.353 225.398 351.368 228.331C351.401 235.023 356.92 240.058 363.068 239.816H363.069C365.023 239.739 367.039 239.134 368.964 237.875C369.174 237.738 369.366 237.594 369.563 237.451C371.08 236.355 372.227 235.111 373.156 233.669C375.402 230.076 374.815 228.266 373.596 226.397Z" fill="#7F3E3B"/>
<path d="M353.553 215.316C353.41 215.494 353.439 215.755 353.617 215.898C353.696 215.961 353.79 215.991 353.884 215.989C353.962 215.988 354.035 215.956 354.102 215.912C354.136 215.889 354.172 215.868 354.199 215.835C355.366 214.382 356.867 214.457 356.933 214.461C357.154 214.475 357.357 214.303 357.372 214.076C357.387 213.849 357.217 213.652 356.99 213.635C356.936 213.631 356.035 213.592 355.011 214.121C354.526 214.371 354.017 214.738 353.553 215.316Z" fill="#263238"/>
<path d="M364.369 227.304C364.289 227.222 364.158 227.221 364.076 227.3C364.057 227.319 362.135 229.143 359.104 228.539C358.992 228.517 358.883 228.589 358.86 228.702C358.838 228.814 358.91 228.923 359.023 228.945C359.537 229.048 360.02 229.086 360.469 229.077C362.86 229.033 364.294 227.665 364.364 227.596C364.447 227.517 364.449 227.386 364.369 227.304Z" fill="#263238"/>
<path d="M358.976 220.161C358.976 220.161 356.472 223.808 354.291 225.374C355.247 226.751 357.448 226.647 357.448 226.647L358.976 220.161Z" fill="#630F0F"/>
<path d="M355.462 220.404C355.914 220.494 356.411 220.01 356.573 219.324C356.735 218.637 356.499 218.008 356.048 217.918C355.596 217.828 355.099 218.312 354.937 218.998C354.775 219.685 355.01 220.315 355.462 220.404Z" fill="#263238"/>
<path d="M363.275 221.961C363.727 222.051 364.224 221.567 364.386 220.881C364.548 220.195 364.313 219.566 363.861 219.475C363.409 219.385 362.912 219.869 362.75 220.555C362.588 221.242 362.824 221.871 363.275 221.961Z" fill="#263238"/>
<path d="M373.513 212.999C373.238 213.015 372.931 213.024 372.599 213.025C372.12 214.134 371.712 215.555 371.412 217.371C370.751 221.372 372.105 224.391 373.596 226.397C375.647 229.88 378.272 229.782 380.547 227.129C384.211 223.613 387.738 216.603 380.453 211.098C379.309 212.077 377.158 212.786 373.513 212.999Z" fill="#263238"/>
<path d="M378.607 225.071C376.955 224.394 375.084 225.189 373.596 226.397C372.748 227.085 372.023 227.905 371.535 228.667C370.12 230.877 370.622 233.451 373.154 233.67C373.295 233.682 373.438 233.691 373.591 233.688C373.787 233.685 373.988 233.668 374.19 233.648C375.983 233.475 377.971 232.673 379.464 231.147C380.597 229.988 380.964 228.427 380.548 227.129C380.266 226.252 379.637 225.493 378.607 225.071Z" fill="#7F3E3B"/>
<path d="M358.68 209.396C362.337 212.15 368.997 213.041 372.598 213.026C372.93 213.025 373.237 213.016 373.512 213C377.157 212.787 379.308 212.078 380.452 211.099C384.679 207.481 375.044 200.134 375.044 200.134C375.044 200.134 376.119 202.771 373.878 203.498C371.637 204.225 355.844 198.351 356.113 205.017C356.153 206.003 356.469 206.875 356.984 207.649C357.418 208.3 357.996 208.88 358.68 209.396Z" fill="#263238"/>
<path d="M341.7 328.813C341.7 328.813 341.43 331.145 341.011 335.077C348.641 337.657 356.805 339.076 365.305 339.076C373.322 339.076 381.043 337.823 388.296 335.518C388.404 330.772 388.469 327.935 388.469 327.935L358.771 328.493L358.192 328.504L341.7 328.813Z" fill="#263238"/>
<path d="M419.02 288.544C418.939 287.708 418.738 286.853 418.443 286.049C418.289 285.654 418.128 285.25 417.932 284.892L417.637 284.346L417.476 284.074C416.056 281.61 414.506 279.282 412.881 277.035L403.797 285.791C405.006 287.287 406.17 288.796 407.252 290.333C407.102 290.728 406.844 291.246 406.484 291.778C405.296 293.537 403.49 295.49 401.532 297.288C397.813 300.751 393.496 304.053 389.236 307.216L387.85 307.404L382.268 308.162L376.781 311.867L380.388 319.213L384.926 316.888C384.926 316.888 386.447 316.712 388.117 316.139C389.656 315.611 391.32 314.746 392.046 313.358C394.756 312.297 397.289 311.112 399.844 309.798C402.523 308.407 405.15 306.873 407.736 305.114C409.026 304.227 410.296 303.272 411.558 302.218C412.821 301.166 414.067 300.003 415.264 298.59C416.445 297.155 417.674 295.523 418.523 293.023C418.935 291.779 419.19 290.226 419.02 288.544ZM407.333 290.118C407.328 290.067 407.313 290.013 407.313 289.968C407.312 289.726 407.397 289.64 407.398 289.783C407.401 289.857 407.377 289.975 407.333 290.118Z" fill="#7F3E3B"/>
<path d="M320.078 318.088C322.507 303.123 312.345 289.023 297.38 286.594C282.415 284.166 268.315 294.328 265.887 309.293C263.458 324.257 273.62 338.357 288.585 340.786C303.55 343.215 317.65 333.052 320.078 318.088Z" fill="#263238"/>
<path d="M308.065 311.119H295.543V298.597C295.543 297.184 294.387 296.028 292.973 296.028C291.56 296.028 290.404 297.184 290.404 298.597V311.119H277.882C276.469 311.119 275.312 312.275 275.312 313.689C275.312 315.102 276.468 316.259 277.882 316.259H290.404V328.781C290.404 330.194 291.56 331.35 292.973 331.35C294.386 331.35 295.543 330.194 295.543 328.781V316.259H308.065C309.478 316.259 310.635 315.103 310.635 313.689C310.634 312.275 309.478 311.119 308.065 311.119Z" fill="white"/>
<path d="M364.774 216.762C364.852 216.773 366.31 217 367.049 218.617C367.12 218.772 367.274 218.862 367.433 218.859C367.488 218.858 367.544 218.846 367.597 218.822C367.805 218.727 367.897 218.481 367.802 218.273C366.862 216.216 364.96 215.952 364.88 215.942C364.655 215.913 364.446 216.073 364.417 216.3C364.388 216.525 364.547 216.733 364.774 216.762Z" fill="#263238"/>
</svg>
