<svg width="155" height="147" viewBox="0 0 155 147" fill="none" xmlns="http://www.w3.org/2000/svg">
<ellipse cx="77.5" cy="73.5" rx="77.5" ry="73.5" fill="#AC633A"/>
<path d="M95.5643 85.6106C97.5868 81.424 98.4251 76.584 98.4251 71.5168C98.4251 58.4172 90.9117 46.1947 76.0119 46.1947C61.1083 46.1947 53.595 58.1935 53.595 71.5168C53.595 84.9466 60.8699 96.8424 76.0119 96.8424C78.5752 96.8207 81.1296 96.5614 83.6368 96.0683L79.3495 92.2155C78.0345 91.1147 77.0809 89.3534 77.0809 87.8123C77.0809 83.5191 80.3031 79.8865 85.1902 79.8865C86.859 79.8865 88.2855 80.4369 89.7198 81.3175L95.5643 85.6106ZM96.9909 107.19C91.1501 110.272 84.1174 112.034 76.0119 112.034C51.807 112.034 35 94.307 35 71.5168C35 48.6165 51.6878 31 76.0119 31C99.9708 31 117.02 49.1669 117.02 71.5168C117.02 81.2074 114.278 90.0139 109.03 96.949L115.828 102.346C118.093 104.218 120 105.979 120 109.061C120 112.914 115.828 116 111.779 116C109.149 116 107.011 115.006 103.789 112.474L96.9909 107.19Z" fill="white"/>
</svg>
