<svg width="16" height="16" xmlns="http://www.w3.org/2000/svg" xmlns:xlink="http://www.w3.org/1999/xlink" xml:space="preserve" overflow="hidden"><defs><clipPath id="clip0"><rect x="141" y="125" width="16" height="16"/></clipPath></defs><g clip-path="url(#clip0)" transform="translate(-141 -125)"><path d="M154.667 138.933 151.333 135.767 154.667 132.6 154.667 138.933ZM143.867 139.333 147.167 136.217 147.4 136C148.3 135.15 149.717 135.15 150.617 136L150.85 136.217 154.133 139.333 143.867 139.333ZM143.333 132.583 146.667 135.75 143.333 138.917 143.333 132.583ZM145.667 128.333 152.333 128.333 152.333 133.883 150.833 135.317C149.75 134.483 148.25 134.483 147.167 135.317L145.667 133.883 145.667 128.333ZM153.333 128.783 153.333 127.333 151 127.333 149 125.667 147 127.333 144.667 127.333 144.667 128.8 142.333 131.017 142.333 140.333 155.667 140.333 155.667 131.017 153.333 128.783Z"/><path d="M149 132.05C148.7 132.05 148.467 131.8 148.467 131.517 148.467 131.217 148.717 130.983 149 130.983 149.3 130.983 149.533 131.217 149.533 131.517 149.533 131.817 149.3 132.05 149 132.05ZM149 133.667C149.383 133.667 149.75 133.567 150.083 133.4 150.217 133.317 150.267 133.15 150.2 133.017 150.117 132.883 149.95 132.833 149.817 132.9 149.567 133.033 149.283 133.1 149 133.1 148.117 133.1 147.383 132.367 147.4 131.483 147.4 130.6 148.133 129.867 149.017 129.867 149.9 129.867 150.633 130.583 150.633 131.483L150.633 132.017C150.333 132.017 150.1 131.783 150.1 131.483 150.1 130.95 149.733 130.5 149.217 130.4 148.7 130.3 148.183 130.583 148 131.067 147.817 131.55 148 132.117 148.45 132.383 148.9 132.65 149.483 132.567 149.833 132.167 150.033 132.4 150.333 132.533 150.65 132.533 150.95 132.533 151.183 132.3 151.183 132L151.183 131.467C151.183 130.267 150.217 129.3 149.017 129.3 147.817 129.3 146.85 130.267 146.85 131.467 146.833 132.683 147.8 133.65 149 133.667Z"/></g></svg>