<svg width="18" height="17" xmlns="http://www.w3.org/2000/svg" xmlns:xlink="http://www.w3.org/1999/xlink" xml:space="preserve" overflow="hidden"><defs><clipPath id="clip0"><rect x="435" y="146" width="18" height="17"/></clipPath></defs><g clip-path="url(#clip0)" transform="translate(-435 -146)"><path d="M8.5 7.79167C7.61458 7.79167 6.90625 7.08333 6.90625 6.19792 6.90625 5.3125 7.61458 4.60417 8.5 4.60417 9.38542 4.60417 10.0938 5.3125 10.0938 6.19792 10.0938 7.08333 9.38542 7.79167 8.5 7.79167ZM8.5 2.47917C7.27812 2.47917 6.12708 3.08125 5.43646 4.10833 4.74583 5.11771 4.60417 6.41042 5.04688 7.56146L6.72917 11.2802 8.18125 14.326C8.23438 14.45 8.35833 14.5208 8.5 14.5208 8.64167 14.5208 8.76562 14.45 8.81875 14.326L10.2708 11.2802 11.9531 7.56146C12.3958 6.41042 12.2542 5.11771 11.5635 4.10833 10.8729 3.08125 9.72188 2.47917 8.5 2.47917Z" transform="matrix(1.05882 0 0 1 435 146)"/></g></svg>