<svg width="18" height="18" xmlns="http://www.w3.org/2000/svg" xmlns:xlink="http://www.w3.org/1999/xlink" xml:space="preserve" overflow="hidden"><defs><clipPath id="clip0"><rect x="435" y="123" width="18" height="18"/></clipPath></defs><g clip-path="url(#clip0)" transform="translate(-435 -123)"><path d="M441.938 130.515C442.038 130.41 442.095 130.27 442.095 130.125 442.096 129.977 442.037 129.835 441.932 129.731L440.154 127.952C440.049 127.847 439.907 127.787 439.759 127.787 439.611 127.788 439.469 127.847 439.365 127.952L439.168 128.151 441.733 130.71Z"/><path d="M444.516 135.068C444.408 135.177 444.232 135.178 444.123 135.071 444.122 135.07 444.121 135.069 444.12 135.068L440.932 131.88C440.823 131.77 440.823 131.592 440.932 131.482L441.33 131.096 438.774 128.542C438.609 128.708 438.448 128.869 438.343 128.968 438.086 129.208 437.932 129.539 437.914 129.891 437.891 130.464 437.993 131.035 438.214 131.565 438.425 132.04 438.685 132.491 438.988 132.913 440.043 134.496 441.377 135.873 442.926 136.978 443.184 137.169 443.456 137.342 443.739 137.494 444.38 137.83 445.081 138.034 445.802 138.094 446.295 138.13 446.778 137.94 447.114 137.578L447.467 137.226 444.902 134.67Z"/><path d="M448.056 135.846 446.278 134.062C446.059 133.846 445.706 133.846 445.487 134.062L445.299 134.265 447.857 136.834 448.056 136.646C448.272 136.427 448.272 136.074 448.056 135.855Z"/><path d="M446.651 132.375 445.901 132.375C445.82 131.299 445.05 130.401 444 130.155L444 129.39C445.467 129.653 446.564 130.887 446.651 132.375Z"/><path d="M448.444 132C448.444 132.126 448.444 132.251 448.427 132.375L447.677 132.375C447.69 132.25 447.696 132.125 447.696 132 447.693 129.961 446.039 128.308 444 128.306L444 127.556C446.453 127.558 448.442 129.547 448.444 132Z"/><path d="M450.375 132C450.375 132.126 450.375 132.251 450.362 132.375L449.612 132.375C449.612 132.251 449.627 132.126 449.627 132 449.627 128.997 447.192 126.562 444.189 126.562 444.189 126.562 444.188 126.562 444.188 126.562 444.124 126.562 444.062 126.562 444 126.562L444 125.812 444.188 125.812C447.605 125.812 450.375 128.583 450.375 132Z"/></g></svg>