<svg width="500" height="500" viewBox="0 0 500 500" fill="none" xmlns="http://www.w3.org/2000/svg">
<path d="M80.962 162.078C67.546 197.469 132.205 254.793 225.382 290.115C318.559 325.437 404.97 325.382 418.386 289.991" stroke="#E0E0E0" stroke-width="1.9163" stroke-miterlimit="10" stroke-linecap="round" stroke-linejoin="round"/>
<path d="M142.331 375.852C172.753 398.369 245.473 351.694 304.757 271.6C364.041 191.506 387.438 108.323 357.016 85.8052" stroke="#E0E0E0" stroke-width="1.9163" stroke-miterlimit="10" stroke-linecap="round" stroke-linejoin="round"/>
<path d="M389.332 242.486C389.365 237.822 389.171 233.219 388.759 228.676C385.248 189.771 365.846 155.397 337.067 132.152C313.213 112.883 282.908 101.256 249.86 101.022C249.004 101.016 248.147 101.02 247.301 101.024C229.645 101.219 212.77 104.669 197.249 110.802H197.239C149.796 129.575 114.949 173.429 109.219 226.136C108.711 230.858 108.43 235.644 108.395 240.493C108.312 252.204 109.665 263.584 112.291 274.468C120.049 306.727 138.95 334.69 164.733 354.003C187.919 371.358 216.665 381.736 247.866 381.957C264.581 382.076 280.636 379.269 295.531 374.02C349.82 354.904 388.901 303.351 389.332 242.486Z" fill="#EBEBEB"/>
<path opacity="0.4" d="M290.95 343.817C293.588 344.073 294.774 347.314 295.312 349.956C296.109 353.924 296.917 357.892 297.714 361.86C292.879 364.127 293.281 370.021 295.533 374.02C349.82 354.903 388.9 303.351 389.332 242.486C389.365 237.822 389.171 233.219 388.759 228.676C388.646 228.603 388.523 228.54 388.399 228.477C384.571 226.668 381.55 229.941 378.663 231.788C378.011 232.206 369.593 236.294 369.484 235.157C369.838 238.831 369.64 242.558 368.898 246.174C368.842 246.448 368.765 246.748 368.535 246.906C367.987 247.282 367.367 246.525 367.167 245.892C366.656 244.272 366.437 242.565 365.828 240.979C365.22 239.393 364.111 237.87 362.491 237.36C360.862 236.847 359.087 237.451 357.396 237.215C355.333 236.927 353.612 235.395 352.571 233.591C351.566 231.85 351.099 229.837 350.592 227.921C348.607 232.327 343.574 229.61 340.616 233.172C339.666 234.316 338.524 235.965 337.145 235.411C335.833 234.884 335.682 232.643 334.278 232.469C333.296 232.347 332.576 233.426 332.431 234.405C332.286 235.384 332.444 236.431 332.03 237.33C331.449 238.594 329.686 239.135 328.497 238.415C327.428 237.768 327.015 236.455 326.347 235.399C325.679 234.343 324.246 233.454 323.24 234.195C323.003 234.369 322.827 234.615 322.691 234.876C321.716 236.753 322.821 239.03 324.127 240.694C325.433 242.357 327.044 244.021 327.182 246.132C326.424 246.674 325.224 246.422 324.748 245.621C324.583 245.342 324.49 245.007 324.242 244.798C323.702 244.344 322.903 244.776 322.311 245.159C319.524 246.961 316.001 247.586 312.764 246.852C312.523 242.571 312.281 238.29 312.04 234.008C311.07 233.975 310.489 233.913 310.121 232.918C306.909 236.045 303.966 239.413 300.426 242.232C300.002 242.57 299.549 242.938 299.405 243.461C299.255 244.007 299.482 244.584 299.447 245.148C299.333 247.017 296.828 247.507 294.956 247.458C294.413 247.76 294.725 248.652 295.269 248.954C295.812 249.256 296.492 249.285 296.983 249.667C297.716 250.238 297.729 251.352 297.461 252.242C296.53 255.335 292.748 257.22 289.718 256.1C289.357 255.967 288.993 255.784 288.778 255.466C288.304 254.766 288.752 253.84 288.839 252.999C289.18 249.683 285.601 250.454 283.951 251.371C281.713 252.614 280.459 255.913 280.041 258.272C279.553 261.029 277.469 279.326 271.363 276.797C270.79 276.56 270.376 276.044 270.085 275.496C269.203 273.835 269.265 271.833 268.619 270.067C267.973 268.301 265.963 266.69 264.32 267.605C263.661 267.972 263.241 268.662 262.611 269.077C260.856 270.233 258.359 268.845 256.446 269.716C255.567 270.117 254.957 270.936 254.16 271.482C253.363 272.028 252.112 272.203 251.55 271.417C250.92 270.537 251.658 269.209 251.142 268.258C250.6 267.259 248.915 267.466 248.343 268.448C247.771 269.43 248.116 270.728 248.821 271.619C249.19 272.085 249.666 272.513 249.788 273.095C250.008 274.138 249.019 275.004 248.143 275.611C246.75 276.575 245.358 277.539 243.965 278.503C244.056 279.467 244.996 280.139 245.929 280.401C246.861 280.663 247.858 280.652 248.784 280.959C253.242 282.446 253.225 289.063 259.074 287.764C258.726 286.007 260.6 284.218 262.338 284.646C264.482 285.174 265.868 288.229 267.992 287.625C268.731 287.415 269.294 286.772 270.041 286.595C272.105 286.105 273.115 289.277 273.695 290.627C275.62 295.105 272.625 295.647 272.746 299.644C272.801 301.473 274.155 303.017 274.491 304.816C274.8 306.472 274.219 308.184 274.444 309.853C275.061 314.441 281.133 311.659 283.823 311.127C282.36 313.727 284.535 316.89 286.907 318.692C290.55 321.46 289.926 321.223 290.38 325.218C290.5 326.273 291.106 327.343 292.107 327.698C293.849 328.316 295.545 326.594 297.385 326.414C298.268 326.328 299.164 326.605 300.039 326.458C302.335 326.07 303.135 323.255 304.632 321.471C305.942 319.91 308.051 319.059 310.077 319.273C310.241 320.451 310.246 321.652 310.092 322.832C308.806 323.626 307.519 324.42 306.233 325.215C305.095 325.917 303.916 326.66 303.213 327.797C302.819 328.434 302.575 329.191 302.005 329.676C300.87 330.64 299.17 330.058 297.684 329.962C294.081 329.728 288.217 331.973 284.746 333.113C281.047 334.328 279.753 336.944 276.342 338.117C275.741 338.324 275.606 339.195 275.96 339.723C276.315 340.251 276.97 340.486 277.596 340.597C279.049 340.854 280.587 340.6 281.881 339.891C280.184 340.821 285.144 344.917 286.042 345.119C287.513 345.45 289.491 344.341 290.988 344.265C294.7 344.077 296.851 344.815 294.413 348.851C293.481 350.394 292.393 352.361 293.417 353.846C294.399 353.438 295.584 354.028 296.134 354.939C296.684 355.849 296.725 356.979 296.605 358.036C296.524 358.748 296.351 359.501 295.83 359.994C295.551 360.258 295.185 360.435 294.972 360.754C294.281 361.794 295.701 362.933 296.867 363.381" fill="#F5F5F5"/>
<path opacity="0.4" d="M168.026 182.905C169.181 182.039 170.824 182.737 172.027 183.534C173.23 184.331 174.643 185.262 176 184.771C176.026 183.097 176.053 181.423 176.079 179.749C176.084 179.434 176.104 179.083 176.332 178.866C176.563 178.646 176.921 178.647 177.24 178.662C178.317 178.711 179.394 178.76 180.472 178.81C181.371 179.798 178.867 181.004 179.223 182.291C179.38 182.86 180.023 183.107 180.543 183.386C184.979 185.766 182.165 190.715 180.155 193.403C177.822 196.523 177.977 200.776 178.228 204.667C178.321 206.05 178.486 207.599 179.552 208.504C180.588 209.399 182.116 209.337 183.444 209.729C185.74 210.395 187.366 212.429 189.515 213.486C197.025 217.182 201.975 209.144 199.529 202.811C198.261 199.529 197.718 200.152 198.444 196.644C198.747 195.181 198.262 193.455 199.784 192.457C201.397 191.399 203.724 192.535 203.853 194.499C203.979 196.427 204.421 198.259 203.629 200.069C205.85 199.244 208.495 199.768 210.923 199.768C210.577 202.005 213.463 203.976 215.42 202.838C215.355 201.742 215.652 200.233 216.75 200.242C217.07 200.244 217.368 200.398 217.644 200.561C218.796 201.24 219.814 202.145 221.028 202.713C222.894 203.583 228.255 203.171 229.093 205.687C229.24 206.129 229.238 206.613 229.413 207.045C229.786 207.966 230.955 208.416 231.904 208.121C232.853 207.827 233.534 206.917 233.719 205.94C233.842 205.289 233.773 204.608 233.943 203.968C234.846 200.568 238.337 203.23 239.896 202.314C240.644 201.875 243.725 196.079 243.793 195.377C245.276 197.223 247.494 198.78 249.961 198.664C252.662 198.538 253.814 196.39 254.422 193.766C255.063 190.995 255.096 187.693 255.702 185.686C256.028 184.608 256.307 183.299 255.544 182.47C254.59 181.434 252.559 181.83 251.866 180.604C251.646 180.215 251.628 179.749 251.552 179.308C251.108 176.724 248.212 174.852 245.673 175.509C244.843 174.965 244.829 173.786 244.781 172.795C244.732 171.804 244.313 170.578 243.323 170.508C242.186 170.427 241.669 171.916 241.688 173.056C241.707 174.219 241.888 175.379 242.224 176.492C242.476 177.323 242.815 178.214 242.52 179.031C242.297 179.649 241.753 180.086 241.221 180.47C239.937 181.394 238.476 182.226 236.893 182.215C235.311 182.204 233.645 181.054 233.583 179.473C233.566 179.049 233.661 178.616 233.562 178.203C233.307 177.142 231.952 176.776 230.871 176.922C229.79 177.068 228.712 177.52 227.643 177.303C226.574 177.086 225.685 175.693 226.443 174.908C225.007 174.404 222.952 174.154 222.386 175.567C222.204 176.021 222.255 176.528 222.246 177.017C222.191 180.034 218.44 184.389 215.881 181.234C214.198 179.16 217.096 175.387 214.077 173.68C212.634 172.864 210.675 173.585 209.246 172.742C208.8 172.213 209.566 171.497 210.236 171.321C212.352 170.765 214.742 171.413 216.286 172.963C217.142 171.205 215.82 168.628 217.312 167.365C218.785 166.118 221.62 167.586 222.724 166.003C223.04 165.55 223.09 164.969 223.129 164.416C223.324 161.692 222.485 156.694 226.333 156.237C226.799 156.182 227.285 156.217 227.723 156.047C229.051 155.53 229.04 153.672 228.793 152.269C227.347 151.647 225.797 152.718 224.407 153.454C223.016 154.19 220.809 154.313 220.336 152.813C219.997 151.739 220.839 150.394 220.128 149.521C219.798 149.116 219.215 148.962 218.936 148.521C218.26 147.453 219.903 146.383 220.196 145.153C220.598 143.459 218.334 142.37 216.597 142.499C214.86 142.628 212.917 143.212 211.514 142.179C211.07 141.852 210.741 141.393 210.328 141.026C209.056 139.899 207.204 139.797 205.506 139.753C202.795 139.682 208.963 128.532 209.025 127.853C209.491 122.681 204.19 119.927 201.151 116.638C199.564 114.904 198.402 112.852 197.239 110.801C151.561 128.876 117.783 170.822 110.122 219.376C109.778 221.553 109.37 223.804 109.354 225.974C112.56 225.07 117.547 222.67 120.802 224.621C124.936 227.098 121.944 233.231 126.709 235.044C127.889 235.028 127.548 233.085 128.232 232.123C128.612 231.588 129.307 231.409 129.893 231.114C130.479 230.818 131.045 230.186 130.808 229.575C131.839 228.765 133.261 229.798 134.219 230.694C135.345 231.747 136.633 232.716 138.142 233.033C141.286 233.694 144.19 231.44 147.022 229.922C149.363 228.667 151.915 227.868 154.45 227.076C153.224 227.149 152.603 225.453 153.075 224.319C153.547 223.185 154.615 222.433 155.397 221.484C156.729 219.867 155.706 217.985 156.819 216.267C158.196 214.131 160.849 212.632 161.073 210.106C161.353 207.043 157.962 205.09 155.111 203.955C156.622 200.499 160.714 198.124 160.71 194.347C160.71 192.892 160.06 191.536 159.429 190.231C158.137 187.56 156.846 184.888 155.554 182.227C155.015 181.119 154.467 179.898 154.795 178.713C155.166 177.312 156.596 176.507 157.88 175.866C159.278 175.164 160.676 174.462 162.074 173.76C162.654 173.475 163.286 173.181 163.914 173.288C164.594 173.406 165.096 173.946 165.515 174.496C167.795 177.453 168.882 181.299 168.505 185.021C173.463 184.282 178.333 182.934 182.959 180.996C182.445 183.861 183.627 187.023 182.74 189.706" fill="#F5F5F5"/>
<path opacity="0.4" d="M284.169 206.346C285.503 207.304 286.574 208.767 286.657 210.407C286.708 211.419 286.385 212.411 286.32 213.422C286.255 214.433 286.54 215.587 287.427 216.076C288.56 216.699 289.927 215.924 290.981 215.175C291.837 214.566 292.759 213.861 292.969 212.832C293.123 212.079 292.856 211.3 292.923 210.535C293.055 209.02 294.397 207.954 295.467 206.874C296.537 205.794 297.447 204.093 296.604 202.828C296.048 201.995 294.922 201.704 294.326 200.899C292.872 198.937 295.502 196.192 294.297 194.406C292.87 192.29 289.332 193.372 287.374 194.442C285.392 195.525 283.951 197.531 282.534 199.231C278.527 204.037 279.927 203.301 284.169 206.346Z" fill="#F5F5F5"/>
<path opacity="0.4" d="M336.953 132.111C313.451 111.723 280.652 101.24 249.861 101.022C249.005 101.016 248.148 101.02 247.302 101.024C243.239 105.605 241.084 114.282 249.133 115.902C249.137 116.78 248.63 116.998 248.187 117.7C247.491 118.803 248.652 120.191 249.858 120.689C253.811 122.322 258.61 122.227 257.983 127.581C257.234 133.967 254.217 129.903 250.902 132.215C250.422 132.55 250.141 133.095 249.756 133.536C248.347 135.155 245.873 135.142 243.732 135C244.269 133.745 243.435 132.104 242.105 131.797C241.603 131.681 241.04 131.721 240.623 131.419C239.727 130.771 240.405 129.241 241.428 128.82C242.45 128.399 243.625 128.574 244.687 128.265C245.749 127.956 246.717 126.698 246.073 125.799C245.804 125.424 245.337 125.249 244.886 125.147C242.995 124.721 240.908 125.3 239.507 126.639C239.154 125.623 238.056 124.92 236.985 125.025C235.914 125.129 234.973 126.031 234.823 127.097C234.603 128.655 235.673 130.776 234.279 131.506C235.516 131.182 236.92 131.625 237.748 132.6C241.006 136.44 239.067 145.778 247.654 144.213C249.033 143.962 250.353 143.374 251.753 143.3C253.153 143.226 254.757 143.877 255.128 145.23C256.932 142.613 261.558 143.171 263.097 140.39C263.821 139.081 263.492 137.281 262.351 136.313C262.161 136.152 261.943 136 261.852 135.769C261.666 135.298 262.087 134.815 262.155 134.313C262.274 133.44 261.329 132.764 261.213 131.89C261.051 130.673 262.466 129.896 263.654 129.588C264.843 129.28 266.295 128.843 266.536 127.639C266.618 127.229 266.53 126.798 266.613 126.388C266.78 125.56 267.622 125.006 268.459 124.898C269.297 124.79 270.136 125.032 270.946 125.271C271.498 125.741 271.253 126.673 270.759 127.203C270.265 127.733 269.581 128.082 269.175 128.682C268.948 129.018 270.065 136.298 269.516 136.109C272.12 137.007 277.678 137.14 276.558 141.03C276.163 142.403 275.362 143.834 275.871 145.17C274.041 144.655 272.205 144.162 270.363 143.69C269.915 144.281 270.651 145.089 271.37 145.271C272.089 145.453 272.943 145.427 273.432 145.985C273.775 146.376 273.821 146.939 273.85 147.459C273.944 149.151 274.039 150.842 274.133 152.534C274.236 154.37 274.481 156.473 276.001 157.507C277.73 158.684 280.175 157.747 281.628 156.243C281.976 155.882 282.359 155.46 282.861 155.458C283.315 155.456 283.683 155.802 284.022 156.104C285.805 157.698 288.299 158.657 290.627 158.107C292.955 157.556 294.88 155.215 294.489 152.855C294.338 151.947 293.945 150.836 294.648 150.24C295.061 149.89 295.766 149.847 295.951 149.339C296.183 148.7 295.367 148.239 294.821 147.834C293.834 147.101 293.481 145.633 294.027 144.532C294.306 143.968 299.382 141.884 300.17 142.268C301.978 143.149 301.659 147.996 301.884 149.866C301.971 150.588 302.104 151.393 302.687 151.827C303.598 152.505 304.914 151.8 305.62 150.91C306.326 150.021 306.843 148.892 307.866 148.399C308.461 148.112 309.143 148.087 309.803 148.068C311.14 148.029 312.642 148.051 313.584 149C314.025 149.444 314.283 150.042 314.723 150.487C315.728 151.501 317.404 151.452 318.748 150.971C320.092 150.49 321.303 149.659 322.682 149.29C325.617 148.506 328.973 149.897 331.673 148.503C332.978 147.829 333.918 145.967 332.885 144.923C331.993 144.022 330.058 144.177 329.821 142.932C329.594 141.739 332.518 140.017 333.032 138.973C333.439 138.146 332.549 136.609 333.491 135.077C334.256 133.831 336.121 133.45 336.953 132.111Z" fill="#F5F5F5"/>
<path opacity="0.4" d="M164.453 333.255C162.784 332.136 160.91 331.492 160.329 329.196C159.537 326.069 161.223 324.736 164.333 325.896C164.61 325.999 164.911 326.108 165.192 326.018C166.091 325.731 165.454 324.404 164.868 323.664C163.5 321.935 163.406 319.614 164.115 317.604C164.283 317.127 155.525 316.926 154.561 317.454C151.185 319.301 153.385 326.502 149.467 325.288C149.202 322.55 149.347 319.716 149.34 316.947C148.006 316.896 146.672 316.845 145.338 316.794C146.333 316.832 145.742 311.726 145.403 311.168C144.089 309.001 140.031 309.922 140.392 305.827C140.85 300.643 150.887 299.59 149.686 305.537C152.744 306.707 156.319 306.969 159.589 306.873C159.664 307.926 159.729 308.989 159.794 310.042C160.554 310.512 161.555 310.591 162.382 310.236C163.969 307.575 163.727 303.931 161.805 301.492C162.952 299.736 161.555 297.476 160.215 295.857C163.887 293.169 162.831 286.341 158.518 284.887C154.195 283.432 149.228 288.236 150.528 292.6C148.421 292.843 146.402 293.768 144.844 295.201C144.615 289.689 140.462 284.563 135.116 283.204C132.428 282.514 129.239 282.554 127.407 280.467C126.588 279.543 126.184 278.322 125.427 277.347C123.709 275.168 120.637 274.723 117.863 274.569C116.006 274.473 114.149 274.44 112.292 274.468C120.05 306.727 138.951 334.69 164.734 354.003C165.714 354.041 166.725 354.027 167.575 353.579C169.149 352.734 169.638 350.746 169.96 348.984C171.228 342.131 170.516 337.864 164.94 333.602C164.781 333.481 164.618 333.366 164.453 333.255Z" fill="#F5F5F5"/>
<path d="M290.95 343.817C293.588 344.073 294.774 347.314 295.312 349.956C296.109 353.924 296.917 357.892 297.714 361.86C292.879 364.127 293.281 370.021 295.533 374.02C349.82 354.903 388.9 303.351 389.332 242.486C389.365 237.822 389.171 233.219 388.759 228.676C388.646 228.603 388.523 228.54 388.399 228.477C384.571 226.668 381.55 229.941 378.663 231.788C378.011 232.206 369.593 236.294 369.484 235.157C369.838 238.831 369.64 242.558 368.898 246.174C368.842 246.448 368.765 246.748 368.535 246.906C367.987 247.282 367.367 246.525 367.167 245.892C366.656 244.272 366.437 242.565 365.828 240.979C365.22 239.393 364.111 237.87 362.491 237.36C360.862 236.847 359.087 237.451 357.396 237.215C355.333 236.927 353.612 235.395 352.571 233.591C351.566 231.85 351.099 229.837 350.592 227.921C348.607 232.327 343.574 229.61 340.616 233.172C339.666 234.316 338.524 235.965 337.145 235.411C335.833 234.884 335.682 232.643 334.278 232.469C333.296 232.347 332.576 233.426 332.431 234.405C332.286 235.384 332.444 236.431 332.03 237.33C331.449 238.594 329.686 239.135 328.497 238.415C327.428 237.768 327.015 236.455 326.347 235.399C325.679 234.343 324.246 233.454 323.24 234.195C323.003 234.369 322.827 234.615 322.691 234.876C321.716 236.753 322.821 239.03 324.127 240.694C325.433 242.357 327.044 244.021 327.182 246.132C326.424 246.674 325.224 246.422 324.748 245.621C324.583 245.342 324.49 245.007 324.242 244.798C323.702 244.344 322.903 244.776 322.311 245.159C319.524 246.961 316.001 247.586 312.764 246.852C312.523 242.571 312.281 238.29 312.04 234.008C311.07 233.975 310.489 233.913 310.121 232.918C306.909 236.045 303.966 239.413 300.426 242.232C300.002 242.57 299.549 242.938 299.405 243.461C299.255 244.007 299.482 244.584 299.447 245.148C299.333 247.017 296.828 247.507 294.956 247.458C294.413 247.76 294.725 248.652 295.269 248.954C295.812 249.256 296.492 249.285 296.983 249.667C297.716 250.238 297.729 251.352 297.461 252.242C296.53 255.335 292.748 257.22 289.718 256.1C289.357 255.967 288.993 255.784 288.778 255.466C288.304 254.766 288.752 253.84 288.839 252.999C289.18 249.683 285.601 250.454 283.951 251.371C281.713 252.614 280.459 255.913 280.041 258.272C279.553 261.029 277.469 279.326 271.363 276.797C270.79 276.56 270.376 276.044 270.085 275.496C269.203 273.835 269.265 271.833 268.619 270.067C267.973 268.301 265.963 266.69 264.32 267.605C263.661 267.972 263.241 268.662 262.611 269.077C260.856 270.233 258.359 268.845 256.446 269.716C255.567 270.117 254.957 270.936 254.16 271.482C253.363 272.028 252.112 272.203 251.55 271.417C250.92 270.537 251.658 269.209 251.142 268.258C250.6 267.259 248.915 267.466 248.343 268.448C247.771 269.43 248.116 270.728 248.821 271.619C249.19 272.085 249.666 272.513 249.788 273.095C250.008 274.138 249.019 275.004 248.143 275.611C246.75 276.575 245.358 277.539 243.965 278.503C244.056 279.467 244.996 280.139 245.929 280.401C246.861 280.663 247.858 280.652 248.784 280.959C253.242 282.446 253.225 289.063 259.074 287.764C258.726 286.007 260.6 284.218 262.338 284.646C264.482 285.174 265.868 288.229 267.992 287.625C268.731 287.415 269.294 286.772 270.041 286.595C272.105 286.105 273.115 289.277 273.695 290.627C275.62 295.105 272.625 295.647 272.746 299.644C272.801 301.473 274.155 303.017 274.491 304.816C274.8 306.472 274.219 308.184 274.444 309.853C275.061 314.441 281.133 311.659 283.823 311.127C282.36 313.727 284.535 316.89 286.907 318.692C290.55 321.46 289.926 321.223 290.38 325.218C290.5 326.273 291.106 327.343 292.107 327.698C293.849 328.316 295.545 326.594 297.385 326.414C298.268 326.328 299.164 326.605 300.039 326.458C302.335 326.07 303.135 323.255 304.632 321.471C305.942 319.91 308.051 319.059 310.077 319.273C310.241 320.451 310.246 321.652 310.092 322.832C308.806 323.626 307.519 324.42 306.233 325.215C305.095 325.917 303.916 326.66 303.213 327.797C302.819 328.434 302.575 329.191 302.005 329.676C300.87 330.64 299.17 330.058 297.684 329.962C294.081 329.728 288.217 331.973 284.746 333.113C281.047 334.328 279.753 336.944 276.342 338.117C275.741 338.324 275.606 339.195 275.96 339.723C276.315 340.251 276.97 340.486 277.596 340.597C279.049 340.854 280.587 340.6 281.881 339.891C280.184 340.821 285.144 344.917 286.042 345.119C287.513 345.45 289.491 344.341 290.988 344.265C294.7 344.077 296.851 344.815 294.413 348.851C293.481 350.394 292.393 352.361 293.417 353.846C294.399 353.438 295.584 354.028 296.134 354.939C296.684 355.849 296.725 356.979 296.605 358.036C296.524 358.748 296.351 359.501 295.83 359.994C295.551 360.258 295.185 360.435 294.972 360.754C294.281 361.794 295.701 362.933 296.867 363.381" fill="#F5F5F5"/>
<path d="M168.026 182.905C169.181 182.039 170.824 182.737 172.027 183.534C173.23 184.331 174.643 185.262 176 184.771C176.026 183.097 176.053 181.423 176.079 179.749C176.084 179.434 176.104 179.083 176.332 178.866C176.563 178.646 176.921 178.647 177.24 178.662C178.317 178.711 179.394 178.76 180.472 178.81C181.371 179.798 178.867 181.004 179.223 182.291C179.38 182.86 180.023 183.107 180.543 183.386C184.979 185.766 182.165 190.715 180.155 193.403C177.822 196.523 177.977 200.776 178.228 204.667C178.321 206.05 178.486 207.599 179.552 208.504C180.588 209.399 182.116 209.337 183.444 209.729C185.74 210.395 187.366 212.429 189.515 213.486C197.025 217.182 201.975 209.144 199.529 202.811C198.261 199.529 197.718 200.152 198.444 196.644C198.747 195.181 198.262 193.455 199.784 192.457C201.397 191.399 203.724 192.535 203.853 194.499C203.979 196.427 204.421 198.259 203.629 200.069C205.85 199.244 208.495 199.768 210.923 199.768C210.577 202.005 213.463 203.976 215.42 202.838C215.355 201.742 215.652 200.233 216.75 200.242C217.07 200.244 217.368 200.398 217.644 200.561C218.796 201.24 219.814 202.145 221.028 202.713C222.894 203.583 228.255 203.171 229.093 205.687C229.24 206.129 229.238 206.613 229.413 207.045C229.786 207.966 230.955 208.416 231.904 208.121C232.853 207.827 233.534 206.917 233.719 205.94C233.842 205.289 233.773 204.608 233.943 203.968C234.846 200.568 238.337 203.23 239.896 202.314C240.644 201.875 243.725 196.079 243.793 195.377C245.276 197.223 247.494 198.78 249.961 198.664C252.662 198.538 253.814 196.39 254.422 193.766C255.063 190.995 255.096 187.693 255.702 185.686C256.028 184.608 256.307 183.299 255.544 182.47C254.59 181.434 252.559 181.83 251.866 180.604C251.646 180.215 251.628 179.749 251.552 179.308C251.108 176.724 248.212 174.852 245.673 175.509C244.843 174.965 244.829 173.786 244.781 172.795C244.732 171.804 244.313 170.578 243.323 170.508C242.186 170.427 241.669 171.916 241.688 173.056C241.707 174.219 241.888 175.379 242.224 176.492C242.476 177.323 242.815 178.214 242.52 179.031C242.297 179.649 241.753 180.086 241.221 180.47C239.937 181.394 238.476 182.226 236.893 182.215C235.311 182.204 233.645 181.054 233.583 179.473C233.566 179.049 233.661 178.616 233.562 178.203C233.307 177.142 231.952 176.776 230.871 176.922C229.79 177.068 228.712 177.52 227.643 177.303C226.574 177.086 225.685 175.693 226.443 174.908C225.007 174.404 222.952 174.154 222.386 175.567C222.204 176.021 222.255 176.528 222.246 177.017C222.191 180.034 218.44 184.389 215.881 181.234C214.198 179.16 217.096 175.387 214.077 173.68C212.634 172.864 210.675 173.585 209.246 172.742C208.8 172.213 209.566 171.497 210.236 171.321C212.352 170.765 214.742 171.413 216.286 172.963C217.142 171.205 215.82 168.628 217.312 167.365C218.785 166.118 221.62 167.586 222.724 166.003C223.04 165.55 223.09 164.969 223.129 164.416C223.324 161.692 222.485 156.694 226.333 156.237C226.799 156.182 227.285 156.217 227.723 156.047C229.051 155.53 229.04 153.672 228.793 152.269C227.347 151.647 225.797 152.718 224.407 153.454C223.016 154.19 220.809 154.313 220.336 152.813C219.997 151.739 220.839 150.394 220.128 149.521C219.798 149.116 219.215 148.962 218.936 148.521C218.26 147.453 219.903 146.383 220.196 145.153C220.598 143.459 218.334 142.37 216.597 142.499C214.86 142.628 212.917 143.212 211.514 142.179C211.07 141.852 210.741 141.393 210.328 141.026C209.056 139.899 207.204 139.797 205.506 139.753C202.795 139.682 208.963 128.532 209.025 127.853C209.491 122.681 204.19 119.927 201.151 116.638C199.564 114.904 198.402 112.852 197.239 110.801C151.561 128.876 117.783 170.822 110.122 219.376C109.778 221.553 109.37 223.804 109.354 225.974C112.56 225.07 117.547 222.67 120.802 224.621C124.936 227.098 121.944 233.231 126.709 235.044C127.889 235.028 127.548 233.085 128.232 232.123C128.612 231.588 129.307 231.409 129.893 231.114C130.479 230.818 131.045 230.186 130.808 229.575C131.839 228.765 133.261 229.798 134.219 230.694C135.345 231.747 136.633 232.716 138.142 233.033C141.286 233.694 144.19 231.44 147.022 229.922C149.363 228.667 151.915 227.868 154.45 227.076C153.224 227.149 152.603 225.453 153.075 224.319C153.547 223.185 154.615 222.433 155.397 221.484C156.729 219.867 155.706 217.985 156.819 216.267C158.196 214.131 160.849 212.632 161.073 210.106C161.353 207.043 157.962 205.09 155.111 203.955C156.622 200.499 160.714 198.124 160.71 194.347C160.71 192.892 160.06 191.536 159.429 190.231C158.137 187.56 156.846 184.888 155.554 182.227C155.015 181.119 154.467 179.898 154.795 178.713C155.166 177.312 156.596 176.507 157.88 175.866C159.278 175.164 160.676 174.462 162.074 173.76C162.654 173.475 163.286 173.181 163.914 173.288C164.594 173.406 165.096 173.946 165.515 174.496C167.795 177.453 168.882 181.299 168.505 185.021C173.463 184.282 178.333 182.934 182.959 180.996C182.445 183.861 183.627 187.023 182.74 189.706" fill="#F5F5F5"/>
<path d="M284.169 206.346C285.503 207.304 286.574 208.767 286.657 210.407C286.708 211.419 286.385 212.411 286.32 213.422C286.255 214.433 286.54 215.587 287.427 216.076C288.56 216.699 289.927 215.924 290.981 215.175C291.837 214.566 292.759 213.861 292.969 212.832C293.123 212.079 292.856 211.3 292.923 210.535C293.055 209.02 294.397 207.954 295.467 206.874C296.537 205.794 297.447 204.093 296.604 202.828C296.048 201.995 294.922 201.704 294.326 200.899C292.872 198.937 295.502 196.192 294.297 194.406C292.87 192.29 289.332 193.372 287.374 194.442C285.392 195.525 283.951 197.531 282.534 199.231C278.527 204.037 279.927 203.301 284.169 206.346Z" fill="#F5F5F5"/>
<path d="M336.953 132.111C313.451 111.723 280.652 101.24 249.861 101.022C249.005 101.016 248.148 101.02 247.302 101.024C243.239 105.605 241.084 114.282 249.133 115.902C249.137 116.78 248.63 116.998 248.187 117.7C247.491 118.803 248.652 120.191 249.858 120.689C253.811 122.322 258.61 122.227 257.983 127.581C257.234 133.967 254.217 129.903 250.902 132.215C250.422 132.55 250.141 133.095 249.756 133.536C248.347 135.155 245.873 135.142 243.732 135C244.269 133.745 243.435 132.104 242.105 131.797C241.603 131.681 241.04 131.721 240.623 131.419C239.727 130.771 240.405 129.241 241.428 128.82C242.45 128.399 243.625 128.574 244.687 128.265C245.749 127.956 246.717 126.698 246.073 125.799C245.804 125.424 245.337 125.249 244.886 125.147C242.995 124.721 240.908 125.3 239.507 126.639C239.154 125.623 238.056 124.92 236.985 125.025C235.914 125.129 234.973 126.031 234.823 127.097C234.603 128.655 235.673 130.776 234.279 131.506C235.516 131.182 236.92 131.625 237.748 132.6C241.006 136.44 239.067 145.778 247.654 144.213C249.033 143.962 250.353 143.374 251.753 143.3C253.153 143.226 254.757 143.877 255.128 145.23C256.932 142.613 261.558 143.171 263.097 140.39C263.821 139.081 263.492 137.281 262.351 136.313C262.161 136.152 261.943 136 261.852 135.769C261.666 135.298 262.087 134.815 262.155 134.313C262.274 133.44 261.329 132.764 261.213 131.89C261.051 130.673 262.466 129.896 263.654 129.588C264.843 129.28 266.295 128.843 266.536 127.639C266.618 127.229 266.53 126.798 266.613 126.388C266.78 125.56 267.622 125.006 268.459 124.898C269.297 124.79 270.136 125.032 270.946 125.271C271.498 125.741 271.253 126.673 270.759 127.203C270.265 127.733 269.581 128.082 269.175 128.682C268.948 129.018 270.065 136.298 269.516 136.109C272.12 137.007 277.678 137.14 276.558 141.03C276.163 142.403 275.362 143.834 275.871 145.17C274.041 144.655 272.205 144.162 270.363 143.69C269.915 144.281 270.651 145.089 271.37 145.271C272.089 145.453 272.943 145.427 273.432 145.985C273.775 146.376 273.821 146.939 273.85 147.459C273.944 149.151 274.039 150.842 274.133 152.534C274.236 154.37 274.481 156.473 276.001 157.507C277.73 158.684 280.175 157.747 281.628 156.243C281.976 155.882 282.359 155.46 282.861 155.458C283.315 155.456 283.683 155.802 284.022 156.104C285.805 157.698 288.299 158.657 290.627 158.107C292.955 157.556 294.88 155.215 294.489 152.855C294.338 151.947 293.945 150.836 294.648 150.24C295.061 149.89 295.766 149.847 295.951 149.339C296.183 148.7 295.367 148.239 294.821 147.834C293.834 147.101 293.481 145.633 294.027 144.532C294.306 143.968 299.382 141.884 300.17 142.268C301.978 143.149 301.659 147.996 301.884 149.866C301.971 150.588 302.104 151.393 302.687 151.827C303.598 152.505 304.914 151.8 305.62 150.91C306.326 150.021 306.843 148.892 307.866 148.399C308.461 148.112 309.143 148.087 309.803 148.068C311.14 148.029 312.642 148.051 313.584 149C314.025 149.444 314.283 150.042 314.723 150.487C315.728 151.501 317.404 151.452 318.748 150.971C320.092 150.49 321.303 149.659 322.682 149.29C325.617 148.506 328.973 149.897 331.673 148.503C332.978 147.829 333.918 145.967 332.885 144.923C331.993 144.022 330.058 144.177 329.821 142.932C329.594 141.739 332.518 140.017 333.032 138.973C333.439 138.146 332.549 136.609 333.491 135.077C334.256 133.831 336.121 133.45 336.953 132.111Z" fill="#F5F5F5"/>
<path d="M164.453 333.255C162.784 332.136 160.91 331.492 160.329 329.196C159.537 326.069 161.223 324.736 164.333 325.896C164.61 325.999 164.911 326.108 165.192 326.018C166.091 325.731 165.454 324.404 164.868 323.664C163.5 321.935 163.406 319.614 164.115 317.604C164.283 317.127 155.525 316.926 154.561 317.454C151.185 319.301 153.385 326.502 149.467 325.288C149.202 322.55 149.347 319.716 149.34 316.947C148.006 316.896 146.672 316.845 145.338 316.794C146.333 316.832 145.742 311.726 145.403 311.168C144.089 309.001 140.031 309.922 140.392 305.827C140.85 300.643 150.887 299.59 149.686 305.537C152.744 306.707 156.319 306.969 159.589 306.873C159.664 307.926 159.729 308.989 159.794 310.042C160.554 310.512 161.555 310.591 162.382 310.236C163.969 307.575 163.727 303.931 161.805 301.492C162.952 299.736 161.555 297.476 160.215 295.857C163.887 293.169 162.831 286.341 158.518 284.887C154.195 283.432 149.228 288.236 150.528 292.6C148.421 292.843 146.402 293.768 144.844 295.201C144.615 289.689 140.462 284.563 135.116 283.204C132.428 282.514 129.239 282.554 127.407 280.467C126.588 279.543 126.184 278.322 125.427 277.347C123.709 275.168 120.637 274.723 117.863 274.569C116.006 274.473 114.149 274.44 112.292 274.468C120.05 306.727 138.951 334.69 164.734 354.003C165.714 354.041 166.725 354.027 167.575 353.579C169.149 352.734 169.638 350.746 169.96 348.984C171.228 342.131 170.516 337.864 164.94 333.602C164.781 333.481 164.618 333.366 164.453 333.255Z" fill="#F5F5F5"/>
<path d="M83.25 166.796C83.25 162.312 86.886 158.676 91.37 158.676C92.181 158.676 92.963 158.798 93.702 159.02C93.584 158.206 93.52 157.374 93.52 156.527C93.52 147.03 101.219 139.332 110.715 139.332C111.797 139.332 112.855 139.437 113.882 139.628C116.525 135.303 121.276 132.406 126.716 132.406C134.949 132.406 141.628 139.021 141.75 147.226C141.834 147.224 141.916 147.213 142 147.213C149.65 147.213 155.852 153.415 155.852 161.065C155.852 168.715 149.65 174.917 142 174.917H91.131L91.141 174.906C86.764 174.783 83.25 171.204 83.25 166.796Z" fill="#FAFAFA"/>
<path d="M358.221 192.834C358.221 188.988 361.339 185.87 365.185 185.87C365.881 185.87 366.551 185.975 367.185 186.165C367.083 185.467 367.029 184.753 367.029 184.027C367.029 175.882 373.632 169.279 381.777 169.279C382.705 169.279 383.613 169.369 384.494 169.533C386.761 165.823 390.836 163.339 395.501 163.339C402.563 163.339 408.291 169.013 408.396 176.05C408.468 176.049 408.538 176.039 408.611 176.039C415.172 176.039 420.491 181.358 420.491 187.919C420.491 194.48 415.172 199.799 408.611 199.799H364.981L364.99 199.789C361.234 199.684 358.221 196.614 358.221 192.834Z" fill="#FAFAFA"/>
<path d="M200.108 256.281C200.108 251.796 203.743 248.161 208.228 248.161C209.039 248.161 209.821 248.283 210.56 248.505C210.442 247.691 210.378 246.859 210.378 246.012C210.378 236.515 218.077 228.817 227.573 228.817C228.656 228.817 229.713 228.922 230.741 229.113C233.384 224.788 238.135 221.891 243.574 221.891C251.808 221.891 258.486 228.507 258.609 236.711C258.693 236.709 258.775 236.698 258.859 236.698C266.509 236.698 272.711 242.9 272.711 250.55C272.711 258.2 266.509 264.402 258.859 264.402H207.99L208 264.391C203.621 264.267 200.108 260.688 200.108 256.281Z" fill="#FAFAFA"/>
<path d="M74.735 331.711C74.735 328.602 77.255 326.082 80.364 326.082C80.926 326.082 81.468 326.167 81.98 326.32C81.898 325.756 81.854 325.179 81.854 324.592C81.854 318.008 87.191 312.671 93.775 312.671C94.525 312.671 95.259 312.744 95.971 312.876C97.803 309.878 101.097 307.869 104.868 307.869C110.576 307.869 115.206 312.455 115.291 318.143C115.349 318.142 115.406 318.134 115.465 318.134C120.768 318.134 125.068 322.433 125.068 327.737C125.068 333.04 120.769 337.34 115.465 337.34H80.199L80.206 337.332C77.171 337.248 74.735 334.767 74.735 331.711Z" fill="#FAFAFA"/>
<path d="M378.177 335.775C378.177 332.866 380.535 330.509 383.443 330.509C383.969 330.509 384.476 330.588 384.955 330.732C384.878 330.204 384.837 329.664 384.837 329.115C384.837 322.956 389.83 317.963 395.989 317.963C396.691 317.963 397.377 318.031 398.043 318.155C399.757 315.35 402.838 313.471 406.366 313.471C411.706 313.471 416.038 317.762 416.117 323.083C416.172 323.082 416.224 323.075 416.279 323.075C421.241 323.075 425.263 327.097 425.263 332.059C425.263 337.021 421.241 341.043 416.279 341.043H383.286L383.293 341.036C380.456 340.954 378.177 338.633 378.177 335.775Z" fill="#FAFAFA"/>
<path d="M418.386 289.991C431.802 254.6 367.143 197.276 273.966 161.953C180.789 126.631 94.378 126.686 80.962 162.077" stroke="#E0E0E0" stroke-width="1.9163" stroke-miterlimit="10" stroke-linecap="round" stroke-linejoin="round"/>
<path d="M357.017 85.805C326.595 63.288 253.875 109.963 194.591 190.057C135.307 270.151 111.91 353.334 142.332 375.852" stroke="#E0E0E0" stroke-width="1.9163" stroke-miterlimit="10" stroke-linecap="round" stroke-linejoin="round"/>
<path d="M250 427.561C357.082 427.561 443.889 422.492 443.889 416.238C443.889 409.985 357.082 404.915 250 404.915C142.918 404.915 56.111 409.985 56.111 416.238C56.111 422.492 142.918 427.561 250 427.561Z" fill="#F5F5F5"/>
<path d="M272.188 164.777C272.188 164.777 183.734 150.99 136.775 157.815V344.743C136.775 344.743 235.093 336.243 266.943 346.968L272.188 343.335V164.777Z" fill="#263238"/>
<path opacity="0.6" d="M272.188 164.777C272.188 164.777 183.734 150.99 136.775 157.815V344.743C136.775 344.743 235.093 336.243 266.943 346.968L272.188 343.335V164.777Z" fill="white"/>
<path d="M272.188 164.777C272.188 164.777 360.642 150.99 407.601 157.815V344.743C407.601 344.743 309.283 336.243 277.433 346.968L272.188 343.335V164.777Z" fill="#263238"/>
<path opacity="0.6" d="M272.188 164.777C272.188 164.777 360.642 150.99 407.601 157.815V344.743C407.601 344.743 309.283 336.243 277.433 346.968L272.188 343.335V164.777Z" fill="white"/>
<path d="M272.188 343.935V165.377C272.188 165.377 224.217 138.861 140.841 155.112V340.715C140.841 340.715 212.708 328.701 272.188 343.935Z" fill="#407BFF"/>
<path opacity="0.8" d="M272.188 343.935V165.377C272.188 165.377 224.217 138.861 140.841 155.112V340.715C140.841 340.715 212.708 328.701 272.188 343.935Z" fill="white"/>
<path d="M272.188 343.935V165.377C272.188 165.377 225.025 136.616 143.059 148.948V334.551C143.059 334.551 213.714 325.905 272.188 343.935Z" fill="#407BFF"/>
<path opacity="0.7" d="M272.188 343.935V165.377C272.188 165.377 225.025 136.616 143.059 148.948V334.551C143.059 334.551 213.714 325.905 272.188 343.935Z" fill="white"/>
<path d="M272.188 343.861V165.304C272.188 165.304 225.345 135.014 145.391 144.676V330.28C145.391 330.28 215.149 323.927 272.188 343.861Z" fill="#407BFF"/>
<path opacity="0.8" d="M272.188 343.861V165.304C272.188 165.304 225.345 135.014 145.391 144.676V330.28C145.391 330.28 215.149 323.927 272.188 343.861Z" fill="white"/>
<path d="M272.188 343.335V164.777C272.188 164.777 226.614 133.54 147.991 141.549V327.153C147.991 327.153 216.099 322.221 272.188 343.335Z" fill="#407BFF"/>
<path opacity="0.7" d="M272.188 343.335V164.777C272.188 164.777 226.614 133.54 147.991 141.549V327.153C147.991 327.153 216.099 322.221 272.188 343.335Z" fill="white"/>
<path d="M272.188 343.935V165.377C272.188 165.377 320.159 138.861 403.535 155.112V340.715C403.535 340.715 331.668 328.701 272.188 343.935Z" fill="#407BFF"/>
<path opacity="0.7" d="M272.188 343.935V165.377C272.188 165.377 320.159 138.861 403.535 155.112V340.715C403.535 340.715 331.668 328.701 272.188 343.935Z" fill="white"/>
<path d="M272.188 343.935V165.377C272.188 165.377 319.351 136.616 401.317 148.948V334.551C401.317 334.551 330.662 325.905 272.188 343.935Z" fill="#407BFF"/>
<path opacity="0.8" d="M272.188 343.935V165.377C272.188 165.377 319.351 136.616 401.317 148.948V334.551C401.317 334.551 330.662 325.905 272.188 343.935Z" fill="white"/>
<path d="M272.188 343.861V165.304C272.188 165.304 319.031 135.014 398.985 144.676V330.28C398.985 330.28 329.227 323.927 272.188 343.861Z" fill="#407BFF"/>
<path opacity="0.7" d="M272.188 343.861V165.304C272.188 165.304 319.031 135.014 398.985 144.676V330.28C398.985 330.28 329.227 323.927 272.188 343.861Z" fill="white"/>
<path d="M272.188 343.335V164.777C272.188 164.777 317.762 133.54 396.385 141.549V327.153C396.385 327.153 328.277 322.221 272.188 343.335Z" fill="#407BFF"/>
<path opacity="0.8" d="M272.188 343.335V164.777C272.188 164.777 317.762 133.54 396.385 141.549V327.153C396.385 327.153 328.277 322.221 272.188 343.335Z" fill="white"/>
<path d="M309.73 276.22C306.528 273.034 302.342 271.425 298.156 271.425C293.97 271.425 289.785 273.034 286.583 276.22C280.179 282.624 280.179 292.979 286.583 299.382L298.156 310.955L309.73 299.382C316.133 292.978 316.133 282.624 309.73 276.22ZM303.513 293.15C302.03 294.618 300.093 295.368 298.156 295.368C296.219 295.368 294.283 294.618 292.799 293.15C289.847 290.198 289.847 285.403 292.799 282.451C294.283 280.967 296.219 280.218 298.156 280.218C300.093 280.218 302.03 280.968 303.513 282.451C306.466 285.403 306.466 290.198 303.513 293.15Z" fill="#407BFF"/>
<path opacity="0.3" d="M292.799 282.452C289.847 285.404 289.847 290.199 292.799 293.151C294.283 294.619 296.219 295.369 298.156 295.369V310.956L286.583 299.383C280.179 292.979 280.179 282.625 286.583 276.221C289.785 273.035 293.97 271.426 298.156 271.426V280.219C296.22 280.218 294.283 280.968 292.799 282.452Z" fill="white"/>
<path d="M379.877 161.699C376.494 158.333 372.071 156.633 367.649 156.633C363.227 156.633 358.804 158.333 355.422 161.699C348.656 168.465 348.656 179.405 355.422 186.171L367.649 198.399L379.877 186.171C386.642 179.406 386.642 168.465 379.877 161.699ZM373.309 179.587C371.742 181.138 369.695 181.93 367.649 181.93C365.603 181.93 363.557 181.138 361.989 179.587C358.87 176.468 358.87 171.402 361.989 168.283C363.557 166.716 365.603 165.923 367.649 165.923C369.695 165.923 371.742 166.715 373.309 168.283C376.428 171.402 376.428 176.468 373.309 179.587Z" fill="#407BFF"/>
<path opacity="0.3" d="M361.989 168.283C358.87 171.402 358.87 176.468 361.989 179.587C363.557 181.138 365.603 181.93 367.649 181.93V198.398L355.422 186.17C348.656 179.405 348.656 168.464 355.422 161.698C358.805 158.332 363.227 156.632 367.649 156.632V165.922C365.603 165.924 363.557 166.716 361.989 168.283Z" fill="white"/>
<path opacity="0.4" d="M301.727 312.99C320.662 317.381 341.915 319.658 359.415 309.201C367.96 304.096 374.592 296.069 378.693 286.999C382.243 279.148 383.968 270.343 382.71 261.819C379.452 239.738 358.465 230.618 338.983 239.94C332.827 242.885 326.814 246.436 320.101 247.664C310.084 249.497 299.255 245.737 293.002 237.618C287.88 230.968 285.809 222.252 286.46 213.883C287.473 200.872 293.8 187.308 306.776 182.755C314.059 180.199 323.498 181.587 327.957 188.356C332.443 195.165 331.473 204.332 337.018 210.618C339.889 213.873 343.913 216.01 348.15 216.953C358.617 219.283 372.272 214.243 369.431 201.425" stroke="black" stroke-width="0.9724" stroke-miterlimit="10" stroke-linecap="round" stroke-linejoin="round" stroke-dasharray="1.94 4.86"/>
<g opacity="0.2">
<path d="M164.378 164.022C164.378 164.022 213.864 161.318 260.118 181.313" stroke="black" stroke-width="0.9724" stroke-miterlimit="10" stroke-linecap="round" stroke-linejoin="round"/>
<path d="M164.378 184.399C164.378 184.399 213.576 181.371 260.118 200.578" stroke="black" stroke-width="0.9724" stroke-miterlimit="10" stroke-linecap="round" stroke-linejoin="round"/>
<path d="M164.378 204.775C164.378 204.775 213.289 201.423 260.118 219.842" stroke="black" stroke-width="0.9724" stroke-miterlimit="10" stroke-linecap="round" stroke-linejoin="round"/>
<path d="M164.378 225.15C164.378 225.15 213.002 221.474 260.118 239.105" stroke="black" stroke-width="0.9724" stroke-miterlimit="10" stroke-linecap="round" stroke-linejoin="round"/>
<path d="M164.378 245.528C164.378 245.528 212.714 241.528 260.118 258.371" stroke="black" stroke-width="0.9724" stroke-miterlimit="10" stroke-linecap="round" stroke-linejoin="round"/>
<path d="M164.378 265.903C164.378 265.903 212.427 261.579 260.118 277.634" stroke="black" stroke-width="0.9724" stroke-miterlimit="10" stroke-linecap="round" stroke-linejoin="round"/>
<path d="M164.378 286.279C164.378 286.279 212.139 281.632 260.118 296.898" stroke="black" stroke-width="0.9724" stroke-miterlimit="10" stroke-linecap="round" stroke-linejoin="round"/>
<path d="M164.378 306.655C164.378 306.655 211.852 301.684 260.118 316.162" stroke="black" stroke-width="0.9724" stroke-miterlimit="10" stroke-linecap="round" stroke-linejoin="round"/>
</g>
<path d="M189.702 218.634C189.702 215.971 187.543 213.812 184.88 213.812C184.398 213.812 183.934 213.885 183.495 214.016C183.565 213.532 183.603 213.038 183.603 212.535C183.603 206.895 179.031 202.323 173.391 202.323C172.748 202.323 172.12 202.385 171.51 202.499C169.94 199.93 167.119 198.21 163.889 198.21C158.999 198.21 155.033 202.139 154.96 207.011C154.91 207.01 154.862 207.004 154.811 207.004C150.268 207.004 146.585 210.687 146.585 215.23C146.585 219.773 150.268 223.456 154.811 223.456H185.021L185.015 223.449C187.615 223.377 189.702 221.252 189.702 218.634Z" fill="white"/>
<path d="M279.9 206.011C279.9 203.348 277.741 201.189 275.078 201.189C274.596 201.189 274.132 201.262 273.693 201.393C273.763 200.909 273.801 200.415 273.801 199.912C273.801 194.272 269.229 189.7 263.589 189.7C262.946 189.7 262.318 189.762 261.708 189.876C260.138 187.307 257.317 185.587 254.087 185.587C249.197 185.587 245.231 189.516 245.158 194.388C245.108 194.387 245.06 194.38 245.009 194.38C240.466 194.38 236.783 198.063 236.783 202.606C236.783 207.149 240.466 210.832 245.009 210.832H275.219L275.213 210.825C277.813 210.754 279.9 208.629 279.9 206.011Z" fill="white"/>
<path d="M252.641 276.883C252.641 274.22 250.482 272.061 247.819 272.061C247.337 272.061 246.873 272.134 246.434 272.265C246.504 271.781 246.542 271.287 246.542 270.784C246.542 265.144 241.97 260.572 236.33 260.572C235.687 260.572 235.059 260.634 234.449 260.748C232.879 258.179 230.058 256.459 226.827 256.459C221.938 256.459 217.971 260.388 217.899 265.26C217.849 265.259 217.801 265.252 217.75 265.252C213.207 265.252 209.524 268.935 209.524 273.478C209.524 278.021 213.207 281.704 217.75 281.704H247.96L247.954 281.697C250.555 281.626 252.641 279.5 252.641 276.883Z" fill="white"/>
<path d="M266.943 346.967C266.943 346.967 270.657 348.773 277.433 346.967C277.433 346.967 276.299 343.334 272.188 343.334C268.077 343.335 266.943 346.967 266.943 346.967Z" fill="black"/>
<path opacity="0.5" d="M266.943 346.967C266.943 346.967 270.657 348.773 277.433 346.967C277.433 346.967 276.299 343.334 272.188 343.334C268.077 343.335 266.943 346.967 266.943 346.967Z" fill="white"/>
<path d="M367.281 394.033C367.281 394.033 372.031 383.669 366.604 373.452C361.177 363.235 359.603 360.828 363.063 358.735C366.523 356.642 368.11 366.908 368.11 366.908C368.11 366.908 371.026 359.845 368.618 352.454C366.21 345.062 364.7 333.023 367.989 331.732C371.278 330.441 368.617 346.751 371.47 352.31C371.47 352.31 373.867 346.121 374.261 340.184C374.655 334.247 374.039 324.767 376.636 322.335C379.233 319.903 380.897 321.586 378.344 334.688C375.792 347.79 375.811 358.44 375.811 358.44C375.811 358.44 381.448 341.254 385.231 340.752C389.014 340.251 389.009 345.817 385.771 350.644C382.533 355.471 376.288 364.12 375.264 368.57C375.264 368.57 381.451 355.636 387.017 359.6C392.583 363.564 382.173 371.376 377.533 374.199C372.893 377.022 369.671 394.717 369.671 394.717L367.281 394.033Z" fill="#407BFF"/>
<path opacity="0.2" d="M367.281 394.033C367.281 394.033 372.031 383.669 366.604 373.452C361.177 363.235 359.603 360.828 363.063 358.735C366.523 356.642 368.11 366.908 368.11 366.908C368.11 366.908 371.026 359.845 368.618 352.454C366.21 345.062 364.7 333.023 367.989 331.732C371.278 330.441 368.617 346.751 371.47 352.31C371.47 352.31 373.867 346.121 374.261 340.184C374.655 334.247 374.039 324.767 376.636 322.335C379.233 319.903 380.897 321.586 378.344 334.688C375.792 347.79 375.811 358.44 375.811 358.44C375.811 358.44 381.448 341.254 385.231 340.752C389.014 340.251 389.009 345.817 385.771 350.644C382.533 355.471 376.288 364.12 375.264 368.57C375.264 368.57 381.451 355.636 387.017 359.6C392.583 363.564 382.173 371.376 377.533 374.199C372.893 377.022 369.671 394.717 369.671 394.717L367.281 394.033Z" fill="black"/>
<path d="M371.031 398.283C371.031 398.283 366.406 387.849 371.955 377.714C377.504 367.579 379.106 365.196 375.672 363.051C372.238 360.906 370.527 371.148 370.527 371.148C370.527 371.148 367.696 364.042 370.192 356.687C372.689 349.332 374.343 337.316 371.07 335.976C367.797 334.636 370.262 350.984 367.342 356.501C367.342 356.501 365.02 350.277 364.697 344.334C364.374 338.392 365.103 328.922 362.536 326.451C359.968 323.981 358.285 325.638 360.679 338.777C363.073 351.916 362.927 362.565 362.927 362.565C362.927 362.565 357.497 345.296 353.72 344.738C349.943 344.18 349.881 349.746 353.061 354.621C356.241 359.496 362.382 368.237 363.353 372.702C363.353 372.702 357.322 359.677 351.709 363.558C346.096 367.439 356.412 375.405 361.017 378.297C365.623 381.189 368.632 398.93 368.632 398.93L371.031 398.283Z" fill="#407BFF"/>
<path d="M349.697 390.845H387.908L384.815 418.189H352.789L349.697 390.845Z" fill="#263238"/>
<path d="M214.603 188.138L214.102 188.446L213.274 188.96L194.747 187.246H194.734L201.276 182.02L214.449 186.674C215.097 186.899 215.187 187.779 214.603 188.138Z" fill="#407BFF"/>
<path opacity="0.2" d="M214.102 188.446L213.274 188.96L194.747 187.246L200.46 182.688L213.627 187.342C214.115 187.515 214.288 188.042 214.102 188.446Z" fill="black"/>
<path d="M198.496 179.561L187.576 186.667L187.48 186.43L181.439 171.453L184.328 170.034C184.36 170.015 184.392 170.002 184.431 169.989C185.76 169.385 187.333 169.617 188.43 170.599L198.496 179.561Z" fill="#407BFF"/>
<path opacity="0.2" d="M197.617 179.831L187.48 186.43L181.439 171.453L184.328 170.034C184.36 170.015 184.392 170.002 184.431 169.989C185.535 169.79 186.691 170.098 187.557 170.869L197.617 179.831Z" fill="black"/>
<path d="M323.494 158.036C323.468 158.062 323.443 158.087 323.417 158.107L318.923 161.734H255.682L263.662 153.729L270.159 147.213L276.348 148.086L322.448 154.608C324.129 154.846 324.733 156.932 323.494 158.036Z" fill="#407BFF"/>
<path opacity="0.9" d="M297.995 161.734H255.683L263.663 153.729L270.16 147.213L276.349 148.086C279.122 149.113 281.427 150.185 282.576 150.789C284.424 151.764 293.142 158.145 297.995 161.734Z" fill="white"/>
<path opacity="0.2" d="M323.494 158.036C323.468 158.062 323.443 158.087 323.417 158.107L318.923 161.734H256.318L269.517 148.497L321.805 155.892C322.942 156.052 323.584 157.06 323.494 158.036Z" fill="black"/>
<path d="M292.221 155.433C292.718 154.826 293.015 153.976 293.004 152.988C292.978 150.823 291.488 148.828 289.675 148.533C288.885 148.404 288.165 148.62 287.605 149.082C284.182 151.298 272.603 159.525 270.766 163.814C269.611 166.509 273.688 165.063 276.507 164.493C279.266 163.936 287.251 159.224 291.578 156.012C291.675 155.95 291.768 155.882 291.856 155.808L291.859 155.806C292.003 155.697 292.122 155.571 292.221 155.433Z" fill="#407BFF"/>
<path opacity="0.9" d="M293 152.99C293.013 153.979 292.717 154.826 292.223 155.436C292.12 155.571 292.005 155.699 291.857 155.808C291.767 155.885 291.671 155.949 291.575 156.013C290.984 156.45 290.33 156.912 289.63 157.393C285.175 160.423 278.896 164.012 276.508 164.493C273.69 165.064 269.613 166.509 270.769 163.813C272.265 160.321 280.219 154.216 284.969 150.877C286.054 150.113 286.972 149.49 287.607 149.079C288.166 148.617 288.885 148.405 289.674 148.533C291.485 148.83 292.975 150.827 293 152.99Z" fill="white"/>
<path d="M293 152.99C293.013 153.979 292.717 154.826 292.223 155.436C292.12 155.571 292.005 155.699 291.857 155.808C291.767 155.885 291.671 155.949 291.575 156.013C290.984 156.45 290.33 156.912 289.63 157.393C288.725 157.387 287.884 157.207 287.197 156.802C284.815 155.403 284.52 152.828 284.969 150.877C286.054 150.113 286.972 149.49 287.607 149.079C288.166 148.617 288.885 148.405 289.674 148.533C291.485 148.83 292.975 150.827 293 152.99Z" fill="#407BFF"/>
<path opacity="0.2" d="M292.765 152.313C292.784 153.931 291.702 155.064 290.347 154.843C288.992 154.622 287.878 153.131 287.859 151.513C287.84 149.895 288.923 148.762 290.277 148.983C291.632 149.203 292.745 150.694 292.765 152.313Z" fill="black"/>
<path d="M289.602 151.068C289.852 150.731 291.392 150.663 291.421 151.079C291.505 152.28 290.77 153.106 290.186 153.008C290.093 152.991 288.723 152.253 289.602 151.068Z" fill="#407BFF"/>
<path opacity="0.2" d="M271.672 165.394C269.885 165.745 287.768 153.604 287.768 153.604C287.768 153.604 288.909 156.073 291.429 155.245C291.429 155.245 282.581 163.249 271.672 165.394Z" fill="black"/>
<path d="M308.974 157.029C309.34 156.581 309.56 155.954 309.551 155.226C309.532 153.629 308.433 152.157 307.095 151.939C306.512 151.844 305.981 152.003 305.568 152.344C303.043 153.979 294.5 160.048 293.145 163.212C292.293 165.2 295.301 164.133 297.38 163.713C299.416 163.302 305.307 159.825 308.499 157.456C308.57 157.411 308.639 157.36 308.704 157.305L308.706 157.303C308.813 157.224 308.901 157.131 308.974 157.029Z" fill="#407BFF"/>
<path opacity="0.9" d="M309.549 155.227C309.558 155.956 309.341 156.582 308.976 157.032C308.9 157.131 308.815 157.226 308.706 157.307C308.64 157.364 308.569 157.411 308.498 157.458C308.062 157.78 307.579 158.121 307.063 158.476C303.776 160.711 299.144 163.359 297.382 163.714C295.303 164.135 292.295 165.201 293.148 163.212C294.252 160.636 300.12 156.131 303.625 153.668C304.425 153.104 305.103 152.645 305.572 152.342C305.984 152.001 306.515 151.845 307.097 151.939C308.431 152.158 309.53 153.631 309.549 155.227Z" fill="white"/>
<path d="M309.549 155.227C309.558 155.956 309.341 156.582 308.976 157.032C308.9 157.131 308.815 157.226 308.706 157.307C308.64 157.364 308.569 157.411 308.498 157.458C308.062 157.78 307.579 158.121 307.063 158.476C306.395 158.471 305.775 158.339 305.268 158.04C303.511 157.007 303.293 155.108 303.625 153.668C304.425 153.104 305.103 152.645 305.572 152.342C305.984 152.001 306.515 151.845 307.097 151.939C308.431 152.158 309.53 153.631 309.549 155.227Z" fill="#407BFF"/>
<path opacity="0.2" d="M309.375 154.727C309.389 155.921 308.59 156.757 307.591 156.593C306.591 156.43 305.77 155.33 305.755 154.136C305.741 152.942 306.54 152.106 307.539 152.27C308.539 152.433 309.361 153.533 309.375 154.727Z" fill="black"/>
<path d="M307.042 153.809C307.226 153.561 308.363 153.51 308.384 153.817C308.446 154.703 307.904 155.312 307.473 155.24C307.404 155.228 306.393 154.684 307.042 153.809Z" fill="#407BFF"/>
<path opacity="0.2" d="M294.219 164.161C292.935 164.414 305.788 155.687 305.788 155.687C305.788 155.687 306.608 157.462 308.419 156.867C308.419 156.867 302.06 162.619 294.219 164.161Z" fill="black"/>
<path d="M304.228 127.941C304.029 128.66 303.657 129.52 303.008 130.464C302.09 131.819 300.594 133.353 298.193 134.939C297.833 135.177 297.461 135.42 297.102 135.658H297.089C295.105 136.955 293.186 138.155 292.024 138.874L241.507 170.934C232.795 176.468 223.269 180.596 213.267 183.157L210.006 183.998L192.782 188.421C191.511 188.747 190.162 188.499 189.091 187.741L186.568 185.956L200.184 176.326C202.81 174.471 205.506 172.705 208.254 171.043L275.995 130.06C286.093 124.385 288.892 124.61 294.663 125.579C297.693 124.943 300.505 125.02 302.309 125.194C303.099 125.271 303.747 125.759 304.074 126.401C304.306 126.862 304.383 127.401 304.228 127.941Z" fill="#407BFF"/>
<path opacity="0.9" d="M304.228 127.941C304.029 128.66 303.657 129.52 303.008 130.464C302.09 131.819 300.594 133.353 298.193 134.939C297.833 135.177 297.461 135.42 297.102 135.658H297.089C297.051 135.684 297.019 135.709 296.98 135.735C296.974 135.735 296.974 135.735 296.974 135.735C295.029 137 293.161 138.168 292.025 138.874L276.894 148.478L241.509 170.934C241.22 171.12 240.931 171.3 240.636 171.48C232.162 176.738 222.937 180.68 213.269 183.158L210.008 183.999L192.784 188.422C191.513 188.749 190.165 188.499 189.093 187.742L186.57 185.957L200.186 176.327C202.812 174.472 205.508 172.706 208.256 171.044L216.21 166.236L252.308 144.39L275.997 130.061C286.095 124.386 288.894 124.611 294.665 125.58C294.883 125.535 295.102 125.49 295.313 125.452C298.093 124.958 300.635 125.035 302.31 125.195C303.1 125.272 303.748 125.76 304.075 126.402C304.306 126.862 304.383 127.401 304.228 127.941Z" fill="white"/>
<path d="M304.228 127.941C304.029 128.66 303.657 129.52 303.008 130.464C302.09 131.819 300.594 133.353 298.193 134.939C297.833 135.177 297.461 135.42 297.102 135.658H297.089C297.051 135.684 297.019 135.709 296.98 135.735C296.974 135.735 296.974 135.735 296.974 135.735C294.849 135.01 293.187 133.251 292.994 130.484C292.84 128.25 293.983 126.594 295.312 125.451C298.092 124.957 300.634 125.034 302.309 125.194C303.099 125.271 303.747 125.759 304.074 126.401C304.306 126.862 304.383 127.401 304.228 127.941Z" fill="#407BFF"/>
<path d="M205.609 175.218C205.79 175.108 205.972 174.998 206.156 174.887" stroke="#263238" stroke-width="1.9259" stroke-linecap="round" stroke-linejoin="round"/>
<path d="M208.862 173.249C228.73 161.219 261.315 141.488 275.771 132.735" stroke="#263238" stroke-width="1.9259" stroke-linecap="round" stroke-linejoin="round" stroke-dasharray="1.27 3.17"/>
<path d="M277.127 131.914C277.313 131.801 277.495 131.691 277.674 131.583" stroke="#263238" stroke-width="1.9259" stroke-linecap="round" stroke-linejoin="round"/>
<path d="M282.594 129.729L282.572 127.491C284.629 126.456 287.619 124.672 292.201 125.218L294.661 125.579C290.785 125.264 286.897 127.123 283.569 129.138L282.594 129.729Z" fill="#263238"/>
<path opacity="0.2" d="M304.228 127.941C304.029 128.66 303.657 129.52 303.008 130.464C301.602 131.51 299.817 132.711 297.757 134.014C291.325 138.078 245.109 167.088 239.004 171.454C234.562 174.625 225.048 179.421 210.006 183.998C204.89 185.552 199.13 187.079 192.709 188.511C191.482 188.785 190.194 188.521 189.168 187.795L189.091 187.741C189.091 187.741 209.377 180.917 213.948 178.375C218.519 175.839 284.218 135.247 290.901 131.582C296.184 128.693 301.198 126.819 304.074 126.401C304.306 126.862 304.383 127.401 304.228 127.941Z" fill="black"/>
<path d="M257.923 148.862L257.628 149.055L254.187 151.263L239.236 160.848C238.337 161.426 237.291 161.734 236.225 161.734H165.512L168.144 158.851C170.384 156.405 173.453 154.877 176.759 154.576L238.086 148.972L257.358 147.213C258.296 147.123 258.719 148.355 257.923 148.862Z" fill="#407BFF"/>
<path opacity="0.9" d="M257.923 148.862L257.628 149.055L254.187 151.263L239.236 160.848C238.337 161.426 237.291 161.734 236.225 161.734H187.634C204.229 158.595 230.075 153.234 238.086 148.972L257.358 147.213C258.296 147.123 258.719 148.355 257.923 148.862Z" fill="white"/>
<path opacity="0.2" d="M257.628 149.055L239.236 160.848C238.337 161.426 237.291 161.734 236.225 161.734H166.045L167.502 160.136C169.742 157.69 172.811 156.162 176.117 155.86L256.716 148.497C257.166 148.458 257.493 148.715 257.628 149.055Z" fill="black"/>
<path d="M234.407 155.429C234.904 154.822 235.201 153.972 235.19 152.984C235.164 150.819 233.674 148.824 231.861 148.529C231.071 148.4 230.351 148.616 229.791 149.078C226.368 151.294 214.789 159.521 212.952 163.81C211.797 166.505 215.874 165.059 218.693 164.489C221.452 163.932 229.437 159.219 233.764 156.008C233.861 155.946 233.953 155.878 234.042 155.804L234.045 155.802C234.19 155.693 234.308 155.567 234.407 155.429Z" fill="#407BFF"/>
<path opacity="0.9" d="M235.187 152.986C235.2 153.975 234.905 154.822 234.41 155.432C234.307 155.567 234.192 155.695 234.044 155.804C233.954 155.881 233.858 155.945 233.762 156.009C233.171 156.446 232.517 156.908 231.817 157.389C227.362 160.419 221.083 164.008 218.695 164.489C215.877 165.06 211.8 166.505 212.956 163.809C214.452 160.317 222.406 154.211 227.156 150.873C228.241 150.109 229.159 149.486 229.794 149.075C230.353 148.613 231.072 148.401 231.861 148.529C233.672 148.827 235.161 150.823 235.187 152.986Z" fill="white"/>
<path d="M235.187 152.986C235.2 153.975 234.905 154.822 234.41 155.432C234.307 155.567 234.192 155.695 234.044 155.804C233.954 155.881 233.858 155.945 233.762 156.009C233.171 156.446 232.517 156.908 231.817 157.389C230.912 157.383 230.071 157.203 229.384 156.798C227.002 155.398 226.707 152.824 227.156 150.873C228.241 150.109 229.159 149.486 229.794 149.075C230.353 148.613 231.072 148.401 231.861 148.529C233.672 148.827 235.161 150.823 235.187 152.986Z" fill="#407BFF"/>
<path opacity="0.2" d="M234.951 152.309C234.97 153.927 233.888 155.06 232.533 154.839C231.178 154.618 230.064 153.127 230.045 151.509C230.026 149.891 231.109 148.758 232.463 148.979C233.818 149.2 234.932 150.691 234.951 152.309Z" fill="black"/>
<path d="M231.789 151.064C232.039 150.727 233.579 150.659 233.608 151.075C233.692 152.276 232.957 153.102 232.373 153.004C232.279 152.988 230.909 152.25 231.789 151.064Z" fill="#407BFF"/>
<path opacity="0.2" d="M213.858 165.39C212.071 165.741 229.954 153.6 229.954 153.6C229.954 153.6 231.095 156.069 233.615 155.241C233.615 155.241 224.768 163.245 213.858 165.39Z" fill="black"/>
<path d="M206.194 157.029C206.561 156.581 206.78 155.954 206.771 155.226C206.752 153.629 205.653 152.157 204.315 151.939C203.732 151.844 203.201 152.003 202.788 152.344C200.263 153.979 191.72 160.048 190.365 163.212C189.513 165.2 192.521 164.133 194.6 163.713C196.636 163.302 202.527 159.825 205.719 157.456C205.79 157.411 205.859 157.36 205.924 157.305L205.926 157.303C206.033 157.224 206.121 157.131 206.194 157.029Z" fill="#407BFF"/>
<path opacity="0.9" d="M206.769 155.227C206.778 155.956 206.561 156.582 206.196 157.032C206.12 157.131 206.035 157.226 205.926 157.307C205.86 157.364 205.789 157.411 205.718 157.458C205.282 157.78 204.799 158.121 204.283 158.476C200.996 160.711 196.364 163.359 194.602 163.714C192.523 164.135 189.515 165.201 190.368 163.212C191.472 160.636 197.34 156.131 200.845 153.668C201.645 153.104 202.323 152.645 202.792 152.342C203.204 152.001 203.735 151.845 204.317 151.939C205.651 152.158 206.75 153.631 206.769 155.227Z" fill="white"/>
<path d="M206.769 155.227C206.778 155.956 206.561 156.582 206.196 157.032C206.12 157.131 206.035 157.226 205.926 157.307C205.86 157.364 205.789 157.411 205.718 157.458C205.282 157.78 204.799 158.121 204.283 158.476C203.615 158.471 202.995 158.339 202.488 158.04C200.731 157.007 200.513 155.108 200.845 153.668C201.645 153.104 202.323 152.645 202.792 152.342C203.204 152.001 203.735 151.845 204.317 151.939C205.651 152.158 206.75 153.631 206.769 155.227Z" fill="#407BFF"/>
<path opacity="0.2" d="M206.595 154.727C206.609 155.921 205.81 156.757 204.811 156.593C203.811 156.43 202.99 155.33 202.975 154.136C202.961 152.942 203.76 152.106 204.759 152.27C205.759 152.433 206.581 153.533 206.595 154.727Z" fill="black"/>
<path d="M204.262 153.809C204.446 153.561 205.583 153.51 205.604 153.817C205.666 154.703 205.124 155.312 204.693 155.24C204.624 155.228 203.613 154.684 204.262 153.809Z" fill="#407BFF"/>
<path opacity="0.2" d="M191.439 164.161C190.155 164.414 203.008 155.688 203.008 155.688C203.008 155.688 203.828 157.463 205.639 156.868C205.639 156.868 199.28 162.619 191.439 164.161Z" fill="black"/>
<path d="M167.125 189.034L190.217 187.358L201.279 182.018L172.08 185.571C171.062 185.695 170.112 186.147 169.375 186.86L167.125 189.034Z" fill="#407BFF"/>
<path d="M198.201 183.484C198.169 183.516 198.131 183.542 198.086 183.561L190.215 187.361L168.144 188.959L167.123 189.036L169.376 186.86C170.114 186.147 171.065 185.698 172.079 185.57L197.758 182.45C198.374 182.373 198.644 183.15 198.201 183.484Z" fill="#407BFF"/>
<path opacity="0.2" d="M198.201 183.484C198.169 183.516 198.131 183.542 198.086 183.561L190.215 187.361L168.144 188.959L169.376 187.778C170.114 187.065 171.065 186.61 172.079 186.488L197.758 183.362C197.938 183.342 198.092 183.394 198.201 183.484Z" fill="black"/>
<path d="M165.601 271.207H153.359V326.397H165.601V271.207Z" stroke="#263238" stroke-width="2.9172" stroke-miterlimit="10"/>
<path d="M155.878 410.41C155.54 410.41 154.27 410.41 153.932 410.41C151.744 410.41 149.971 412.112 149.971 414.3C149.971 416.488 151.744 418.19 153.932 418.19C154.27 418.19 155.54 418.19 155.878 418.19C158.066 418.19 159.839 416.488 159.839 414.3C159.839 412.112 158.066 410.41 155.878 410.41Z" fill="#263238"/>
<path opacity="0.1" d="M159.839 414.228C159.839 416.416 158.066 418.189 155.878 418.189C153.69 418.189 151.917 416.416 151.917 414.228C151.917 412.04 153.69 410.267 155.878 410.267C158.066 410.267 159.839 412.04 159.839 414.228Z" fill="white"/>
<path d="M166.575 410.41C166.237 410.41 164.967 410.41 164.629 410.41C162.441 410.41 160.668 412.112 160.668 414.3C160.668 416.488 162.441 418.19 164.629 418.19C164.967 418.19 166.237 418.19 166.575 418.19C168.763 418.19 170.536 416.488 170.536 414.3C170.536 412.112 168.762 410.41 166.575 410.41Z" fill="#263238"/>
<path opacity="0.2" d="M170.536 414.228C170.536 416.416 168.763 418.189 166.575 418.189C164.387 418.189 162.614 416.416 162.614 414.228C162.614 412.04 164.387 410.267 166.575 410.267C168.763 410.267 170.536 412.04 170.536 414.228Z" fill="white"/>
<path d="M202.223 328.585V397.382C202.223 404.228 196.671 410.41 189.825 410.41H155.548V316.087H189.825C194.58 316.087 198.713 318.821 200.794 322.749C201.707 324.48 202.223 326.494 202.223 328.585Z" fill="#407BFF"/>
<path d="M168.266 411.717H153.09C151.643 411.717 150.47 410.544 150.47 409.098V316.946C150.47 315.499 151.643 314.327 153.09 314.327H168.266C169.713 314.327 170.885 315.5 170.885 316.946V409.098C170.886 410.544 169.713 411.717 168.266 411.717Z" fill="#263238"/>
<path opacity="0.2" d="M160.707 411.717H153.09C151.643 411.717 150.47 410.544 150.47 409.098V316.946C150.47 315.499 151.643 314.327 153.09 314.327H160.707C162.154 314.327 163.326 315.5 163.326 316.946V409.098C163.327 410.544 162.154 411.717 160.707 411.717Z" fill="white"/>
<path opacity="0.2" d="M202.223 328.585V397.382C202.223 404.228 196.671 410.41 189.825 410.41H176.056C175.531 409.438 174.996 407.69 174.996 406.513V329.703C174.996 325.891 178.331 322.893 182.143 322.893H200.793C201.707 324.839 202.223 326.494 202.223 328.585Z" fill="black"/>
<path opacity="0.2" d="M158.863 409.247H153.732C152.729 409.247 151.917 408.434 151.917 407.432V318.732C151.917 317.729 152.73 316.917 153.732 316.917H158.863C159.866 316.917 160.678 317.73 160.678 318.732V407.432C160.678 408.434 159.866 409.247 158.863 409.247Z" fill="black"/>
<path d="M165.758 273.031H152.995C151.921 273.031 151.05 272.16 151.05 271.086V269.871C151.05 268.797 151.921 267.926 152.995 267.926H165.758C166.832 267.926 167.703 268.797 167.703 269.871V271.086C167.702 272.16 166.832 273.031 165.758 273.031Z" fill="#263238"/>
<path opacity="0.2" d="M165.758 273.031H152.995C151.921 273.031 151.05 272.16 151.05 271.086V269.871C151.05 268.797 151.921 267.926 152.995 267.926H165.758C166.832 267.926 167.703 268.797 167.703 269.871V271.086C167.702 272.16 166.832 273.031 165.758 273.031Z" fill="white"/>
<path opacity="0.2" d="M165.758 273.031H164.671C163.597 273.031 162.726 272.16 162.726 271.086V269.871C162.726 268.797 163.597 267.926 164.671 267.926H165.758C166.832 267.926 167.703 268.797 167.703 269.871V271.086C167.702 272.16 166.832 273.031 165.758 273.031Z" fill="black"/>
<path d="M122.125 212.79C112.441 211.525 103.061 209.735 103.061 209.735L102.247 210.668C102.247 210.668 85.372 214.026 82.75 217.103C80.128 220.18 80.897 233.58 80.897 233.58L81.99 234.522C81.99 234.522 81.667 262.968 85.321 267.925C88.975 272.882 105.196 273.505 117.571 270.116C129.944 266.727 131.809 214.054 122.125 212.79Z" fill="#263238"/>
<path opacity="0.4" d="M117.57 270.113C115.547 270.667 113.418 271.115 111.269 271.445C100.223 273.186 88.3789 272.077 85.3159 267.925C81.6699 262.966 81.9899 234.523 81.9899 234.523L80.9009 233.58C80.9009 233.58 80.1229 220.18 82.7489 217.108C84.9269 214.551 96.9359 211.799 100.943 210.943C101.76 210.768 102.246 210.671 102.246 210.671L103.063 209.737C103.063 209.737 112.437 211.526 122.122 212.79C131.806 214.054 129.939 266.729 117.57 270.113Z" fill="white"/>
<path opacity="0.2" d="M117.57 270.113C115.547 270.667 113.418 271.115 111.269 271.445C103.723 271.299 96.9459 270.278 95.7589 267.925C93.6589 263.724 96.1579 246.6 94.5439 234.523C92.9299 222.446 95.6429 213.257 100.962 211.049L100.942 210.942C101.759 210.767 102.245 210.67 102.245 210.67L103.062 209.736C103.062 209.736 112.436 211.525 122.121 212.789C131.806 214.054 129.939 266.729 117.57 270.113Z" fill="black"/>
<path d="M154.45 260.852L161.453 263.833L165.512 268.68L160.197 270.117L157.334 268.302C157.334 268.302 152.344 268.14 151.05 264.183L154.45 260.852Z" fill="#CE7A63"/>
<path d="M151.682 265.484C150.457 264.871 145.245 261.458 140.256 257.87C135.812 254.68 131.553 251.355 130.416 249.731C129.006 247.718 127.421 241.709 126.215 235.427C124.688 227.599 123.755 219.363 124.455 217.972C125.71 215.473 130.416 214.053 130.416 214.053C136.095 217.398 138.788 239.452 139.945 243.624C139.945 243.624 155.348 258.706 155.922 260.437C156.495 262.168 151.682 265.484 151.682 265.484Z" fill="#407BFF"/>
<path opacity="0.4" d="M151.682 265.484C150.457 264.871 145.245 261.458 140.256 257.87C135.812 254.68 131.553 251.355 130.416 249.731C129.006 247.718 127.421 241.709 126.215 235.427C124.688 227.599 123.755 219.363 124.455 217.972C125.71 215.473 130.416 214.053 130.416 214.053C136.095 217.398 138.788 239.452 139.945 243.624C139.945 243.624 155.348 258.706 155.922 260.437C156.495 262.168 151.682 265.484 151.682 265.484Z" fill="white"/>
<path d="M163.006 418.184C157.087 418.184 156.304 418.093 152.979 417.981C150.131 417.879 149.45 418.235 147.161 418.184C145.249 418.143 145.32 416.313 145.91 414.207C146.205 413.15 146.66 410.914 147.066 409.206L155.738 408.576C156.958 410.905 159.712 414.227 163.048 414.676C166.232 415.103 165.366 418.184 163.006 418.184Z" fill="#407BFF"/>
<path d="M119.22 418.184C113.301 418.184 112.519 418.093 109.193 417.981C106.345 417.879 105.664 418.235 103.375 418.184C101.463 418.143 101.534 416.313 102.124 414.207C102.419 413.15 102.874 410.914 103.28 409.206L111.952 408.576C113.173 410.905 115.926 414.227 119.262 414.676C122.446 415.103 121.58 418.184 119.22 418.184Z" fill="#407BFF"/>
<path opacity="0.4" d="M163.006 418.184C157.087 418.184 156.304 418.093 152.979 417.981C150.131 417.879 149.45 418.235 147.161 418.184C145.249 418.143 145.32 416.313 145.91 414.207C146.205 413.15 146.66 410.914 147.066 409.206L155.738 408.576C156.958 410.905 159.712 414.227 163.048 414.676C166.232 415.103 165.366 418.184 163.006 418.184Z" fill="white"/>
<path opacity="0.4" d="M119.22 418.184C113.301 418.184 112.519 418.093 109.193 417.981C106.345 417.879 105.664 418.235 103.375 418.184C101.463 418.143 101.534 416.313 102.124 414.207C102.419 413.15 102.874 410.914 103.28 409.206L111.952 408.576C113.173 410.905 115.926 414.227 119.262 414.676C122.446 415.103 121.58 418.184 119.22 418.184Z" fill="white"/>
<path opacity="0.2" d="M140.256 257.87C135.812 254.68 131.553 251.355 130.416 249.731C129.006 247.718 127.421 241.709 126.215 235.427C127.849 232.121 129.093 229.913 129.093 229.913C129.093 229.913 136.454 239.657 140.256 257.87Z" fill="black"/>
<path d="M101.555 173.065C98.526 169.083 94.342 167.413 89.149 170.106C83.956 172.799 83.931 177.968 86.636 183.269C89.341 188.57 81.267 190.364 82.994 195.664C83.676 197.756 85.193 198.31 85.233 201.842C85.257 203.95 82.469 207.575 84.285 208.959C86.611 210.731 94.19 207.105 92.824 203.608C91.458 200.111 96.841 200.56 97.036 197.196C97.247 193.567 94.656 192.361 95.651 189.678C96.809 186.551 100.093 186.666 101.557 182.201C102.809 178.376 102.528 174.345 101.555 173.065Z" fill="#407BFF"/>
<path opacity="0.5" d="M101.555 173.065C98.526 169.083 94.342 167.413 89.149 170.106C83.956 172.799 83.931 177.968 86.636 183.269C89.341 188.57 81.267 190.364 82.994 195.664C83.676 197.756 85.193 198.31 85.233 201.842C85.257 203.95 82.469 207.575 84.285 208.959C86.611 210.731 94.19 207.105 92.824 203.608C91.458 200.111 96.841 200.56 97.036 197.196C97.247 193.567 94.656 192.361 95.651 189.678C96.809 186.551 100.093 186.666 101.557 182.201C102.809 178.376 102.528 174.345 101.555 173.065Z" fill="black"/>
<path d="M133.79 258.561C133.79 258.561 141.448 304.721 142.712 328.534C144.04 353.543 152.058 393.597 156.297 409.247C155.104 410.319 149.498 410.766 146.847 409.443C146.847 409.443 123.711 363.249 126.72 334.37C107.376 279.901 112.055 259.524 112.055 259.524L133.79 258.561Z" fill="#263238"/>
<path opacity="0.2" d="M120.993 317.038C118.241 307.965 116.258 300.108 114.857 293.37C116.248 288.1 118.222 283.588 120.905 280.875C120.905 280.875 124.766 295.557 120.993 317.038Z" fill="black"/>
<path d="M125.504 256.142C125.504 256.142 119.175 305.116 115.548 328.685C111.739 353.438 111.255 393.155 112.207 409.341C110.82 410.146 105.766 411.121 103.035 410.267C103.035 410.267 90.1279 360.206 98.7009 331.13C90.8939 273.858 102.192 259.833 102.192 259.833L125.504 256.142Z" fill="#263238"/>
<path d="M134.211 253.235C134.558 246.068 134.706 241.032 134.731 235.941C134.91 228.432 134.436 226.055 134.232 222.919C133.866 217.298 129.461 210.949 123.799 210.359C122.23 210.196 120.59 210.053 119.009 209.964C114.238 209.695 109.854 210.017 104.509 210.459C103.134 210.573 101.796 210.725 100.535 210.897C95.817 211.539 93.006 216.147 94.496 220.794C99.08 235.095 101.104 244.39 101.767 251.819C100.953 254.095 96.658 266.398 98.415 267.794C100.353 269.333 132.638 270.487 135.138 267.794C137.078 265.704 135.165 257.019 134.211 253.235Z" fill="#407BFF"/>
<path opacity="0.4" d="M135.141 267.798C132.632 270.482 100.348 269.334 98.4129 267.798C96.6529 266.398 100.951 254.097 101.768 251.821C101.447 248.272 100.825 244.285 99.7449 239.54C98.9869 236.166 98.0039 232.393 96.7399 228.114C96.0689 225.829 95.3199 223.388 94.4939 220.792C93.0059 216.144 95.8169 211.535 100.533 210.893C101.797 210.728 103.129 210.572 104.51 210.455C109.848 210.017 114.234 209.697 119.009 209.959C120.584 210.047 122.227 210.192 123.793 210.358C129.462 210.951 133.867 217.301 134.227 222.921C134.431 226.052 134.908 228.435 134.733 235.941C134.704 241.027 134.558 246.064 134.208 253.23C135.161 257.014 137.077 265.708 135.141 267.798Z" fill="white"/>
<path d="M106.478 231.345C106.478 231.345 104.266 242.544 99.361 249.735L100.398 251.457C100.398 251.457 105.42 245.216 108.402 231.345H106.478Z" fill="#263238"/>
<path opacity="0.2" d="M106.478 231.345C106.478 231.345 104.266 242.544 99.361 249.735L100.398 251.457C100.398 251.457 105.42 245.216 108.402 231.345H106.478Z" fill="white"/>
<path d="M97.245 211.63C97.245 211.63 106.605 215.013 105.552 231.545C105.483 232.631 106.339 233.557 107.428 233.557C108.297 233.557 109.058 232.965 109.259 232.119C110.281 227.819 112.398 215.031 103.06 209.735C103.06 209.735 98.123 210.371 97.245 211.63Z" fill="#263238"/>
<path d="M132.829 231.345C132.829 231.345 133.478 239.349 134.5 246.551L135.201 245.216C135.201 245.216 134.77 238.43 134.303 231.345H132.829Z" fill="#263238"/>
<path opacity="0.2" d="M132.829 231.345C132.829 231.345 133.478 239.349 134.5 246.551L135.201 245.216C135.201 245.216 134.77 238.43 134.303 231.345H132.829Z" fill="white"/>
<path d="M123.394 210.317C123.394 210.317 130.748 215.254 132.252 231.62C132.313 232.28 132.858 232.793 133.521 232.793C134.228 232.793 134.798 232.223 134.797 231.516C134.792 228.153 134.275 218.851 129.082 212.11C129.082 212.11 125.018 209.486 123.394 210.317Z" fill="#263238"/>
<g opacity="0.2">
<path d="M124.857 268.422C124.834 268.422 124.81 268.419 124.787 268.412C124.658 268.374 124.585 268.238 124.624 268.11C126.239 262.72 123.509 254.416 123.481 254.332C123.47 254.298 123.466 254.262 123.471 254.227C123.489 254.073 125.271 238.771 123.472 227.571C122.12 219.154 119.122 215.289 119.092 215.251C119.008 215.146 119.026 214.993 119.131 214.91C119.236 214.827 119.389 214.843 119.472 214.949C119.598 215.108 122.577 218.937 123.952 227.494C125.708 238.426 124.075 253.217 123.96 254.23C124.215 255.011 126.7 262.879 125.09 268.249C125.058 268.353 124.962 268.422 124.857 268.422Z" fill="black"/>
</g>
<path d="M103.881 204.994C103.881 204.994 113.883 207.687 120.519 205.86C127.155 204.033 124.654 214.9 118.499 214.708C112.344 214.515 100.227 207.975 103.881 204.994Z" fill="#407BFF"/>
<path d="M104.967 194.096C106.389 198.719 108.23 207.214 105.304 210.431C105.304 210.431 109.701 209.617 119.281 215.099C121.865 211.11 119.804 209.937 119.804 209.937C114.466 208.875 114.181 205.021 114.693 201.374L104.967 194.096Z" fill="#CE7A63"/>
<path opacity="0.2" d="M108.933 197.065L114.69 201.369C114.566 202.232 114.491 203.106 114.523 203.952C112.504 203.733 109.537 201.65 109.1 199.582C108.881 198.55 108.816 197.553 108.933 197.065Z" fill="black"/>
<path d="M100.663 184.868C102.336 192.353 102.885 195.548 107.307 199.015C113.959 204.229 122.745 201.051 123.331 193.341C123.859 186.402 121.035 175.327 113.187 173.105C105.456 170.915 98.9909 177.383 100.663 184.868Z" fill="#CE7A63"/>
<path d="M111.132 169.391C116.697 170.078 124.212 176.209 116.947 176.853C116.736 179.139 112.552 178.815 109.61 177.36C109.905 179.072 106.813 182.162 103.083 180.83C105.183 182.208 104.879 187.951 102.189 188.069C99.4989 188.186 93.7829 189.224 95.4499 179.888C97.1159 170.55 105.185 168.657 111.132 169.391Z" fill="#407BFF"/>
<path opacity="0.5" d="M111.132 169.391C116.697 170.078 124.212 176.209 116.947 176.853C116.736 179.139 112.552 178.815 109.61 177.36C109.905 179.072 106.813 182.162 103.083 180.83C105.183 182.208 104.879 187.951 102.189 188.069C99.4989 188.186 93.7829 189.224 95.4499 179.888C97.1159 170.55 105.185 168.657 111.132 169.391Z" fill="black"/>
<path d="M110.327 185.794C110.44 186.428 110.862 186.907 111.269 186.863C111.676 186.819 111.914 186.269 111.801 185.635C111.688 185.001 111.266 184.522 110.859 184.566C110.453 184.61 110.214 185.16 110.327 185.794Z" fill="#263238"/>
<path d="M118.228 184.694C118.341 185.328 118.763 185.807 119.17 185.763C119.577 185.719 119.815 185.169 119.702 184.535C119.589 183.901 119.167 183.422 118.76 183.466C118.353 183.51 118.115 184.059 118.228 184.694Z" fill="#263238"/>
<path d="M118.587 183.52L120.005 182.919C120.005 182.919 119.449 184.192 118.587 183.52Z" fill="#263238"/>
<path d="M116.057 186.349C116.057 186.349 117.601 188.965 119 190.157C118.317 191.027 116.855 190.822 116.855 190.822L116.057 186.349Z" fill="#BA4D3C"/>
<path d="M113.693 193.553C114.026 193.576 114.38 193.572 114.754 193.532C114.855 193.521 114.922 193.429 114.903 193.326C114.885 193.224 114.791 193.149 114.687 193.16C111.956 193.457 110.33 191.649 110.314 191.631C110.244 191.55 110.126 191.538 110.051 191.604C109.976 191.669 109.973 191.787 110.043 191.867C110.106 191.937 111.414 193.394 113.693 193.553Z" fill="#263238"/>
<path d="M99.1699 191.337C100.265 192.775 101.845 193.563 103.222 193.725C105.292 193.969 105.887 191.879 104.943 189.958C104.093 188.229 101.992 186.02 100.092 186.666C98.2189 187.303 97.9169 189.693 99.1699 191.337Z" fill="#CE7A63"/>
<path d="M108.448 181.946C108.546 181.944 108.64 181.903 108.706 181.825C109.733 180.594 111.096 180.803 111.112 180.806C111.314 180.838 111.497 180.702 111.516 180.497C111.535 180.293 111.384 180.1 111.179 180.066C111.108 180.055 109.397 179.79 108.122 181.319C107.995 181.471 108.023 181.708 108.184 181.848C108.261 181.915 108.356 181.947 108.448 181.946Z" fill="#263238"/>
<path d="M120.733 180.167C120.825 180.177 120.919 180.153 120.993 180.093C121.146 179.967 121.16 179.732 121.024 179.568C119.658 177.922 117.958 178.031 117.886 178.036C117.683 178.052 117.543 178.231 117.573 178.437C117.603 178.643 117.792 178.797 117.995 178.783C118.061 178.778 119.382 178.713 120.468 180.022C120.539 180.107 120.635 180.156 120.733 180.167Z" fill="#263238"/>
<path d="M110.686 184.621L112.104 184.02C112.104 184.02 111.549 185.293 110.686 184.621Z" fill="#263238"/>
<path d="M119.282 215.098C119.282 215.098 104.362 200.281 96.8609 205.474C92.5879 208.432 95.1299 211.629 97.2459 211.629C99.3959 211.629 102.247 210.667 102.247 210.667C102.247 210.667 107.273 214.144 119.282 215.098Z" fill="#407BFF"/>
<path d="M119.282 215.098C119.282 215.098 121.962 209.129 120.711 206.724C119.461 204.32 127.539 204.608 128.116 209.417C128.693 214.226 119.282 215.098 119.282 215.098Z" fill="#407BFF"/>
<path opacity="0.2" d="M119.282 215.098C119.282 215.098 104.362 200.281 96.8609 205.474C92.5879 208.432 95.1299 211.629 97.2459 211.629C99.3959 211.629 102.247 210.667 102.247 210.667C102.247 210.667 107.273 214.144 119.282 215.098Z" fill="white"/>
<path opacity="0.2" d="M119.282 215.098C119.282 215.098 121.962 209.129 120.711 206.724C119.461 204.32 127.539 204.608 128.116 209.417C128.693 214.226 119.282 215.098 119.282 215.098Z" fill="white"/>
<path d="M126.348 241.285L115.107 263.329L101.163 257.679L101.241 257.533L100.123 256.24L99.335 255.939L111.091 233.156C111.091 233.156 123.304 238.193 124.617 238.961C125.921 239.729 126.348 241.285 126.348 241.285Z" fill="#407BFF"/>
<path opacity="0.4" d="M126.348 241.285L115.107 263.329L101.163 257.679L101.241 257.533L100.123 256.24L99.335 255.939L111.091 233.156C111.091 233.156 123.304 238.193 124.617 238.961C124.685 239 124.753 239.049 124.811 239.097C125.959 239.885 126.348 241.285 126.348 241.285Z" fill="black"/>
<path opacity="0.2" d="M126.348 241.285L115.107 263.329L101.163 257.679L101.241 257.533L100.123 256.24L113.834 261.384L124.812 239.097C125.959 239.885 126.348 241.285 126.348 241.285Z" fill="black"/>
<path opacity="0.6" d="M114.611 262.979L101.24 257.534L100.122 256.241L113.794 261.511C114.796 262.376 114.611 262.979 114.611 262.979Z" fill="white"/>
<path d="M107.685 251.876L118.486 235.267L123.975 238.579L113.419 255.068L107.685 251.876Z" fill="white"/>
<path opacity="0.1" d="M107.685 251.876L118.486 235.267L123.975 238.579L113.419 255.068L107.685 251.876Z" fill="black"/>
<path d="M107.825 251.801L117.519 234.522L123.213 237.468L113.756 254.612L107.825 251.801Z" fill="white"/>
<path d="M109.065 251.16L113.243 238.625L122.604 240.869L118.756 253.454L109.065 251.16Z" fill="#407BFF"/>
<path d="M118.542 246.46C118.111 247.92 116.574 248.812 115.109 248.453C113.644 248.094 112.806 246.619 113.237 245.16C113.668 243.7 115.205 242.808 116.67 243.167C118.135 243.525 118.973 245 118.542 246.46Z" stroke="white" stroke-width="0.2431" stroke-miterlimit="10"/>
<path d="M116.67 243.167L115.108 248.452" stroke="white" stroke-width="0.2431" stroke-miterlimit="10"/>
<path d="M117.385 246.176C116.954 247.636 115.935 248.655 115.108 248.452C114.282 248.249 113.961 246.902 114.393 245.442C114.824 243.982 115.843 242.963 116.67 243.166C117.496 243.369 117.816 244.716 117.385 246.176Z" stroke="white" stroke-width="0.2582" stroke-miterlimit="10"/>
<path d="M113.236 245.159L118.542 246.46" stroke="white" stroke-width="0.2582" stroke-miterlimit="10"/>
<path d="M121.573 251.265L120.146 249.355C119.609 248.637 118.758 248.223 117.862 248.243L113.673 248.337C111.998 248.375 110.446 249.221 109.507 250.608L108.926 251.467C111.077 254.796 115.853 256.809 115.853 256.809L117.151 257.534C118.307 258.179 119.691 257.822 120.329 256.713L121.799 254.16C122.305 253.277 122.216 252.125 121.573 251.265Z" fill="#CE7A63"/>
<path opacity="0.2" d="M99.746 239.54C98.988 236.166 98.005 232.393 96.741 228.114C97.781 227.326 99.016 227.287 100.397 228.454C100.397 228.454 101.263 234.484 99.746 239.54Z" fill="black"/>
<path d="M97.102 212.876C93.957 211.091 80.41 237.579 82.141 246.6C83.872 255.621 111.733 254.304 111.733 254.304C111.733 254.304 113.452 250.517 112.992 248.164C112.992 248.164 100.03 242.949 94.067 241.688L101.066 228.501C101.066 228.501 102.446 215.908 97.102 212.876Z" fill="#407BFF"/>
<path opacity="0.4" d="M97.102 212.876C93.957 211.091 80.41 237.579 82.141 246.6C83.872 255.621 111.733 254.304 111.733 254.304C111.733 254.304 113.452 250.517 112.992 248.164C112.992 248.164 100.03 242.949 94.067 241.688L101.066 228.501C101.066 228.501 102.446 215.908 97.102 212.876Z" fill="white"/>
<path d="M135.836 127.507C135.836 112.878 123.977 101.018 109.347 101.018C94.718 101.018 82.859 112.877 82.859 127.507C82.859 141.126 93.139 152.339 106.362 153.824L109.348 163.827L112.333 153.824C125.556 152.34 135.836 141.126 135.836 127.507Z" fill="#407BFF"/>
<path opacity="0.8" d="M135.836 127.507C135.836 112.878 123.977 101.018 109.347 101.018C94.718 101.018 82.859 112.877 82.859 127.507C82.859 141.126 93.139 152.339 106.362 153.824L109.348 163.827L112.333 153.824C125.556 152.34 135.836 141.126 135.836 127.507Z" fill="white"/>
<path d="M120.171 121.746V136.678C120.171 137.987 115.324 139.049 109.352 139.049C103.369 139.049 98.533 137.988 98.533 136.678V121.746H120.171Z" fill="#407BFF"/>
<path opacity="0.2" d="M120.171 121.746V127.089L109.352 130.734L98.533 127.089V121.746H120.171Z" fill="black"/>
<path d="M109.347 115.106L89.673 121.742L109.347 128.378L129.022 121.742L109.347 115.106Z" fill="#407BFF"/>
<path d="M122.025 132.904V124.105L109.352 119.824" stroke="#263238" stroke-width="0.8434" stroke-miterlimit="10" stroke-linecap="round" stroke-linejoin="round"/>
<path d="M122.026 132.009C121.626 132.009 121.301 132.366 121.301 132.806V134.692H122.75V132.806C122.75 132.365 122.426 132.009 122.026 132.009Z" fill="#263238"/>
</svg>
