<svg width="216" height="42" viewBox="0 0 216 42" fill="none" xmlns="http://www.w3.org/2000/svg">
<path d="M9.23828 7.24219C10.1562 7.4375 10.8431 7.75 11.2988 8.17969C11.9303 8.77865 12.2461 9.51107 12.2461 10.377C12.2461 11.0345 12.0378 11.666 11.6211 12.2715C11.2044 12.8704 10.6315 13.3099 9.90234 13.5898C9.17969 13.8633 8.07292 14 6.58203 14H0.332031V13.6387H0.830078C1.38346 13.6387 1.7806 13.4629 2.02148 13.1113C2.17122 12.8835 2.24609 12.3984 2.24609 11.6562V3.10156C2.24609 2.28125 2.15169 1.76367 1.96289 1.54883C1.70898 1.26237 1.33138 1.11914 0.830078 1.11914H0.332031V0.757812H6.05469C7.1224 0.757812 7.97852 0.835938 8.62305 0.992188C9.59961 1.22656 10.3451 1.64323 10.8594 2.24219C11.3737 2.83464 11.6309 3.51823 11.6309 4.29297C11.6309 4.95703 11.429 5.55273 11.0254 6.08008C10.6217 6.60091 10.026 6.98828 9.23828 7.24219ZM4.12109 6.71484C4.36198 6.76042 4.63542 6.79622 4.94141 6.82227C5.25391 6.8418 5.5957 6.85156 5.9668 6.85156C6.91732 6.85156 7.63021 6.75065 8.10547 6.54883C8.58724 6.34049 8.95508 6.02474 9.20898 5.60156C9.46289 5.17839 9.58984 4.71615 9.58984 4.21484C9.58984 3.4401 9.27409 2.7793 8.64258 2.23242C8.01107 1.68555 7.08984 1.41211 5.87891 1.41211C5.22786 1.41211 4.64193 1.48372 4.12109 1.62695V6.71484ZM4.12109 13.043C4.8763 13.2188 5.62174 13.3066 6.35742 13.3066C7.53581 13.3066 8.43424 13.043 9.05273 12.5156C9.67122 11.9818 9.98047 11.3242 9.98047 10.543C9.98047 10.0286 9.84049 9.53385 9.56055 9.05859C9.2806 8.58333 8.82487 8.20898 8.19336 7.93555C7.56185 7.66211 6.7806 7.52539 5.84961 7.52539C5.44596 7.52539 5.10091 7.5319 4.81445 7.54492C4.52799 7.55794 4.29688 7.58073 4.12109 7.61328V13.043ZM16.5918 0.113281V6.65625C17.3145 5.86198 17.8874 5.35417 18.3105 5.13281C18.7337 4.90495 19.1569 4.79102 19.5801 4.79102C20.0879 4.79102 20.5241 4.93099 20.8887 5.21094C21.2533 5.49089 21.5234 5.93034 21.6992 6.5293C21.8229 6.94596 21.8848 7.70768 21.8848 8.81445V11.9785C21.8848 12.5449 21.9303 12.9323 22.0215 13.1406C22.0866 13.2969 22.1973 13.4206 22.3535 13.5117C22.5098 13.6029 22.7962 13.6484 23.2129 13.6484V14H18.8184V13.6484H19.0234C19.4401 13.6484 19.7298 13.5866 19.8926 13.4629C20.0553 13.3327 20.1693 13.1439 20.2344 12.8965C20.2539 12.7923 20.2637 12.4863 20.2637 11.9785V8.81445C20.2637 7.83789 20.2116 7.19661 20.1074 6.89062C20.0098 6.58464 19.8503 6.35677 19.6289 6.20703C19.4076 6.05078 19.1406 5.97266 18.8281 5.97266C18.5091 5.97266 18.1771 6.05729 17.832 6.22656C17.487 6.39583 17.0736 6.73763 16.5918 7.25195V11.9785C16.5918 12.5905 16.6243 12.9714 16.6895 13.1211C16.7611 13.2708 16.888 13.3978 17.0703 13.502C17.2591 13.5996 17.5814 13.6484 18.0371 13.6484V14H13.6035V13.6484C14.0007 13.6484 14.3132 13.5866 14.541 13.4629C14.6712 13.3978 14.7754 13.2741 14.8535 13.0918C14.9316 12.9095 14.9707 12.5384 14.9707 11.9785V3.88281C14.9707 2.86068 14.9447 2.23242 14.8926 1.99805C14.847 1.76367 14.7721 1.60417 14.668 1.51953C14.5703 1.4349 14.4368 1.39258 14.2676 1.39258C14.1309 1.39258 13.9095 1.44466 13.6035 1.54883L13.4668 1.20703L16.1426 0.113281H16.5918ZM29.0332 12.7109C28.1152 13.4206 27.5391 13.8307 27.3047 13.9414C26.9531 14.1042 26.5788 14.1855 26.1816 14.1855C25.5632 14.1855 25.0521 13.974 24.6484 13.5508C24.2513 13.1276 24.0527 12.571 24.0527 11.8809C24.0527 11.4447 24.1504 11.0671 24.3457 10.748C24.6126 10.3053 25.0749 9.88867 25.7324 9.49805C26.3965 9.10742 27.4967 8.63216 29.0332 8.07227V7.7207C29.0332 6.82878 28.89 6.2168 28.6035 5.88477C28.3236 5.55273 27.9134 5.38672 27.373 5.38672C26.9629 5.38672 26.6374 5.4974 26.3965 5.71875C26.1491 5.9401 26.0254 6.19401 26.0254 6.48047L26.0449 7.04688C26.0449 7.34635 25.9668 7.57747 25.8105 7.74023C25.6608 7.90299 25.4622 7.98438 25.2148 7.98438C24.974 7.98438 24.7754 7.89974 24.6191 7.73047C24.4694 7.5612 24.3945 7.33008 24.3945 7.03711C24.3945 6.47721 24.681 5.96289 25.2539 5.49414C25.8268 5.02539 26.6309 4.79102 27.666 4.79102C28.4603 4.79102 29.1113 4.92448 29.6191 5.19141C30.0033 5.39323 30.2865 5.70898 30.4688 6.13867C30.5859 6.41862 30.6445 6.99154 30.6445 7.85742V10.8945C30.6445 11.7474 30.6608 12.2715 30.6934 12.4668C30.7259 12.6556 30.778 12.7826 30.8496 12.8477C30.9277 12.9128 31.0156 12.9453 31.1133 12.9453C31.2174 12.9453 31.3086 12.9225 31.3867 12.877C31.5234 12.7923 31.7871 12.5547 32.1777 12.1641V12.7109C31.4486 13.6875 30.752 14.1758 30.0879 14.1758C29.7689 14.1758 29.515 14.0651 29.3262 13.8438C29.1374 13.6224 29.0397 13.2448 29.0332 12.7109ZM29.0332 12.0762V8.66797C28.0501 9.05859 27.4154 9.33529 27.1289 9.49805C26.6146 9.78451 26.2467 10.084 26.0254 10.3965C25.804 10.709 25.6934 11.0508 25.6934 11.4219C25.6934 11.8906 25.8333 12.2812 26.1133 12.5938C26.3932 12.8997 26.7155 13.0527 27.0801 13.0527C27.5749 13.0527 28.2259 12.7272 29.0332 12.0762ZM35.2441 10.7383C34.6973 10.4714 34.2773 10.1003 33.9844 9.625C33.6914 9.14323 33.5449 8.61263 33.5449 8.0332C33.5449 7.14779 33.877 6.38607 34.541 5.74805C35.2116 5.11003 36.0677 4.79102 37.1094 4.79102C37.9622 4.79102 38.7012 4.99935 39.3262 5.41602H41.2207C41.5007 5.41602 41.6634 5.42578 41.709 5.44531C41.7546 5.45833 41.7871 5.48438 41.8066 5.52344C41.8457 5.58203 41.8652 5.6862 41.8652 5.83594C41.8652 6.00521 41.849 6.1224 41.8164 6.1875C41.7969 6.22005 41.7611 6.24609 41.709 6.26562C41.6634 6.28516 41.5007 6.29492 41.2207 6.29492H40.0586C40.4232 6.76367 40.6055 7.36263 40.6055 8.0918C40.6055 8.92513 40.2865 9.63802 39.6484 10.2305C39.0104 10.8229 38.1543 11.1191 37.0801 11.1191C36.6374 11.1191 36.1849 11.054 35.7227 10.9238C35.4362 11.1712 35.2409 11.3893 35.1367 11.5781C35.0391 11.7604 34.9902 11.9167 34.9902 12.0469C34.9902 12.1576 35.0423 12.265 35.1465 12.3691C35.2572 12.4733 35.4688 12.5482 35.7812 12.5938C35.9635 12.6198 36.4193 12.6426 37.1484 12.6621C38.4896 12.6947 39.3587 12.7402 39.7559 12.7988C40.3613 12.8835 40.8431 13.1081 41.2012 13.4727C41.5658 13.8372 41.748 14.2865 41.748 14.8203C41.748 15.556 41.403 16.2461 40.7129 16.8906C39.6973 17.8411 38.3724 18.3164 36.7383 18.3164C35.4818 18.3164 34.4206 18.0332 33.5547 17.4668C33.0664 17.1413 32.8223 16.8027 32.8223 16.4512C32.8223 16.2949 32.8581 16.1387 32.9297 15.9824C33.0404 15.7415 33.2682 15.4062 33.6133 14.9766C33.6589 14.918 33.9909 14.5664 34.6094 13.9219C34.2708 13.7201 34.0299 13.541 33.8867 13.3848C33.75 13.222 33.6816 13.0397 33.6816 12.8379C33.6816 12.61 33.7728 12.3431 33.9551 12.0371C34.1439 11.7311 34.5736 11.2982 35.2441 10.7383ZM36.9434 5.25977C36.4616 5.25977 36.0579 5.45182 35.7324 5.83594C35.4069 6.22005 35.2441 6.80924 35.2441 7.60352C35.2441 8.63216 35.4655 9.42969 35.9082 9.99609C36.2467 10.4258 36.6764 10.6406 37.1973 10.6406C37.6921 10.6406 38.099 10.4551 38.418 10.084C38.737 9.71289 38.8965 9.13021 38.8965 8.33594C38.8965 7.30078 38.6719 6.49023 38.2227 5.9043C37.8906 5.47461 37.4642 5.25977 36.9434 5.25977ZM35.1465 14C34.8405 14.332 34.6094 14.6413 34.4531 14.9277C34.2969 15.2142 34.2188 15.4779 34.2188 15.7188C34.2188 16.0312 34.4076 16.3047 34.7852 16.5391C35.4362 16.9427 36.377 17.1445 37.6074 17.1445C38.7793 17.1445 39.6419 16.9362 40.1953 16.5195C40.7552 16.1094 41.0352 15.6699 41.0352 15.2012C41.0352 14.8626 40.8691 14.6217 40.5371 14.4785C40.1986 14.3353 39.528 14.2507 38.5254 14.2246C37.0605 14.1855 35.9342 14.1107 35.1465 14ZM42.3535 5.05469H46.1035V5.41602C45.7585 5.44206 45.5306 5.50391 45.4199 5.60156C45.3158 5.69922 45.2637 5.83919 45.2637 6.02148C45.2637 6.22331 45.319 6.46745 45.4297 6.75391L47.3438 11.9004L49.2676 7.71094L48.7598 6.39258C48.6035 6.00195 48.3984 5.73177 48.1445 5.58203C48.0013 5.49089 47.7344 5.43555 47.3438 5.41602V5.05469H51.6016V5.41602C51.1328 5.43555 50.8008 5.52018 50.6055 5.66992C50.4753 5.77409 50.4102 5.9401 50.4102 6.16797C50.4102 6.29818 50.4362 6.43164 50.4883 6.56836L52.5195 11.7051L54.4043 6.75391C54.5345 6.40234 54.5996 6.1224 54.5996 5.91406C54.5996 5.79036 54.5345 5.67969 54.4043 5.58203C54.2806 5.48438 54.0332 5.42904 53.6621 5.41602V5.05469H56.4844V5.41602C55.918 5.50065 55.5013 5.88477 55.2344 6.56836L52.2461 14.2734H51.8457L49.6094 8.56055L47.002 14.2734H46.6406L43.7695 6.75391C43.5807 6.27865 43.3952 5.95964 43.2129 5.79688C43.0306 5.6276 42.7441 5.50065 42.3535 5.41602V5.05469ZM62.373 12.7109C61.4551 13.4206 60.8789 13.8307 60.6445 13.9414C60.293 14.1042 59.9186 14.1855 59.5215 14.1855C58.903 14.1855 58.3919 13.974 57.9883 13.5508C57.5911 13.1276 57.3926 12.571 57.3926 11.8809C57.3926 11.4447 57.4902 11.0671 57.6855 10.748C57.9525 10.3053 58.4147 9.88867 59.0723 9.49805C59.7363 9.10742 60.8366 8.63216 62.373 8.07227V7.7207C62.373 6.82878 62.2298 6.2168 61.9434 5.88477C61.6634 5.55273 61.2533 5.38672 60.7129 5.38672C60.3027 5.38672 59.9772 5.4974 59.7363 5.71875C59.4889 5.9401 59.3652 6.19401 59.3652 6.48047L59.3848 7.04688C59.3848 7.34635 59.3066 7.57747 59.1504 7.74023C59.0007 7.90299 58.8021 7.98438 58.5547 7.98438C58.3138 7.98438 58.1152 7.89974 57.959 7.73047C57.8092 7.5612 57.7344 7.33008 57.7344 7.03711C57.7344 6.47721 58.0208 5.96289 58.5938 5.49414C59.1667 5.02539 59.9707 4.79102 61.0059 4.79102C61.8001 4.79102 62.4512 4.92448 62.959 5.19141C63.3431 5.39323 63.6263 5.70898 63.8086 6.13867C63.9258 6.41862 63.9844 6.99154 63.9844 7.85742V10.8945C63.9844 11.7474 64.0007 12.2715 64.0332 12.4668C64.0658 12.6556 64.1178 12.7826 64.1895 12.8477C64.2676 12.9128 64.3555 12.9453 64.4531 12.9453C64.5573 12.9453 64.6484 12.9225 64.7266 12.877C64.8633 12.7923 65.127 12.5547 65.5176 12.1641V12.7109C64.7884 13.6875 64.0918 14.1758 63.4277 14.1758C63.1087 14.1758 62.8548 14.0651 62.666 13.8438C62.4772 13.6224 62.3796 13.2448 62.373 12.7109ZM62.373 12.0762V8.66797C61.39 9.05859 60.7552 9.33529 60.4688 9.49805C59.9544 9.78451 59.5866 10.084 59.3652 10.3965C59.1439 10.709 59.0332 11.0508 59.0332 11.4219C59.0332 11.8906 59.1732 12.2812 59.4531 12.5938C59.7331 12.8997 60.0553 13.0527 60.4199 13.0527C60.9147 13.0527 61.5658 12.7272 62.373 12.0762ZM68.7988 6.68555C69.847 5.42253 70.8464 4.79102 71.7969 4.79102C72.2852 4.79102 72.7051 4.91471 73.0566 5.16211C73.4082 5.40299 73.6882 5.80339 73.8965 6.36328C74.0397 6.75391 74.1113 7.35286 74.1113 8.16016V11.9785C74.1113 12.5449 74.1569 12.929 74.248 13.1309C74.3197 13.2936 74.4336 13.4206 74.5898 13.5117C74.7526 13.6029 75.0488 13.6484 75.4785 13.6484V14H71.0547V13.6484H71.2402C71.6569 13.6484 71.9466 13.5866 72.1094 13.4629C72.2786 13.3327 72.3958 13.1439 72.4609 12.8965C72.487 12.7988 72.5 12.4928 72.5 11.9785V8.31641C72.5 7.5026 72.3926 6.91341 72.1777 6.54883C71.9694 6.17773 71.6146 5.99219 71.1133 5.99219C70.3385 5.99219 69.5671 6.41536 68.7988 7.26172V11.9785C68.7988 12.584 68.8346 12.9583 68.9062 13.1016C68.9974 13.2904 69.1211 13.4303 69.2773 13.5215C69.4401 13.6061 69.7656 13.6484 70.2539 13.6484V14H65.8301V13.6484H66.0254C66.4811 13.6484 66.7871 13.5345 66.9434 13.3066C67.1061 13.0723 67.1875 12.6296 67.1875 11.9785V8.6582C67.1875 7.58398 67.1615 6.92969 67.1094 6.69531C67.0638 6.46094 66.9889 6.30143 66.8848 6.2168C66.7871 6.13216 66.6536 6.08984 66.4844 6.08984C66.3021 6.08984 66.084 6.13867 65.8301 6.23633L65.6836 5.88477L68.3789 4.79102H68.7988V6.68555ZM88.75 14L83.6328 2.85742V11.7051C83.6328 12.5189 83.7207 13.0267 83.8965 13.2285C84.1374 13.502 84.5182 13.6387 85.0391 13.6387H85.5078V14H80.8984V13.6387H81.3672C81.9271 13.6387 82.3242 13.4694 82.5586 13.1309C82.7018 12.9225 82.7734 12.4473 82.7734 11.7051V3.05273C82.7734 2.4668 82.7083 2.04362 82.5781 1.7832C82.487 1.5944 82.3177 1.43815 82.0703 1.31445C81.8294 1.18424 81.4388 1.11914 80.8984 1.11914V0.757812H84.6484L89.4531 11.1191L94.1797 0.757812H97.9297V1.11914H97.4707C96.9043 1.11914 96.5039 1.28841 96.2695 1.62695C96.1263 1.83529 96.0547 2.31055 96.0547 3.05273V11.7051C96.0547 12.5189 96.1458 13.0267 96.3281 13.2285C96.569 13.502 96.9499 13.6387 97.4707 13.6387H97.9297V14H92.3047V13.6387H92.7734C93.3398 13.6387 93.737 13.4694 93.9648 13.1309C94.1081 12.9225 94.1797 12.4473 94.1797 11.7051V2.85742L89.0723 14H88.75ZM104.053 12.7109C103.135 13.4206 102.559 13.8307 102.324 13.9414C101.973 14.1042 101.598 14.1855 101.201 14.1855C100.583 14.1855 100.072 13.974 99.668 13.5508C99.2708 13.1276 99.0723 12.571 99.0723 11.8809C99.0723 11.4447 99.1699 11.0671 99.3652 10.748C99.6322 10.3053 100.094 9.88867 100.752 9.49805C101.416 9.10742 102.516 8.63216 104.053 8.07227V7.7207C104.053 6.82878 103.91 6.2168 103.623 5.88477C103.343 5.55273 102.933 5.38672 102.393 5.38672C101.982 5.38672 101.657 5.4974 101.416 5.71875C101.169 5.9401 101.045 6.19401 101.045 6.48047L101.064 7.04688C101.064 7.34635 100.986 7.57747 100.83 7.74023C100.68 7.90299 100.482 7.98438 100.234 7.98438C99.9935 7.98438 99.7949 7.89974 99.6387 7.73047C99.4889 7.5612 99.4141 7.33008 99.4141 7.03711C99.4141 6.47721 99.7005 5.96289 100.273 5.49414C100.846 5.02539 101.65 4.79102 102.686 4.79102C103.48 4.79102 104.131 4.92448 104.639 5.19141C105.023 5.39323 105.306 5.70898 105.488 6.13867C105.605 6.41862 105.664 6.99154 105.664 7.85742V10.8945C105.664 11.7474 105.68 12.2715 105.713 12.4668C105.745 12.6556 105.798 12.7826 105.869 12.8477C105.947 12.9128 106.035 12.9453 106.133 12.9453C106.237 12.9453 106.328 12.9225 106.406 12.877C106.543 12.7923 106.807 12.5547 107.197 12.1641V12.7109C106.468 13.6875 105.771 14.1758 105.107 14.1758C104.788 14.1758 104.535 14.0651 104.346 13.8438C104.157 13.6224 104.059 13.2448 104.053 12.7109ZM104.053 12.0762V8.66797C103.07 9.05859 102.435 9.33529 102.148 9.49805C101.634 9.78451 101.266 10.084 101.045 10.3965C100.824 10.709 100.713 11.0508 100.713 11.4219C100.713 11.8906 100.853 12.2812 101.133 12.5938C101.413 12.8997 101.735 13.0527 102.1 13.0527C102.594 13.0527 103.245 12.7272 104.053 12.0762ZM110.498 0.113281V6.65625C111.221 5.86198 111.794 5.35417 112.217 5.13281C112.64 4.90495 113.063 4.79102 113.486 4.79102C113.994 4.79102 114.43 4.93099 114.795 5.21094C115.16 5.49089 115.43 5.93034 115.605 6.5293C115.729 6.94596 115.791 7.70768 115.791 8.81445V11.9785C115.791 12.5449 115.837 12.9323 115.928 13.1406C115.993 13.2969 116.104 13.4206 116.26 13.5117C116.416 13.6029 116.702 13.6484 117.119 13.6484V14H112.725V13.6484H112.93C113.346 13.6484 113.636 13.5866 113.799 13.4629C113.962 13.3327 114.076 13.1439 114.141 12.8965C114.16 12.7923 114.17 12.4863 114.17 11.9785V8.81445C114.17 7.83789 114.118 7.19661 114.014 6.89062C113.916 6.58464 113.757 6.35677 113.535 6.20703C113.314 6.05078 113.047 5.97266 112.734 5.97266C112.415 5.97266 112.083 6.05729 111.738 6.22656C111.393 6.39583 110.98 6.73763 110.498 7.25195V11.9785C110.498 12.5905 110.531 12.9714 110.596 13.1211C110.667 13.2708 110.794 13.3978 110.977 13.502C111.165 13.5996 111.488 13.6484 111.943 13.6484V14H107.51V13.6484C107.907 13.6484 108.219 13.5866 108.447 13.4629C108.577 13.3978 108.682 13.2741 108.76 13.0918C108.838 12.9095 108.877 12.5384 108.877 11.9785V3.88281C108.877 2.86068 108.851 2.23242 108.799 1.99805C108.753 1.76367 108.678 1.60417 108.574 1.51953C108.477 1.4349 108.343 1.39258 108.174 1.39258C108.037 1.39258 107.816 1.44466 107.51 1.54883L107.373 1.20703L110.049 0.113281H110.498ZM122.939 12.7109C122.021 13.4206 121.445 13.8307 121.211 13.9414C120.859 14.1042 120.485 14.1855 120.088 14.1855C119.469 14.1855 118.958 13.974 118.555 13.5508C118.158 13.1276 117.959 12.571 117.959 11.8809C117.959 11.4447 118.057 11.0671 118.252 10.748C118.519 10.3053 118.981 9.88867 119.639 9.49805C120.303 9.10742 121.403 8.63216 122.939 8.07227V7.7207C122.939 6.82878 122.796 6.2168 122.51 5.88477C122.23 5.55273 121.82 5.38672 121.279 5.38672C120.869 5.38672 120.544 5.4974 120.303 5.71875C120.055 5.9401 119.932 6.19401 119.932 6.48047L119.951 7.04688C119.951 7.34635 119.873 7.57747 119.717 7.74023C119.567 7.90299 119.368 7.98438 119.121 7.98438C118.88 7.98438 118.682 7.89974 118.525 7.73047C118.376 7.5612 118.301 7.33008 118.301 7.03711C118.301 6.47721 118.587 5.96289 119.16 5.49414C119.733 5.02539 120.537 4.79102 121.572 4.79102C122.367 4.79102 123.018 4.92448 123.525 5.19141C123.91 5.39323 124.193 5.70898 124.375 6.13867C124.492 6.41862 124.551 6.99154 124.551 7.85742V10.8945C124.551 11.7474 124.567 12.2715 124.6 12.4668C124.632 12.6556 124.684 12.7826 124.756 12.8477C124.834 12.9128 124.922 12.9453 125.02 12.9453C125.124 12.9453 125.215 12.9225 125.293 12.877C125.43 12.7923 125.693 12.5547 126.084 12.1641V12.7109C125.355 13.6875 124.658 14.1758 123.994 14.1758C123.675 14.1758 123.421 14.0651 123.232 13.8438C123.044 13.6224 122.946 13.2448 122.939 12.7109ZM122.939 12.0762V8.66797C121.956 9.05859 121.322 9.33529 121.035 9.49805C120.521 9.78451 120.153 10.084 119.932 10.3965C119.71 10.709 119.6 11.0508 119.6 11.4219C119.6 11.8906 119.74 12.2812 120.02 12.5938C120.299 12.8997 120.622 13.0527 120.986 13.0527C121.481 13.0527 122.132 12.7272 122.939 12.0762ZM126.299 5.05469H130.508V5.41602H130.234C129.98 5.41602 129.785 5.47786 129.648 5.60156C129.518 5.72526 129.453 5.89128 129.453 6.09961C129.453 6.32747 129.521 6.59766 129.658 6.91016L131.738 11.8516L133.828 6.72461C133.978 6.36003 134.053 6.08333 134.053 5.89453C134.053 5.80339 134.027 5.72852 133.975 5.66992C133.903 5.57227 133.812 5.50716 133.701 5.47461C133.59 5.43555 133.366 5.41602 133.027 5.41602V5.05469H135.947V5.41602C135.609 5.44206 135.374 5.51042 135.244 5.62109C135.016 5.81641 134.811 6.14193 134.629 6.59766L131.455 14.2734H131.055L127.861 6.72461C127.718 6.37305 127.581 6.1224 127.451 5.97266C127.321 5.81641 127.155 5.6862 126.953 5.58203C126.842 5.52344 126.624 5.4681 126.299 5.41602V5.05469ZM139.033 0.113281C139.307 0.113281 139.538 0.210938 139.727 0.40625C139.922 0.595052 140.02 0.826172 140.02 1.09961C140.02 1.37305 139.922 1.60742 139.727 1.80273C139.538 1.99805 139.307 2.0957 139.033 2.0957C138.76 2.0957 138.525 1.99805 138.33 1.80273C138.135 1.60742 138.037 1.37305 138.037 1.09961C138.037 0.826172 138.132 0.595052 138.32 0.40625C138.516 0.210938 138.753 0.113281 139.033 0.113281ZM139.844 4.79102V11.9785C139.844 12.5384 139.883 12.9128 139.961 13.1016C140.046 13.2839 140.166 13.4206 140.322 13.5117C140.485 13.6029 140.778 13.6484 141.201 13.6484V14H136.855V13.6484C137.292 13.6484 137.585 13.6061 137.734 13.5215C137.884 13.4368 138.001 13.2969 138.086 13.1016C138.177 12.9062 138.223 12.5319 138.223 11.9785V8.53125C138.223 7.5612 138.193 6.93294 138.135 6.64648C138.089 6.43815 138.018 6.29492 137.92 6.2168C137.822 6.13216 137.689 6.08984 137.52 6.08984C137.337 6.08984 137.116 6.13867 136.855 6.23633L136.719 5.88477L139.414 4.79102H139.844ZM144.941 4.79102V6.80273C145.69 5.46159 146.458 4.79102 147.246 4.79102C147.604 4.79102 147.9 4.90169 148.135 5.12305C148.369 5.33789 148.486 5.58854 148.486 5.875C148.486 6.12891 148.402 6.34375 148.232 6.51953C148.063 6.69531 147.861 6.7832 147.627 6.7832C147.399 6.7832 147.142 6.67253 146.855 6.45117C146.576 6.22331 146.367 6.10938 146.23 6.10938C146.113 6.10938 145.986 6.17448 145.85 6.30469C145.557 6.57161 145.254 7.01107 144.941 7.62305V11.9102C144.941 12.4049 145.003 12.7793 145.127 13.0332C145.212 13.209 145.361 13.3555 145.576 13.4727C145.791 13.5898 146.1 13.6484 146.504 13.6484V14H141.924V13.6484C142.38 13.6484 142.718 13.5768 142.939 13.4336C143.102 13.3294 143.216 13.1634 143.281 12.9355C143.314 12.8249 143.33 12.5091 143.33 11.9883V8.52148C143.33 7.47982 143.307 6.86133 143.262 6.66602C143.223 6.46419 143.145 6.31771 143.027 6.22656C142.917 6.13542 142.777 6.08984 142.607 6.08984C142.406 6.08984 142.178 6.13867 141.924 6.23633L141.826 5.88477L144.531 4.79102H144.941ZM165.4 0.455078L165.703 4.95703H165.4C164.997 3.60938 164.421 2.63932 163.672 2.04688C162.923 1.45443 162.025 1.1582 160.977 1.1582C160.098 1.1582 159.303 1.38281 158.594 1.83203C157.884 2.27474 157.324 2.98438 156.914 3.96094C156.51 4.9375 156.309 6.15169 156.309 7.60352C156.309 8.80143 156.501 9.83984 156.885 10.7188C157.269 11.5977 157.845 12.2715 158.613 12.7402C159.388 13.209 160.27 13.4434 161.26 13.4434C162.119 13.4434 162.878 13.2611 163.535 12.8965C164.193 12.5254 164.915 11.793 165.703 10.6992L166.006 10.8945C165.342 12.0729 164.567 12.9355 163.682 13.4824C162.796 14.0293 161.745 14.3027 160.527 14.3027C158.333 14.3027 156.634 13.4889 155.43 11.8613C154.531 10.6504 154.082 9.22461 154.082 7.58398C154.082 6.26237 154.378 5.04818 154.971 3.94141C155.563 2.83464 156.377 1.97852 157.412 1.37305C158.454 0.761068 159.59 0.455078 160.82 0.455078C161.777 0.455078 162.721 0.689453 163.652 1.1582C163.926 1.30143 164.121 1.37305 164.238 1.37305C164.414 1.37305 164.567 1.3112 164.697 1.1875C164.867 1.01172 164.987 0.767578 165.059 0.455078H165.4ZM171.699 4.79102C173.053 4.79102 174.141 5.30534 174.961 6.33398C175.658 7.21289 176.006 8.22201 176.006 9.36133C176.006 10.1621 175.814 10.9727 175.43 11.793C175.046 12.6133 174.515 13.2318 173.838 13.6484C173.167 14.0651 172.419 14.2734 171.592 14.2734C170.244 14.2734 169.173 13.7363 168.379 12.6621C167.708 11.7572 167.373 10.7415 167.373 9.61523C167.373 8.79492 167.575 7.98112 167.979 7.17383C168.389 6.36003 168.926 5.76107 169.59 5.37695C170.254 4.98633 170.957 4.79102 171.699 4.79102ZM171.396 5.42578C171.051 5.42578 170.703 5.52995 170.352 5.73828C170.007 5.9401 169.727 6.29818 169.512 6.8125C169.297 7.32682 169.189 7.98763 169.189 8.79492C169.189 10.097 169.447 11.2201 169.961 12.1641C170.482 13.1081 171.165 13.5801 172.012 13.5801C172.643 13.5801 173.164 13.3197 173.574 12.7988C173.984 12.278 174.189 11.3828 174.189 10.1133C174.189 8.52474 173.848 7.27474 173.164 6.36328C172.702 5.73828 172.113 5.42578 171.396 5.42578ZM180.4 0.113281V11.9785C180.4 12.5384 180.439 12.9095 180.518 13.0918C180.602 13.2741 180.729 13.4141 180.898 13.5117C181.068 13.6029 181.383 13.6484 181.846 13.6484V14H177.461V13.6484C177.871 13.6484 178.151 13.6061 178.301 13.5215C178.451 13.4368 178.568 13.2969 178.652 13.1016C178.737 12.9062 178.779 12.5319 178.779 11.9785V3.85352C178.779 2.8444 178.757 2.22591 178.711 1.99805C178.665 1.76367 178.59 1.60417 178.486 1.51953C178.389 1.4349 178.262 1.39258 178.105 1.39258C177.936 1.39258 177.721 1.44466 177.461 1.54883L177.295 1.20703L179.961 0.113281H180.4ZM185.967 0.113281V11.9785C185.967 12.5384 186.006 12.9095 186.084 13.0918C186.169 13.2741 186.296 13.4141 186.465 13.5117C186.634 13.6029 186.95 13.6484 187.412 13.6484V14H183.027V13.6484C183.438 13.6484 183.717 13.6061 183.867 13.5215C184.017 13.4368 184.134 13.2969 184.219 13.1016C184.303 12.9062 184.346 12.5319 184.346 11.9785V3.85352C184.346 2.8444 184.323 2.22591 184.277 1.99805C184.232 1.76367 184.157 1.60417 184.053 1.51953C183.955 1.4349 183.828 1.39258 183.672 1.39258C183.503 1.39258 183.288 1.44466 183.027 1.54883L182.861 1.20703L185.527 0.113281H185.967ZM189.961 8.42383C189.954 9.75195 190.277 10.7936 190.928 11.5488C191.579 12.304 192.344 12.6816 193.223 12.6816C193.809 12.6816 194.316 12.5221 194.746 12.2031C195.182 11.8776 195.547 11.3242 195.84 10.543L196.143 10.7383C196.006 11.6302 195.609 12.444 194.951 13.1797C194.294 13.9089 193.47 14.2734 192.48 14.2734C191.406 14.2734 190.485 13.8568 189.717 13.0234C188.955 12.1836 188.574 11.0573 188.574 9.64453C188.574 8.11458 188.965 6.92318 189.746 6.07031C190.534 5.21094 191.52 4.78125 192.705 4.78125C193.708 4.78125 194.531 5.11328 195.176 5.77734C195.82 6.4349 196.143 7.31706 196.143 8.42383H189.961ZM189.961 7.85742H194.102C194.069 7.28451 194.001 6.88086 193.896 6.64648C193.734 6.2819 193.49 5.99544 193.164 5.78711C192.845 5.57878 192.51 5.47461 192.158 5.47461C191.618 5.47461 191.133 5.6862 190.703 6.10938C190.28 6.52604 190.033 7.10872 189.961 7.85742ZM199.736 10.7383C199.189 10.4714 198.77 10.1003 198.477 9.625C198.184 9.14323 198.037 8.61263 198.037 8.0332C198.037 7.14779 198.369 6.38607 199.033 5.74805C199.704 5.11003 200.56 4.79102 201.602 4.79102C202.454 4.79102 203.193 4.99935 203.818 5.41602H205.713C205.993 5.41602 206.156 5.42578 206.201 5.44531C206.247 5.45833 206.279 5.48438 206.299 5.52344C206.338 5.58203 206.357 5.6862 206.357 5.83594C206.357 6.00521 206.341 6.1224 206.309 6.1875C206.289 6.22005 206.253 6.24609 206.201 6.26562C206.156 6.28516 205.993 6.29492 205.713 6.29492H204.551C204.915 6.76367 205.098 7.36263 205.098 8.0918C205.098 8.92513 204.779 9.63802 204.141 10.2305C203.503 10.8229 202.646 11.1191 201.572 11.1191C201.13 11.1191 200.677 11.054 200.215 10.9238C199.928 11.1712 199.733 11.3893 199.629 11.5781C199.531 11.7604 199.482 11.9167 199.482 12.0469C199.482 12.1576 199.535 12.265 199.639 12.3691C199.749 12.4733 199.961 12.5482 200.273 12.5938C200.456 12.6198 200.911 12.6426 201.641 12.6621C202.982 12.6947 203.851 12.7402 204.248 12.7988C204.854 12.8835 205.335 13.1081 205.693 13.4727C206.058 13.8372 206.24 14.2865 206.24 14.8203C206.24 15.556 205.895 16.2461 205.205 16.8906C204.189 17.8411 202.865 18.3164 201.23 18.3164C199.974 18.3164 198.913 18.0332 198.047 17.4668C197.559 17.1413 197.314 16.8027 197.314 16.4512C197.314 16.2949 197.35 16.1387 197.422 15.9824C197.533 15.7415 197.76 15.4062 198.105 14.9766C198.151 14.918 198.483 14.5664 199.102 13.9219C198.763 13.7201 198.522 13.541 198.379 13.3848C198.242 13.222 198.174 13.0397 198.174 12.8379C198.174 12.61 198.265 12.3431 198.447 12.0371C198.636 11.7311 199.066 11.2982 199.736 10.7383ZM201.436 5.25977C200.954 5.25977 200.55 5.45182 200.225 5.83594C199.899 6.22005 199.736 6.80924 199.736 7.60352C199.736 8.63216 199.958 9.42969 200.4 9.99609C200.739 10.4258 201.169 10.6406 201.689 10.6406C202.184 10.6406 202.591 10.4551 202.91 10.084C203.229 9.71289 203.389 9.13021 203.389 8.33594C203.389 7.30078 203.164 6.49023 202.715 5.9043C202.383 5.47461 201.956 5.25977 201.436 5.25977ZM199.639 14C199.333 14.332 199.102 14.6413 198.945 14.9277C198.789 15.2142 198.711 15.4779 198.711 15.7188C198.711 16.0312 198.9 16.3047 199.277 16.5391C199.928 16.9427 200.869 17.1445 202.1 17.1445C203.271 17.1445 204.134 16.9362 204.688 16.5195C205.247 16.1094 205.527 15.6699 205.527 15.2012C205.527 14.8626 205.361 14.6217 205.029 14.4785C204.691 14.3353 204.02 14.2507 203.018 14.2246C201.553 14.1855 200.426 14.1107 199.639 14ZM208.848 8.42383C208.841 9.75195 209.163 10.7936 209.814 11.5488C210.465 12.304 211.23 12.6816 212.109 12.6816C212.695 12.6816 213.203 12.5221 213.633 12.2031C214.069 11.8776 214.434 11.3242 214.727 10.543L215.029 10.7383C214.893 11.6302 214.495 12.444 213.838 13.1797C213.18 13.9089 212.357 14.2734 211.367 14.2734C210.293 14.2734 209.372 13.8568 208.604 13.0234C207.842 12.1836 207.461 11.0573 207.461 9.64453C207.461 8.11458 207.852 6.92318 208.633 6.07031C209.421 5.21094 210.407 4.78125 211.592 4.78125C212.594 4.78125 213.418 5.11328 214.062 5.77734C214.707 6.4349 215.029 7.31706 215.029 8.42383H208.848ZM208.848 7.85742H212.988C212.956 7.28451 212.887 6.88086 212.783 6.64648C212.62 6.2819 212.376 5.99544 212.051 5.78711C211.732 5.57878 211.396 5.47461 211.045 5.47461C210.505 5.47461 210.02 5.6862 209.59 6.10938C209.167 6.52604 208.919 7.10872 208.848 7.85742Z" fill="#196FBE"/>
<path d="M5 27.791C6.35417 27.791 7.44141 28.3053 8.26172 29.334C8.95833 30.2129 9.30664 31.222 9.30664 32.3613C9.30664 33.1621 9.11458 33.9727 8.73047 34.793C8.34635 35.6133 7.81576 36.2318 7.13867 36.6484C6.4681 37.0651 5.7194 37.2734 4.89258 37.2734C3.54492 37.2734 2.47396 36.7363 1.67969 35.6621C1.00911 34.7572 0.673828 33.7415 0.673828 32.6152C0.673828 31.7949 0.875651 30.9811 1.2793 30.1738C1.68945 29.36 2.22656 28.7611 2.89062 28.377C3.55469 27.9863 4.25781 27.791 5 27.791ZM4.69727 28.4258C4.35221 28.4258 4.00391 28.5299 3.65234 28.7383C3.30729 28.9401 3.02734 29.2982 2.8125 29.8125C2.59766 30.3268 2.49023 30.9876 2.49023 31.7949C2.49023 33.097 2.7474 34.2201 3.26172 35.1641C3.78255 36.1081 4.46615 36.5801 5.3125 36.5801C5.94401 36.5801 6.46484 36.3197 6.875 35.7988C7.28516 35.278 7.49023 34.3828 7.49023 33.1133C7.49023 31.5247 7.14844 30.2747 6.46484 29.3633C6.0026 28.7383 5.41341 28.4258 4.69727 28.4258ZM14.1211 28.7578V34.6367C14.1211 35.4701 14.2122 35.9974 14.3945 36.2188C14.6354 36.5052 14.9577 36.6484 15.3613 36.6484H16.1719V37H10.8301V36.6484H11.2305C11.4909 36.6484 11.7285 36.5833 11.9434 36.4531C12.1582 36.3229 12.3047 36.1471 12.3828 35.9258C12.4674 35.7044 12.5098 35.2747 12.5098 34.6367V28.7578H10.7715V28.0547H12.5098V27.4688C12.5098 26.5768 12.653 25.8216 12.9395 25.2031C13.2259 24.5846 13.6621 24.0866 14.248 23.709C14.8405 23.3249 15.5046 23.1328 16.2402 23.1328C16.9238 23.1328 17.5521 23.3542 18.125 23.7969C18.5026 24.0898 18.6914 24.4186 18.6914 24.7832C18.6914 24.9785 18.6068 25.1641 18.4375 25.3398C18.2682 25.5091 18.0859 25.5938 17.8906 25.5938C17.7409 25.5938 17.5814 25.5417 17.4121 25.4375C17.2493 25.3268 17.0475 25.0957 16.8066 24.7441C16.5658 24.3861 16.3444 24.1452 16.1426 24.0215C15.9408 23.8978 15.7161 23.8359 15.4688 23.8359C15.1693 23.8359 14.9154 23.9173 14.707 24.0801C14.4987 24.2363 14.349 24.4837 14.2578 24.8223C14.1667 25.1543 14.1211 26.0169 14.1211 27.4102V28.0547H16.4258V28.7578H14.1211ZM33.7012 23.4551L34.0039 27.957H33.7012C33.2975 26.6094 32.7214 25.6393 31.9727 25.0469C31.224 24.4544 30.3255 24.1582 29.2773 24.1582C28.3984 24.1582 27.6042 24.3828 26.8945 24.832C26.1849 25.2747 25.625 25.9844 25.2148 26.9609C24.8112 27.9375 24.6094 29.1517 24.6094 30.6035C24.6094 31.8014 24.8014 32.8398 25.1855 33.7188C25.5697 34.5977 26.1458 35.2715 26.9141 35.7402C27.6888 36.209 28.571 36.4434 29.5605 36.4434C30.4199 36.4434 31.1784 36.2611 31.8359 35.8965C32.4935 35.5254 33.2161 34.793 34.0039 33.6992L34.3066 33.8945C33.6426 35.0729 32.8678 35.9355 31.9824 36.4824C31.097 37.0293 30.0456 37.3027 28.8281 37.3027C26.6341 37.3027 24.9349 36.4889 23.7305 34.8613C22.832 33.6504 22.3828 32.2246 22.3828 30.584C22.3828 29.2624 22.679 28.0482 23.2715 26.9414C23.8639 25.8346 24.6777 24.9785 25.7129 24.373C26.7546 23.7611 27.8906 23.4551 29.1211 23.4551C30.0781 23.4551 31.0221 23.6895 31.9531 24.1582C32.2266 24.3014 32.4219 24.373 32.5391 24.373C32.7148 24.373 32.8678 24.3112 32.998 24.1875C33.1673 24.0117 33.2878 23.7676 33.3594 23.4551H33.7012ZM40 27.791C41.3542 27.791 42.4414 28.3053 43.2617 29.334C43.9583 30.2129 44.3066 31.222 44.3066 32.3613C44.3066 33.1621 44.1146 33.9727 43.7305 34.793C43.3464 35.6133 42.8158 36.2318 42.1387 36.6484C41.4681 37.0651 40.7194 37.2734 39.8926 37.2734C38.5449 37.2734 37.474 36.7363 36.6797 35.6621C36.0091 34.7572 35.6738 33.7415 35.6738 32.6152C35.6738 31.7949 35.8757 30.9811 36.2793 30.1738C36.6895 29.36 37.2266 28.7611 37.8906 28.377C38.5547 27.9863 39.2578 27.791 40 27.791ZM39.6973 28.4258C39.3522 28.4258 39.0039 28.5299 38.6523 28.7383C38.3073 28.9401 38.0273 29.2982 37.8125 29.8125C37.5977 30.3268 37.4902 30.9876 37.4902 31.7949C37.4902 33.097 37.7474 34.2201 38.2617 35.1641C38.7826 36.1081 39.4661 36.5801 40.3125 36.5801C40.944 36.5801 41.4648 36.3197 41.875 35.7988C42.2852 35.278 42.4902 34.3828 42.4902 33.1133C42.4902 31.5247 42.1484 30.2747 41.4648 29.3633C41.0026 28.7383 40.4134 28.4258 39.6973 28.4258ZM48.2812 29.6953C48.9323 29.0443 49.3164 28.6699 49.4336 28.5723C49.7266 28.3249 50.0423 28.1328 50.3809 27.9961C50.7194 27.8594 51.0547 27.791 51.3867 27.791C51.9466 27.791 52.4284 27.9538 52.832 28.2793C53.2357 28.6048 53.5059 29.0768 53.6426 29.6953C54.3132 28.9141 54.8796 28.403 55.3418 28.1621C55.804 27.9147 56.2793 27.791 56.7676 27.791C57.2428 27.791 57.6628 27.9147 58.0273 28.1621C58.3984 28.403 58.6914 28.8001 58.9062 29.3535C59.0495 29.7311 59.1211 30.3236 59.1211 31.1309V34.9785C59.1211 35.5384 59.1634 35.9225 59.248 36.1309C59.3132 36.2741 59.4336 36.3978 59.6094 36.502C59.7852 36.5996 60.0716 36.6484 60.4688 36.6484V37H56.0547V36.6484H56.2402C56.6243 36.6484 56.9238 36.5736 57.1387 36.4238C57.2884 36.3197 57.3958 36.1536 57.4609 35.9258C57.487 35.8151 57.5 35.4993 57.5 34.9785V31.1309C57.5 30.4017 57.4121 29.8874 57.2363 29.5879C56.9824 29.1712 56.5755 28.9629 56.0156 28.9629C55.6706 28.9629 55.3223 29.0508 54.9707 29.2266C54.6257 29.3958 54.2057 29.7148 53.7109 30.1836L53.6914 30.291L53.7109 30.7109V34.9785C53.7109 35.5905 53.7435 35.9714 53.8086 36.1211C53.8802 36.2708 54.0104 36.3978 54.1992 36.502C54.388 36.5996 54.7103 36.6484 55.166 36.6484V37H50.6445V36.6484C51.1393 36.6484 51.4779 36.5898 51.6602 36.4727C51.849 36.3555 51.9792 36.1797 52.0508 35.9453C52.0833 35.8346 52.0996 35.5124 52.0996 34.9785V31.1309C52.0996 30.4017 51.9922 29.8776 51.7773 29.5586C51.4909 29.1419 51.0905 28.9336 50.5762 28.9336C50.2246 28.9336 49.8763 29.028 49.5312 29.2168C48.9909 29.5033 48.5742 29.8255 48.2812 30.1836V34.9785C48.2812 35.5645 48.3203 35.9453 48.3984 36.1211C48.4831 36.2969 48.6035 36.4303 48.7598 36.5215C48.9225 36.6061 49.248 36.6484 49.7363 36.6484V37H45.3125V36.6484C45.7227 36.6484 46.0091 36.6061 46.1719 36.5215C46.3346 36.4303 46.4583 36.2904 46.543 36.1016C46.6276 35.9062 46.6699 35.5319 46.6699 34.9785V31.5605C46.6699 30.5775 46.6406 29.9427 46.582 29.6562C46.5365 29.4414 46.4648 29.2949 46.3672 29.2168C46.2695 29.1322 46.1361 29.0898 45.9668 29.0898C45.7845 29.0898 45.5664 29.1387 45.3125 29.2363L45.166 28.8848L47.8613 27.791H48.2812V29.6953ZM60.5469 28.9434L63.3008 27.8301H63.6719V29.9199C64.1341 29.1322 64.5964 28.582 65.0586 28.2695C65.5273 27.9505 66.0189 27.791 66.5332 27.791C67.4316 27.791 68.1803 28.1426 68.7793 28.8457C69.515 29.7051 69.8828 30.8249 69.8828 32.2051C69.8828 33.748 69.4401 35.0241 68.5547 36.0332C67.8255 36.86 66.9076 37.2734 65.8008 37.2734C65.319 37.2734 64.9023 37.2051 64.5508 37.0684C64.2904 36.9707 63.9974 36.7754 63.6719 36.4824V39.207C63.6719 39.819 63.7077 40.2064 63.7793 40.3691C63.8574 40.5384 63.9876 40.6719 64.1699 40.7695C64.3587 40.8672 64.6973 40.916 65.1855 40.916V41.2773H60.498V40.916H60.7422C61.1003 40.9225 61.4062 40.8542 61.6602 40.7109C61.7839 40.6393 61.8783 40.5221 61.9434 40.3594C62.015 40.2031 62.0508 39.7995 62.0508 39.1484V30.6914C62.0508 30.112 62.0247 29.7441 61.9727 29.5879C61.9206 29.4316 61.8359 29.3145 61.7188 29.2363C61.6081 29.1582 61.4551 29.1191 61.2598 29.1191C61.1035 29.1191 60.9049 29.1647 60.6641 29.2559L60.5469 28.9434ZM63.6719 30.4961V33.8359C63.6719 34.5586 63.7012 35.0339 63.7598 35.2617C63.8509 35.6393 64.0723 35.9714 64.4238 36.2578C64.7819 36.5443 65.2311 36.6875 65.7715 36.6875C66.4225 36.6875 66.9499 36.4336 67.3535 35.9258C67.8809 35.2617 68.1445 34.3275 68.1445 33.123C68.1445 31.7559 67.8451 30.7044 67.2461 29.9688C66.8294 29.4609 66.3346 29.207 65.7617 29.207C65.4492 29.207 65.14 29.2852 64.834 29.4414C64.5996 29.5586 64.2122 29.9102 63.6719 30.4961ZM79.0332 28.0547V33.4746C79.0332 34.5098 79.056 35.1445 79.1016 35.3789C79.1536 35.6068 79.2318 35.7663 79.3359 35.8574C79.4466 35.9486 79.5736 35.9941 79.7168 35.9941C79.9186 35.9941 80.1465 35.9388 80.4004 35.8281L80.5371 36.1699L77.8613 37.2734H77.4219V35.3789C76.6536 36.2122 76.0677 36.7363 75.6641 36.9512C75.2604 37.166 74.834 37.2734 74.3848 37.2734C73.8835 37.2734 73.4473 37.1302 73.0762 36.8438C72.7116 36.5508 72.4577 36.1764 72.3145 35.7207C72.1712 35.265 72.0996 34.6204 72.0996 33.7871V29.793C72.0996 29.3698 72.054 29.0768 71.9629 28.9141C71.8717 28.7513 71.735 28.6276 71.5527 28.543C71.377 28.4518 71.0547 28.4095 70.5859 28.416V28.0547H73.7207V34.041C73.7207 34.8743 73.8639 35.4212 74.1504 35.6816C74.4434 35.9421 74.7949 36.0723 75.2051 36.0723C75.485 36.0723 75.8008 35.9844 76.1523 35.8086C76.5104 35.6328 76.9336 35.2975 77.4219 34.8027V29.7344C77.4219 29.2266 77.3275 28.8848 77.1387 28.709C76.9564 28.5267 76.5723 28.429 75.9863 28.416V28.0547H79.0332ZM83.7891 25.1152V28.0547H85.8789V28.7383H83.7891V34.5391C83.7891 35.1185 83.8704 35.5091 84.0332 35.7109C84.2025 35.9128 84.4173 36.0137 84.6777 36.0137C84.8926 36.0137 85.1009 35.9486 85.3027 35.8184C85.5046 35.6816 85.6608 35.4831 85.7715 35.2227H86.1523C85.9245 35.8607 85.6022 36.3424 85.1855 36.668C84.7689 36.987 84.3392 37.1465 83.8965 37.1465C83.597 37.1465 83.304 37.0651 83.0176 36.9023C82.7311 36.7331 82.5195 36.4954 82.3828 36.1895C82.2461 35.877 82.1777 35.3984 82.1777 34.7539V28.7383H80.7617V28.416C81.1198 28.2728 81.4844 28.0319 81.8555 27.6934C82.2331 27.3483 82.5684 26.9414 82.8613 26.4727C83.0111 26.2253 83.2194 25.7728 83.4863 25.1152H83.7891ZM88.2617 31.4238C88.2552 32.752 88.5775 33.7936 89.2285 34.5488C89.8796 35.304 90.6445 35.6816 91.5234 35.6816C92.1094 35.6816 92.6172 35.5221 93.0469 35.2031C93.4831 34.8776 93.8477 34.3242 94.1406 33.543L94.4434 33.7383C94.3066 34.6302 93.9095 35.444 93.252 36.1797C92.5944 36.9089 91.7708 37.2734 90.7812 37.2734C89.707 37.2734 88.7858 36.8568 88.0176 36.0234C87.2559 35.1836 86.875 34.0573 86.875 32.6445C86.875 31.1146 87.2656 29.9232 88.0469 29.0703C88.8346 28.2109 89.821 27.7812 91.0059 27.7812C92.0085 27.7812 92.832 28.1133 93.4766 28.7773C94.1211 29.4349 94.4434 30.3171 94.4434 31.4238H88.2617ZM88.2617 30.8574H92.4023C92.3698 30.2845 92.3014 29.8809 92.1973 29.6465C92.0345 29.2819 91.7904 28.9954 91.4648 28.7871C91.1458 28.5788 90.8105 28.4746 90.459 28.4746C89.9186 28.4746 89.4336 28.6862 89.0039 29.1094C88.5807 29.526 88.3333 30.1087 88.2617 30.8574ZM98.2617 27.791V29.8027C99.0104 28.4616 99.7786 27.791 100.566 27.791C100.924 27.791 101.221 27.9017 101.455 28.123C101.689 28.3379 101.807 28.5885 101.807 28.875C101.807 29.1289 101.722 29.3438 101.553 29.5195C101.383 29.6953 101.182 29.7832 100.947 29.7832C100.719 29.7832 100.462 29.6725 100.176 29.4512C99.8958 29.2233 99.6875 29.1094 99.5508 29.1094C99.4336 29.1094 99.3066 29.1745 99.1699 29.3047C98.877 29.5716 98.5742 30.0111 98.2617 30.623V34.9102C98.2617 35.4049 98.3236 35.7793 98.4473 36.0332C98.5319 36.209 98.6816 36.3555 98.8965 36.4727C99.1113 36.5898 99.4206 36.6484 99.8242 36.6484V37H95.2441V36.6484C95.6999 36.6484 96.0384 36.5768 96.2598 36.4336C96.4225 36.3294 96.5365 36.1634 96.6016 35.9355C96.6341 35.8249 96.6504 35.5091 96.6504 34.9883V31.5215C96.6504 30.4798 96.6276 29.8613 96.582 29.666C96.543 29.4642 96.4648 29.3177 96.3477 29.2266C96.237 29.1354 96.097 29.0898 95.9277 29.0898C95.7259 29.0898 95.498 29.1387 95.2441 29.2363L95.1465 28.8848L97.8516 27.791H98.2617ZM114.717 32.5664H109.59L108.691 34.6562C108.47 35.1706 108.359 35.5547 108.359 35.8086C108.359 36.0104 108.454 36.1895 108.643 36.3457C108.838 36.4954 109.255 36.5931 109.893 36.6387V37H105.723V36.6387C106.276 36.541 106.634 36.4141 106.797 36.2578C107.129 35.9453 107.497 35.3105 107.9 34.3535L112.559 23.4551H112.9L117.51 34.4707C117.881 35.3561 118.216 35.9323 118.516 36.1992C118.822 36.4596 119.245 36.6061 119.785 36.6387V37H114.561V36.6387C115.088 36.6126 115.443 36.5247 115.625 36.375C115.814 36.2253 115.908 36.043 115.908 35.8281C115.908 35.5417 115.778 35.0892 115.518 34.4707L114.717 32.5664ZM114.443 31.8438L112.197 26.4922L109.893 31.8438H114.443ZM120 28.9434L122.754 27.8301H123.125V29.9199C123.587 29.1322 124.049 28.582 124.512 28.2695C124.98 27.9505 125.472 27.791 125.986 27.791C126.885 27.791 127.633 28.1426 128.232 28.8457C128.968 29.7051 129.336 30.8249 129.336 32.2051C129.336 33.748 128.893 35.0241 128.008 36.0332C127.279 36.86 126.361 37.2734 125.254 37.2734C124.772 37.2734 124.355 37.2051 124.004 37.0684C123.743 36.9707 123.451 36.7754 123.125 36.4824V39.207C123.125 39.819 123.161 40.2064 123.232 40.3691C123.311 40.5384 123.441 40.6719 123.623 40.7695C123.812 40.8672 124.15 40.916 124.639 40.916V41.2773H119.951V40.916H120.195C120.553 40.9225 120.859 40.8542 121.113 40.7109C121.237 40.6393 121.331 40.5221 121.396 40.3594C121.468 40.2031 121.504 39.7995 121.504 39.1484V30.6914C121.504 30.112 121.478 29.7441 121.426 29.5879C121.374 29.4316 121.289 29.3145 121.172 29.2363C121.061 29.1582 120.908 29.1191 120.713 29.1191C120.557 29.1191 120.358 29.1647 120.117 29.2559L120 28.9434ZM123.125 30.4961V33.8359C123.125 34.5586 123.154 35.0339 123.213 35.2617C123.304 35.6393 123.525 35.9714 123.877 36.2578C124.235 36.5443 124.684 36.6875 125.225 36.6875C125.876 36.6875 126.403 36.4336 126.807 35.9258C127.334 35.2617 127.598 34.3275 127.598 33.123C127.598 31.7559 127.298 30.7044 126.699 29.9688C126.283 29.4609 125.788 29.207 125.215 29.207C124.902 29.207 124.593 29.2852 124.287 29.4414C124.053 29.5586 123.665 29.9102 123.125 30.4961ZM130 28.9434L132.754 27.8301H133.125V29.9199C133.587 29.1322 134.049 28.582 134.512 28.2695C134.98 27.9505 135.472 27.791 135.986 27.791C136.885 27.791 137.633 28.1426 138.232 28.8457C138.968 29.7051 139.336 30.8249 139.336 32.2051C139.336 33.748 138.893 35.0241 138.008 36.0332C137.279 36.86 136.361 37.2734 135.254 37.2734C134.772 37.2734 134.355 37.2051 134.004 37.0684C133.743 36.9707 133.451 36.7754 133.125 36.4824V39.207C133.125 39.819 133.161 40.2064 133.232 40.3691C133.311 40.5384 133.441 40.6719 133.623 40.7695C133.812 40.8672 134.15 40.916 134.639 40.916V41.2773H129.951V40.916H130.195C130.553 40.9225 130.859 40.8542 131.113 40.7109C131.237 40.6393 131.331 40.5221 131.396 40.3594C131.468 40.2031 131.504 39.7995 131.504 39.1484V30.6914C131.504 30.112 131.478 29.7441 131.426 29.5879C131.374 29.4316 131.289 29.3145 131.172 29.2363C131.061 29.1582 130.908 29.1191 130.713 29.1191C130.557 29.1191 130.358 29.1647 130.117 29.2559L130 28.9434ZM133.125 30.4961V33.8359C133.125 34.5586 133.154 35.0339 133.213 35.2617C133.304 35.6393 133.525 35.9714 133.877 36.2578C134.235 36.5443 134.684 36.6875 135.225 36.6875C135.876 36.6875 136.403 36.4336 136.807 35.9258C137.334 35.2617 137.598 34.3275 137.598 33.123C137.598 31.7559 137.298 30.7044 136.699 29.9688C136.283 29.4609 135.788 29.207 135.215 29.207C134.902 29.207 134.593 29.2852 134.287 29.4414C134.053 29.5586 133.665 29.9102 133.125 30.4961ZM143.721 23.1133V34.9785C143.721 35.5384 143.76 35.9095 143.838 36.0918C143.923 36.2741 144.049 36.4141 144.219 36.5117C144.388 36.6029 144.704 36.6484 145.166 36.6484V37H140.781V36.6484C141.191 36.6484 141.471 36.6061 141.621 36.5215C141.771 36.4368 141.888 36.2969 141.973 36.1016C142.057 35.9062 142.1 35.5319 142.1 34.9785V26.8535C142.1 25.8444 142.077 25.2259 142.031 24.998C141.986 24.7637 141.911 24.6042 141.807 24.5195C141.709 24.4349 141.582 24.3926 141.426 24.3926C141.257 24.3926 141.042 24.4447 140.781 24.5488L140.615 24.207L143.281 23.1133H143.721ZM148.486 23.1133C148.76 23.1133 148.991 23.2109 149.18 23.4062C149.375 23.5951 149.473 23.8262 149.473 24.0996C149.473 24.373 149.375 24.6074 149.18 24.8027C148.991 24.998 148.76 25.0957 148.486 25.0957C148.213 25.0957 147.979 24.998 147.783 24.8027C147.588 24.6074 147.49 24.373 147.49 24.0996C147.49 23.8262 147.585 23.5951 147.773 23.4062C147.969 23.2109 148.206 23.1133 148.486 23.1133ZM149.297 27.791V34.9785C149.297 35.5384 149.336 35.9128 149.414 36.1016C149.499 36.2839 149.619 36.4206 149.775 36.5117C149.938 36.6029 150.231 36.6484 150.654 36.6484V37H146.309V36.6484C146.745 36.6484 147.038 36.6061 147.188 36.5215C147.337 36.4368 147.454 36.2969 147.539 36.1016C147.63 35.9062 147.676 35.5319 147.676 34.9785V31.5312C147.676 30.5612 147.646 29.9329 147.588 29.6465C147.542 29.4382 147.471 29.2949 147.373 29.2168C147.275 29.1322 147.142 29.0898 146.973 29.0898C146.79 29.0898 146.569 29.1387 146.309 29.2363L146.172 28.8848L148.867 27.791H149.297ZM159.375 33.6016C159.134 34.7799 158.662 35.6882 157.959 36.3262C157.256 36.9577 156.478 37.2734 155.625 37.2734C154.609 37.2734 153.724 36.847 152.969 35.9941C152.214 35.1413 151.836 33.9889 151.836 32.5371C151.836 31.1309 152.253 29.9883 153.086 29.1094C153.926 28.2305 154.932 27.791 156.104 27.791C156.982 27.791 157.705 28.0254 158.271 28.4941C158.838 28.9564 159.121 29.4382 159.121 29.9395C159.121 30.1868 159.04 30.3887 158.877 30.5449C158.721 30.6947 158.499 30.7695 158.213 30.7695C157.829 30.7695 157.539 30.6458 157.344 30.3984C157.233 30.2617 157.158 30.0013 157.119 29.6172C157.087 29.2331 156.956 28.9401 156.729 28.7383C156.501 28.543 156.185 28.4453 155.781 28.4453C155.13 28.4453 154.606 28.6862 154.209 29.168C153.682 29.806 153.418 30.6491 153.418 31.6973C153.418 32.765 153.678 33.709 154.199 34.5293C154.727 35.3431 155.436 35.75 156.328 35.75C156.966 35.75 157.539 35.5319 158.047 35.0957C158.405 34.7962 158.753 34.2526 159.092 33.4648L159.375 33.6016ZM165.732 35.7109C164.814 36.4206 164.238 36.8307 164.004 36.9414C163.652 37.1042 163.278 37.1855 162.881 37.1855C162.262 37.1855 161.751 36.974 161.348 36.5508C160.951 36.1276 160.752 35.571 160.752 34.8809C160.752 34.4447 160.85 34.0671 161.045 33.748C161.312 33.3053 161.774 32.8887 162.432 32.498C163.096 32.1074 164.196 31.6322 165.732 31.0723V30.7207C165.732 29.8288 165.589 29.2168 165.303 28.8848C165.023 28.5527 164.613 28.3867 164.072 28.3867C163.662 28.3867 163.337 28.4974 163.096 28.7188C162.848 28.9401 162.725 29.194 162.725 29.4805L162.744 30.0469C162.744 30.3464 162.666 30.5775 162.51 30.7402C162.36 30.903 162.161 30.9844 161.914 30.9844C161.673 30.9844 161.475 30.8997 161.318 30.7305C161.169 30.5612 161.094 30.3301 161.094 30.0371C161.094 29.4772 161.38 28.9629 161.953 28.4941C162.526 28.0254 163.33 27.791 164.365 27.791C165.16 27.791 165.811 27.9245 166.318 28.1914C166.702 28.3932 166.986 28.709 167.168 29.1387C167.285 29.4186 167.344 29.9915 167.344 30.8574V33.8945C167.344 34.7474 167.36 35.2715 167.393 35.4668C167.425 35.6556 167.477 35.7826 167.549 35.8477C167.627 35.9128 167.715 35.9453 167.812 35.9453C167.917 35.9453 168.008 35.9225 168.086 35.877C168.223 35.7923 168.486 35.5547 168.877 35.1641V35.7109C168.148 36.6875 167.451 37.1758 166.787 37.1758C166.468 37.1758 166.214 37.0651 166.025 36.8438C165.837 36.6224 165.739 36.2448 165.732 35.7109ZM165.732 35.0762V31.668C164.749 32.0586 164.115 32.3353 163.828 32.498C163.314 32.7845 162.946 33.084 162.725 33.3965C162.503 33.709 162.393 34.0508 162.393 34.4219C162.393 34.8906 162.533 35.2812 162.812 35.5938C163.092 35.8997 163.415 36.0527 163.779 36.0527C164.274 36.0527 164.925 35.7272 165.732 35.0762ZM172.148 25.1152V28.0547H174.238V28.7383H172.148V34.5391C172.148 35.1185 172.23 35.5091 172.393 35.7109C172.562 35.9128 172.777 36.0137 173.037 36.0137C173.252 36.0137 173.46 35.9486 173.662 35.8184C173.864 35.6816 174.02 35.4831 174.131 35.2227H174.512C174.284 35.8607 173.962 36.3424 173.545 36.668C173.128 36.987 172.699 37.1465 172.256 37.1465C171.956 37.1465 171.663 37.0651 171.377 36.9023C171.09 36.7331 170.879 36.4954 170.742 36.1895C170.605 35.877 170.537 35.3984 170.537 34.7539V28.7383H169.121V28.416C169.479 28.2728 169.844 28.0319 170.215 27.6934C170.592 27.3483 170.928 26.9414 171.221 26.4727C171.37 26.2253 171.579 25.7728 171.846 25.1152H172.148ZM177.393 23.1133C177.666 23.1133 177.897 23.2109 178.086 23.4062C178.281 23.5951 178.379 23.8262 178.379 24.0996C178.379 24.373 178.281 24.6074 178.086 24.8027C177.897 24.998 177.666 25.0957 177.393 25.0957C177.119 25.0957 176.885 24.998 176.689 24.8027C176.494 24.6074 176.396 24.373 176.396 24.0996C176.396 23.8262 176.491 23.5951 176.68 23.4062C176.875 23.2109 177.113 23.1133 177.393 23.1133ZM178.203 27.791V34.9785C178.203 35.5384 178.242 35.9128 178.32 36.1016C178.405 36.2839 178.525 36.4206 178.682 36.5117C178.844 36.6029 179.137 36.6484 179.561 36.6484V37H175.215V36.6484C175.651 36.6484 175.944 36.6061 176.094 36.5215C176.243 36.4368 176.361 36.2969 176.445 36.1016C176.536 35.9062 176.582 35.5319 176.582 34.9785V31.5312C176.582 30.5612 176.553 29.9329 176.494 29.6465C176.449 29.4382 176.377 29.2949 176.279 29.2168C176.182 29.1322 176.048 29.0898 175.879 29.0898C175.697 29.0898 175.475 29.1387 175.215 29.2363L175.078 28.8848L177.773 27.791H178.203ZM185.059 27.791C186.413 27.791 187.5 28.3053 188.32 29.334C189.017 30.2129 189.365 31.222 189.365 32.3613C189.365 33.1621 189.173 33.9727 188.789 34.793C188.405 35.6133 187.874 36.2318 187.197 36.6484C186.527 37.0651 185.778 37.2734 184.951 37.2734C183.604 37.2734 182.533 36.7363 181.738 35.6621C181.068 34.7572 180.732 33.7415 180.732 32.6152C180.732 31.7949 180.934 30.9811 181.338 30.1738C181.748 29.36 182.285 28.7611 182.949 28.377C183.613 27.9863 184.316 27.791 185.059 27.791ZM184.756 28.4258C184.411 28.4258 184.062 28.5299 183.711 28.7383C183.366 28.9401 183.086 29.2982 182.871 29.8125C182.656 30.3268 182.549 30.9876 182.549 31.7949C182.549 33.097 182.806 34.2201 183.32 35.1641C183.841 36.1081 184.525 36.5801 185.371 36.5801C186.003 36.5801 186.523 36.3197 186.934 35.7988C187.344 35.278 187.549 34.3828 187.549 33.1133C187.549 31.5247 187.207 30.2747 186.523 29.3633C186.061 28.7383 185.472 28.4258 184.756 28.4258ZM193.291 29.6855C194.339 28.4225 195.339 27.791 196.289 27.791C196.777 27.791 197.197 27.9147 197.549 28.1621C197.9 28.403 198.18 28.8034 198.389 29.3633C198.532 29.7539 198.604 30.3529 198.604 31.1602V34.9785C198.604 35.5449 198.649 35.929 198.74 36.1309C198.812 36.2936 198.926 36.4206 199.082 36.5117C199.245 36.6029 199.541 36.6484 199.971 36.6484V37H195.547V36.6484H195.732C196.149 36.6484 196.439 36.5866 196.602 36.4629C196.771 36.3327 196.888 36.1439 196.953 35.8965C196.979 35.7988 196.992 35.4928 196.992 34.9785V31.3164C196.992 30.5026 196.885 29.9134 196.67 29.5488C196.462 29.1777 196.107 28.9922 195.605 28.9922C194.831 28.9922 194.059 29.4154 193.291 30.2617V34.9785C193.291 35.584 193.327 35.9583 193.398 36.1016C193.49 36.2904 193.613 36.4303 193.77 36.5215C193.932 36.6061 194.258 36.6484 194.746 36.6484V37H190.322V36.6484H190.518C190.973 36.6484 191.279 36.5345 191.436 36.3066C191.598 36.0723 191.68 35.6296 191.68 34.9785V31.6582C191.68 30.584 191.654 29.9297 191.602 29.6953C191.556 29.4609 191.481 29.3014 191.377 29.2168C191.279 29.1322 191.146 29.0898 190.977 29.0898C190.794 29.0898 190.576 29.1387 190.322 29.2363L190.176 28.8848L192.871 27.791H193.291V29.6855Z" fill="#E6721E"/>
</svg>
