<svg width="500" height="500" viewBox="0 0 500 500" fill="none" xmlns="http://www.w3.org/2000/svg">
<g clip-path="url(#clip0_32_4)">
<mask id="mask0_32_4" style="mask-type:luminance" maskUnits="userSpaceOnUse" x="0" y="0" width="500" height="500">
<path d="M500 0H0V500H500V0Z" fill="white"/>
</mask>
<g mask="url(#mask0_32_4)">
<g opacity="0.22">
<path d="M324.415 48.5337H290.643V61.3577H324.415V48.5337Z" fill="#AF864D"/>
<path d="M99.106 38.938H65.335V51.762H99.106V38.938Z" fill="#AF864D"/>
<path d="M82.607 216.651H48.835V229.475H82.607V216.651Z" fill="#AF864D"/>
<path d="M522.237 121.405H488.466V134.229H522.237V121.405Z" fill="#AF864D"/>
<path d="M470.903 33.4287H437.132V46.2527H470.903V33.4287Z" fill="#AF864D"/>
<path d="M515.104 256.652H481.332V269.476H515.104V256.652Z" fill="#AF864D"/>
<path d="M307.529 29.0796H273.757V41.9036H307.529V29.0796Z" fill="#CDA36B"/>
<path d="M144.969 38.938H111.197V51.762H144.969V38.938Z" fill="#CDA36B"/>
<path d="M67.1599 118.19H33.3879V131.014H67.1599V118.19Z" fill="#CDA36B"/>
<path d="M90.4519 235.541H56.6799V248.365H90.4519V235.541Z" fill="#CDA36B"/>
<path d="M120.392 307.332H86.62V320.156H120.392V307.332Z" fill="#CDA36B"/>
<path d="M505.352 102.77H471.58V115.594H505.352V102.77Z" fill="#CDA36B"/>
<path d="M505.346 275.037H471.574V287.861H505.346V275.037Z" fill="#CDA36B"/>
<path d="M280.398 48.5337H246.626V61.3577H280.398V48.5337Z" stroke="#CDA36B" stroke-width="1.3046" stroke-miterlimit="10"/>
<path d="M128.083 57.5728H94.3109V70.3968H128.083V57.5728Z" stroke="#CDA36B" stroke-width="1.3046" stroke-miterlimit="10"/>
<path d="M44.9929 136.826H11.2209V149.65H44.9929V136.826Z" stroke="#CDA36B" stroke-width="1.3046" stroke-miterlimit="10"/>
<path d="M130.564 287.093H96.792V299.917H130.564V287.093Z" stroke="#CDA36B" stroke-width="1.3046" stroke-miterlimit="10"/>
<path d="M479.492 121.405H445.72V134.229H479.492V121.405Z" stroke="#CDA36B" stroke-width="1.3046" stroke-miterlimit="10"/>
<path d="M460.614 15.0078H426.842V27.8318H460.614V15.0078Z" stroke="#CDA36B" stroke-width="1.3046" stroke-miterlimit="10"/>
<path d="M71.1509 406.021H37.3789V418.845H71.1509V406.021Z" fill="#AF864D"/>
<path d="M232.571 445.436H198.799V458.26H232.571V445.436Z" fill="#AF864D"/>
<path d="M117.013 406.021H83.241V418.845H117.013V406.021Z" fill="#CDA36B"/>
<path d="M132.936 490.629H99.1639V503.453H132.936V490.629Z" fill="#CDA36B"/>
<path d="M100.127 424.656H66.355V437.48H100.127V424.656Z" stroke="#CDA36B" stroke-width="1.3046" stroke-miterlimit="10"/>
<path d="M143.108 470.39H109.336V483.214H143.108V470.39Z" stroke="#CDA36B" stroke-width="1.3046" stroke-miterlimit="10"/>
<path d="M222.281 427.016H188.509V439.84H222.281V427.016Z" stroke="#CDA36B" stroke-width="1.3046" stroke-miterlimit="10"/>
<path d="M445.499 466.115H411.728V478.939H445.499V466.115Z" fill="#AF864D"/>
<path d="M269.066 346.185H235.294V359.009H269.066V346.185Z" fill="#AF864D"/>
<path d="M463.407 379.54H429.635V392.364H463.407V379.54Z" fill="#AF864D"/>
<path d="M428.613 446.661H394.842V459.485H428.613V446.661Z" fill="#CDA36B"/>
<path d="M314.929 346.185H281.157V359.009H314.929V346.185Z" fill="#CDA36B"/>
<path d="M446.521 360.905H412.749V373.729H446.521V360.905Z" fill="#CDA36B"/>
<path d="M401.483 466.115H367.711V478.939H401.483V466.115Z" stroke="#CDA36B" stroke-width="1.3046" stroke-miterlimit="10"/>
<path d="M298.043 364.82H264.271V377.644H298.043V364.82Z" stroke="#CDA36B" stroke-width="1.3046" stroke-miterlimit="10"/>
<path d="M420.661 379.54H386.889V392.364H420.661V379.54Z" stroke="#CDA36B" stroke-width="1.3046" stroke-miterlimit="10"/>
</g>
</g>
<path opacity="0.47" d="M431.675 314.81H73.139C69.661 314.81 66.842 311.778 66.842 308.036V94.5546C66.842 90.8129 69.661 87.7803 73.139 87.7803H431.675C435.153 87.7803 437.972 90.8129 437.972 94.5546V308.037C437.971 311.778 435.152 314.81 431.675 314.81Z" fill="#AF864D"/>
<path d="M429.191 311.29H70.655C67.177 311.29 64.358 308.258 64.358 304.516V91.0346C64.358 87.2929 67.177 84.2603 70.655 84.2603H429.191C432.669 84.2603 435.488 87.2929 435.488 91.0346V304.517C435.488 308.258 432.669 311.29 429.191 311.29Z" fill="#A66036"/>
<path d="M423.701 305H76.2992C72.82 305 70 301.938 70 298.159V96.8409C70 93.0625 72.82 90 76.2992 90H423.701C427.18 90 430 93.0625 430 96.8409V298.159C429.999 301.936 427.179 305 423.701 305Z" fill="#7E3323"/>
<path d="M421.693 302H78.3072C74.8236 302 72 298.948 72 295.183V98.8166C72 95.0516 74.8236 92 78.3072 92H421.693C425.176 92 428 95.0516 428 98.8166V295.184C428 298.948 425.176 302 421.693 302Z" fill="white"/>
<path d="M186.817 136.156H95.5491V279.24H186.817V136.156Z" fill="#E4E4E5"/>
<path d="M179.882 145.849H102.485V190.736H179.882V145.849Z" fill="#BEBCBF"/>
<path d="M138.585 196.583H102.485V200.952H138.585V196.583Z" fill="#BEBCBF"/>
<path d="M179.991 196.583H143.891V200.952H179.991V196.583Z" fill="#BEBCBF"/>
<path d="M138.585 207.33H102.485V211.699H138.585V207.33Z" fill="#BEBCBF"/>
<path d="M179.991 207.33H143.891V211.699H179.991V207.33Z" fill="#BEBCBF"/>
<path d="M138.585 218.077H102.485V222.446H138.585V218.077Z" fill="#BEBCBF"/>
<path d="M179.991 218.077H143.891V222.446H179.991V218.077Z" fill="#BEBCBF"/>
<path d="M138.585 228.824H102.485V233.193H138.585V228.824Z" fill="#BEBCBF"/>
<path d="M179.991 228.824H143.891V233.193H179.991V228.824Z" fill="#BEBCBF"/>
<path d="M138.585 239.571H102.485V243.94H138.585V239.571Z" fill="#BEBCBF"/>
<path d="M179.991 239.571H143.891V243.94H179.991V239.571Z" fill="#BEBCBF"/>
<path d="M138.585 250.318H102.485V254.687H138.585V250.318Z" fill="#BEBCBF"/>
<path d="M179.991 250.318H143.891V254.687H179.991V250.318Z" fill="#BEBCBF"/>
<path d="M138.585 261.065H102.485V265.434H138.585V261.065Z" fill="#BEBCBF"/>
<path d="M179.991 261.065H143.891V265.434H179.991V261.065Z" fill="#BEBCBF"/>
<path d="M175.397 153.729H106.969V157.526H175.397V153.729Z" fill="white"/>
<path d="M175.397 165.239H106.969V169.036H175.397V165.239Z" fill="white"/>
<path d="M165.584 176.749H116.783V180.546H165.584V176.749Z" fill="white"/>
<path d="M105.977 134.523L103.698 132.244L90.5563 145.385L92.836 147.665L105.977 134.523Z" fill="#BABBB5"/>
<path d="M189.11 147.66L191.39 145.38L178.248 132.239L175.969 134.519L189.11 147.66Z" fill="#BABBB5"/>
<path d="M92.8297 267.548L90.55 269.828L103.692 282.97L105.971 280.69L92.8297 267.548Z" fill="#BABBB5"/>
<path d="M175.967 280.694L178.246 282.974L191.388 269.833L189.108 267.553L175.967 280.694Z" fill="#BABBB5"/>
<path d="M295.368 136.156H204.1V279.24H295.368V136.156Z" fill="#E4E4E5"/>
<path d="M221.714 161.572V186.984H214.091V161.572H221.714ZM229.004 166.07C227.676 166.07 226.612 165.715 225.81 165.006C225.009 164.296 224.608 163.403 224.608 162.327C224.608 161.228 225.009 160.324 225.81 159.614C226.612 158.881 227.676 158.515 229.004 158.515C230.309 158.515 231.362 158.881 232.163 159.614C232.965 160.324 233.365 161.228 233.365 162.327C233.365 163.403 232.965 164.296 232.163 165.006C231.362 165.715 230.309 166.07 229.004 166.07ZM232.782 167.616V186.984H225.158V167.616H232.782ZM246.047 179.738L249.137 167.616H257.242L250.786 186.984H241.273L234.817 167.616H242.921L246.047 179.738ZM278.015 177.128C278.015 177.655 277.981 178.159 277.912 178.639H265.652C265.767 180.311 266.465 181.146 267.747 181.146C268.571 181.146 269.166 180.769 269.533 180.013H277.603C277.328 181.387 276.744 182.623 275.852 183.722C274.982 184.798 273.871 185.656 272.52 186.298C271.193 186.916 269.727 187.225 268.125 187.225C266.202 187.225 264.484 186.824 262.973 186.023C261.485 185.222 260.318 184.077 259.471 182.589C258.646 181.078 258.234 179.315 258.234 177.3C258.234 175.285 258.646 173.534 259.471 172.046C260.318 170.535 261.485 169.379 262.973 168.577C264.484 167.776 266.202 167.375 268.125 167.375C270.048 167.375 271.753 167.776 273.242 168.577C274.753 169.356 275.92 170.478 276.744 171.943C277.592 173.408 278.015 175.137 278.015 177.128ZM270.288 175.308C270.288 174.667 270.082 174.186 269.67 173.866C269.258 173.522 268.743 173.351 268.125 173.351C266.774 173.351 265.984 174.003 265.755 175.308H270.288Z" fill="#AFAEB1"/>
<path d="M288.432 145.849H211.035V150.29H288.432V145.849Z" fill="#BEBCBF"/>
<path d="M288.432 194.048H211.035V198.489H288.432V194.048Z" fill="#BEBCBF"/>
<path d="M252.167 210.74H211.035V214.943H252.167V210.74Z" fill="#BEBCBF"/>
<path d="M252.167 223.128H211.035V227.331H252.167V223.128Z" fill="#BEBCBF"/>
<path d="M252.167 235.516H211.035V239.719H252.167V235.516Z" fill="#BEBCBF"/>
<path d="M252.167 247.905H211.035V252.108H252.167V247.905Z" fill="#BEBCBF"/>
<path d="M252.167 260.293H211.035V264.496H252.167V260.293Z" fill="#BEBCBF"/>
<path d="M214.529 134.521L212.25 132.242L199.108 145.383L201.388 147.663L214.529 134.521Z" fill="#BABBB5"/>
<path d="M297.659 147.658L299.939 145.378L286.798 132.237L284.518 134.517L297.659 147.658Z" fill="#BABBB5"/>
<path d="M201.38 267.549L199.1 269.829L212.242 282.971L214.521 280.691L201.38 267.549Z" fill="#BABBB5"/>
<path d="M284.518 280.695L286.797 282.975L299.939 269.834L297.659 267.554L284.518 280.695Z" fill="#BABBB5"/>
<path d="M287.285 210.823H261.347V241.601H287.285V210.823Z" fill="#BEBCBF"/>
<path d="M287.285 250.476H261.347V264.442H287.285V250.476Z" fill="#BEBCBF"/>
<path d="M403.919 136.156H312.651V279.24H403.919V136.156Z" fill="#E4E4E5"/>
<path d="M396.983 145.849H319.586V200.711H396.983V145.849Z" fill="#BEBCBF"/>
<path d="M372.351 186.761C380.176 178.937 380.176 166.25 372.351 158.425C364.526 150.6 351.84 150.6 344.015 158.425C336.19 166.25 336.19 178.937 344.015 186.761C351.84 194.586 364.526 194.586 372.351 186.761Z" fill="white"/>
<path d="M323.08 134.518L320.801 132.239L307.659 145.38L309.939 147.66L323.08 134.518Z" fill="#BABBB5"/>
<path d="M406.213 147.664L408.493 145.384L395.351 132.243L393.072 134.523L406.213 147.664Z" fill="#BABBB5"/>
<path d="M309.929 267.55L307.65 269.83L320.791 282.972L323.071 280.692L309.929 267.55Z" fill="#BABBB5"/>
<path d="M393.079 280.693L395.359 282.973L408.501 269.832L406.221 267.552L393.079 280.693Z" fill="#BABBB5"/>
<path d="M384.757 210.706H332.051V215.062H384.757V210.706Z" fill="#BEBCBF"/>
<path d="M384.757 224.645H332.051V229.001H384.757V224.645Z" fill="#BEBCBF"/>
<path d="M384.757 238.584H332.051V242.94H384.757V238.584Z" fill="#BEBCBF"/>
<path d="M384.757 252.523H332.051V256.879H384.757V252.523Z" fill="#BEBCBF"/>
<path d="M384.757 266.461H332.051V270.817H384.757V266.461Z" fill="#BEBCBF"/>
<path d="M325.768 123.122L173.473 122.425C165.358 122.388 158.522 117.021 158.203 110.437C157.884 103.854 164.203 98.5472 172.317 98.584L324.612 99.2811C332.727 99.3184 339.563 104.685 339.882 111.269C340.201 117.852 333.882 123.159 325.768 123.122Z" stroke="#E50057" stroke-width="3" stroke-miterlimit="10"/>
<path d="M183.808 108.566V109.784H186.888V112.122H183.808V113.522H187.308V116H180.7V106.088H187.308V108.566H183.808ZM194.793 116L192.973 113.424L191.461 116H187.919L191.181 110.89L187.779 106.088H191.461L193.211 108.566L194.667 106.088H198.209L195.003 111.1L198.475 116H194.793ZM205.527 114.502H202.223L201.733 116H198.471L202.097 106.088H205.681L209.293 116H206.017L205.527 114.502ZM204.771 112.164L203.875 109.406L202.979 112.164H204.771ZM221.913 106.088V116H218.819V111.058L217.293 116H214.633L213.107 111.058V116H209.999V106.088H213.807L215.991 112.038L218.119 106.088H221.913ZM237.243 106.088V116H234.135V112.136H231.181V116H228.073V106.088H231.181V109.658H234.135V106.088H237.243ZM244.997 114.502H241.693L241.203 116H237.941L241.567 106.088H245.151L248.763 116H245.487L244.997 114.502ZM244.241 112.164L243.345 109.406L242.449 112.164H244.241ZM252.577 113.648H255.573V116H249.469V106.088H252.577V113.648ZM259.659 113.648H262.655V116H256.551V106.088H259.659V113.648ZM276.175 106.088V108.552H273.543V116H270.435V108.552H267.831V106.088H276.175ZM280.126 106.088V116H277.018V106.088H280.126ZM281.25 111.03C281.25 110.05 281.446 109.177 281.838 108.412C282.239 107.646 282.809 107.054 283.546 106.634C284.283 106.204 285.151 105.99 286.15 105.99C287.009 105.99 287.774 106.153 288.446 106.48C289.127 106.797 289.678 107.25 290.098 107.838C290.527 108.426 290.812 109.112 290.952 109.896H287.676C287.527 109.569 287.312 109.317 287.032 109.14C286.761 108.953 286.449 108.86 286.094 108.86C285.571 108.86 285.156 109.056 284.848 109.448C284.549 109.84 284.4 110.367 284.4 111.03C284.4 111.692 284.549 112.22 284.848 112.612C285.156 113.004 285.571 113.2 286.094 113.2C286.449 113.2 286.761 113.111 287.032 112.934C287.312 112.747 287.527 112.49 287.676 112.164H290.952C290.812 112.948 290.527 113.634 290.098 114.222C289.678 114.81 289.127 115.267 288.446 115.594C287.774 115.911 287.009 116.07 286.15 116.07C285.151 116.07 284.283 115.86 283.546 115.44C282.809 115.01 282.239 114.413 281.838 113.648C281.446 112.882 281.25 112.01 281.25 111.03ZM298.063 116L295.179 111.702V116H292.071V106.088H295.179V110.26L298.021 106.088H301.535L298.119 110.834L301.759 116H298.063ZM305.747 108.566V109.784H308.827V112.122H305.747V113.522H309.247V116H302.639V106.088H309.247V108.566H305.747ZM318.203 106.088V108.552H315.571V116H312.463V108.552H309.859V106.088H318.203Z" fill="#E50057"/>
<path d="M383.013 333.266C380.797 344.185 381.589 371.563 394.09 381.849C403.901 385.014 420.992 385.805 425.582 379C430.171 372.195 421.467 353.363 418.619 341.495C415.77 329.626 416.087 326.145 416.087 326.145C416.087 326.145 413.713 336.906 417.828 348.458C421.943 360.01 426.502 377.073 420.661 379.54C414.821 382.007 415.296 365.549 412.447 353.364C409.599 341.179 407.7 335.798 407.7 335.798C407.7 335.798 410.865 349.882 410.865 356.529C410.865 363.175 415.296 378.368 412.764 379.792C410.232 381.216 404.693 382.957 403.586 373.304C402.478 363.651 394.566 333.425 396.148 321.873C397.731 310.321 396.939 308.738 396.939 308.738C396.939 308.738 395.515 317.917 394.407 323.93C393.299 329.944 394.091 355.897 396.464 365.55C398.838 375.203 398.68 379.634 394.723 377.577C390.767 375.519 379.689 359.378 383.013 333.266Z" fill="#532744"/>
<mask id="mask1_32_4" style="mask-type:luminance" maskUnits="userSpaceOnUse" x="0" y="0" width="500" height="500">
<path d="M500 0H0V500H500V0Z" fill="white"/>
</mask>
<g mask="url(#mask1_32_4)">
<path d="M78.844 497.288C80.663 524.488 80.072 565.578 82.099 596.219C83.63 619.36 117.32 618.849 118.001 597.41C119.121 562.134 121.195 510.122 121.195 510.122L78.844 497.288Z" fill="#0E2943"/>
<path d="M105.653 509.284C105.653 509.284 141.72 569.422 153.223 588.392C162.922 604.386 187.253 591.965 183.702 576.512C180.018 560.483 159.755 498.818 154.966 488.885C150.176 478.951 105.653 509.284 105.653 509.284Z" fill="#0E2943"/>
<path d="M64.137 412.035L87.71 467.162C87.71 467.162 87.967 481.279 80.837 481.279C60.127 457.235 33.982 425.667 35.919 412.031C36.91 405.058 64.137 412.035 64.137 412.035Z" fill="#007D96"/>
<path d="M73.327 433.525C71.013 438.748 66.894 449.904 66.345 464.109C71.196 470.02 76.155 475.842 80.838 481.278C87.967 481.278 87.711 467.161 87.711 467.161L73.327 433.525Z" fill="#0F6A80"/>
<path d="M99.421 340.368C82.973 343.155 46.325 387.639 39.481 399.332C32.637 411.024 34.232 422.728 42.618 424.997C48.764 426.66 54.221 423.289 63.387 415.936C76.65 405.297 86.997 394.658 86.997 394.658L99.421 340.368Z" fill="#007D96"/>
<path d="M86.997 394.658L99.421 340.368C93.349 341.397 84.523 348.111 75.46 356.759C68.512 372.236 67.229 405.473 67.025 412.96C78.494 403.4 86.997 394.658 86.997 394.658Z" fill="#0F6A80"/>
<path d="M141.686 345.861L141.788 327.614L117.993 326.111L113.91 344.727L141.686 345.861Z" fill="#F9BF9E"/>
<path d="M127.586 333.871C150.546 337.709 156.855 333.77 160.553 321.452C162.436 315.18 164.061 309.296 165.084 304.106C166.89 294.943 166.82 287.94 162.988 284.768C155.738 278.768 131.211 278.614 124.982 288.814C118.753 299.014 117.059 310.301 117.397 321.116C117.734 331.932 127.586 333.871 127.586 333.871Z" fill="#F9BF9E"/>
<path d="M167.023 311.667C167.002 311.622 165.083 304.105 165.083 304.105C165.083 304.105 161.745 313.54 161.745 315.196C161.745 316.788 167.026 311.674 167.023 311.667Z" fill="#F9BF9E"/>
<path d="M122.494 264.47C112.147 262.917 97.5849 270.72 97.9889 286.761C98.3929 302.802 104.502 321.073 101.915 325.494C105.689 328.513 119.096 334.542 126.372 333.797C145.545 331.834 152.427 323.34 153.231 309.108C154.035 294.876 158.888 294.827 158.888 294.827C158.888 294.827 171.825 295.881 170.438 282.688C169.052 269.496 160.749 271.579 160.749 271.579C160.749 271.579 160.595 257.252 141.572 257.382C128.131 257.474 122.494 264.47 122.494 264.47Z" fill="#9F303B"/>
<path d="M123.028 266.384C117.495 265.477 109.512 271.01 106.791 273.459C112.596 272.461 123.092 268.701 123.092 268.701C123.092 268.701 115.083 273.85 115.884 282.317C120.69 273.736 127.44 271.333 127.44 271.333C127.44 271.333 133.339 277.647 142.772 279.914C139.921 273.587 130.671 269.503 130.671 269.503C130.671 269.503 139.913 267.993 143.088 267.086C139.732 264.274 129.171 267.419 129.171 267.419C129.171 267.419 133.754 264.836 134.338 263.336C130.005 263.419 126.338 265.919 126.338 265.919C126.338 265.919 126.294 264.478 130.013 262.119C125.931 262.03 123.028 266.384 123.028 266.384Z" fill="#81272F"/>
<path d="M150.993 317.178C150.624 320.685 146.009 331.022 138.441 333.144C141.579 330.837 145.363 325.761 145.363 325.761L150.993 317.178Z" fill="#9F303B"/>
<path d="M157.084 294.013C154.777 297.52 153.762 306.934 154.961 310.625C156.715 301.396 160.683 294.382 160.683 294.382L157.084 294.013Z" fill="#9F303B"/>
<path d="M101.802 275.185C97.003 276.939 94.696 288.383 96.265 295.766C96.727 293.828 97.28 291.89 97.28 291.89C97.28 291.89 97.188 302.78 99.587 308.318C99.864 306.288 100.971 302.411 100.971 302.411L101.802 275.185Z" fill="#9F303B"/>
<path d="M81.175 462.809C81.175 462.809 77.739 478.979 76.143 488.913C74.547 498.846 75.762 504.772 79.822 509.34C112.106 518.032 135.006 514.261 147.516 507.333C159.046 500.947 158.122 492.499 155.853 485.692C153.015 477.178 149.822 464.761 149.113 464.583C148.404 464.405 81.175 462.809 81.175 462.809Z" fill="#0E2943"/>
<path d="M99.567 340.368C91.085 342.451 83.297 349.678 80.884 369.423C79.004 384.807 77.343 463.968 77.343 463.968C77.343 463.968 107.8 476.691 153.293 465.896C155.992 433.511 161.775 380.308 162.16 366.043C162.545 351.778 155.15 342.052 133.245 339.441C119.804 337.838 108.049 338.284 99.567 340.368Z" fill="#009CB4"/>
<path d="M139 370.461C138.683 377.91 156.118 397.881 159.605 399.308C160.239 392.176 161.19 388.055 161.19 388.055L139 370.461Z" fill="#008CA3"/>
<path d="M220.918 330.745C221.047 330.322 219.941 327.101 219.893 324.479C219.823 320.601 220.167 319.193 221.726 317.498C223.348 315.735 225.349 317.493 225.745 317.801C226.141 318.109 232.445 301.637 233.803 299.631C235.16 297.625 237.589 297.971 235.598 303.429C233.607 308.887 233.434 311.594 232.777 313.482C233.152 313.617 242.689 318.504 242.304 323.502C242.058 326.705 234.943 334.554 233.854 335.338C232.766 336.122 220.79 331.168 220.918 330.745Z" fill="#E8C0A8"/>
<path d="M191.369 383.02L220.603 330.416C220.603 330.416 232.012 330.565 234.762 335.515C228.558 366.636 219.889 401.558 207.95 408.424C201.845 411.936 191.369 383.02 191.369 383.02Z" fill="#009CB4"/>
<path d="M198.146 370.848C206.562 374.063 212.236 389.477 210.345 397.042C205.239 390.423 194.742 376.711 194.742 376.711L198.146 370.848Z" fill="#007D96"/>
<path d="M145.711 383.096C161.6 393.596 170.886 399.266 191.446 409.284C201.577 414.221 211.921 408.866 213.849 400.127C216.623 387.551 200.691 379.537 189.383 371.003C176.938 361.61 167.539 354.896 156.894 348.855C145.387 342.326 125.996 370.067 145.711 383.096Z" fill="#009CB4"/>
</g>
<mask id="mask2_32_4" style="mask-type:luminance" maskUnits="userSpaceOnUse" x="0" y="0" width="500" height="500">
<path d="M500 0H0V500H500V0Z" fill="white"/>
</mask>
<g mask="url(#mask2_32_4)">
<path d="M423.865 397.109C432.845 413.171 438.579 424.636 441.402 429.316C446.896 438.422 467.557 429.256 461.882 417.352C453.766 400.328 446.325 388.713 441.728 381.14C437.131 373.567 415.271 381.739 423.865 397.109Z" fill="#E8C0A8"/>
<path d="M443.624 416.199C432.031 426.945 423.618 434.051 420.282 437.355C413.791 443.783 425.622 459.179 434.413 452.034C446.984 441.815 455.176 433.253 460.569 427.884C465.961 422.514 454.717 405.916 443.624 416.199Z" fill="#E8C0A8"/>
<path d="M431.008 353.479C440.786 366.05 447.592 373.836 455.257 387.436C445.292 403.104 426.916 407.23 421.715 406.03C423.309 398.08 405.92 376.124 401.812 360.441C398.815 349 418.037 336.802 431.008 353.479Z" fill="#BA4150"/>
<path d="M421.59 402.947C421.659 403.288 421.711 403.617 421.747 403.934C427.222 402.947 443.537 398.899 453.681 384.704C453.493 384.385 453.306 384.077 453.119 383.764C443.208 397.954 426.978 401.977 421.59 402.947Z" fill="#F6BB7D"/>
<path d="M434.435 497.288C432.616 524.488 433.207 565.578 431.18 596.219C429.649 619.36 395.959 618.849 395.278 597.41C394.158 562.134 392.084 510.122 392.084 510.122L434.435 497.288Z" fill="#493753"/>
<path d="M407.626 509.284C407.626 509.284 371.559 569.422 360.056 588.392C350.357 604.386 326.026 591.965 329.577 576.512C333.261 560.483 353.524 498.818 358.313 488.885C363.103 478.951 407.626 509.284 407.626 509.284Z" fill="#493753"/>
<path d="M374.091 347.635L375.805 329.468L399.631 330.34L401.843 349.27L374.091 347.635Z" fill="#F9BF9E"/>
<path d="M432.105 462.809C432.105 462.809 435.541 478.979 437.137 488.913C438.733 498.846 437.518 504.772 433.458 509.34C401.174 518.032 378.274 514.261 365.764 507.333C354.234 500.947 355.158 492.499 357.427 485.692C360.265 477.178 363.458 464.761 364.168 464.583C364.877 464.406 432.105 462.809 432.105 462.809Z" fill="#493753"/>
<path d="M413.713 340.368C422.195 342.451 433.275 353.532 431.501 376.594C429.301 405.192 425.57 419.541 435.937 463.968C425.88 476.881 383.108 476.571 359.987 465.896C365.725 439.371 365.539 422.317 363.734 406.221C363.563 404.694 356.619 397.082 356.993 393.271C357.88 384.224 360.185 374.248 360.009 367.725C359.624 353.46 358.13 342.052 380.035 339.441C393.476 337.838 405.231 338.284 413.713 340.368Z" fill="#CE4758"/>
<path d="M430.491 388.306C430.828 384.611 431.18 380.756 431.5 376.594C433.274 353.532 422.194 342.451 413.712 340.368C405.23 338.285 393.475 337.838 380.034 339.44C358.129 342.05 359.622 353.459 360.008 367.723C360.184 374.246 357.879 384.221 356.992 393.269C356.618 397.08 363.562 404.693 363.733 406.219C363.929 407.967 364.101 409.731 364.254 411.513C367.733 406.942 373.608 398.964 377.161 392.726C405.29 399.648 422.493 393.08 430.491 388.306Z" fill="#BA4150"/>
<path d="M317.792 365.679C317.722 364.756 322.695 347.946 322.695 347.946L323.414 340.887L321.529 330.618L319.187 330.302L319.339 337.691L318.483 341.532L317.402 334.553L316.348 320.606L313.816 320.551L313.14 336.905L311.506 320.788L309.452 321.979L308.955 330.982L308.062 322.928L306.488 324.035L304.842 330.328L304.318 331.035L304.027 335.948L305.863 346.286L312.233 366.048L317.792 365.679Z" fill="#E8C0A8"/>
<path d="M320.306 416.126C315.072 400.652 310.443 367.191 310.276 359.356C310.109 351.521 316.402 352.995 318.174 359.926C319.946 366.858 332.729 398.655 335.128 407.021C338.834 419.937 324.14 427.462 320.306 416.126Z" fill="#E8C0A8"/>
<path d="M340.702 385.036C330.898 397.436 323.677 405.751 320.889 409.527C315.463 416.877 329.52 430.271 337.108 421.86C347.959 409.83 354.738 400.111 359.242 393.977C363.745 387.843 350.084 373.171 340.702 385.036Z" fill="#E8C0A8"/>
<path d="M379.942 372.382C372.155 386.275 367.624 395.57 358.068 407.916C339.759 404.818 328.821 389.487 327.907 384.228C335.852 382.61 349.332 358.058 362.188 348.182C371.566 340.976 390.272 353.952 379.942 372.382Z" fill="#CE4758"/>
<path d="M389.314 337.107C366.086 338.642 360.201 334.095 357.746 321.47C356.496 315.042 355.465 309.026 354.963 303.759C354.078 294.462 354.843 287.5 358.972 284.725C366.783 279.476 391.204 281.763 396.387 292.532C401.57 303.301 402.133 314.701 400.721 325.429C399.31 336.157 389.314 337.107 389.314 337.107Z" fill="#E8C0A8"/>
<path d="M352.281 311.09C352.306 311.048 354.963 303.759 354.963 303.759C354.963 303.759 357.346 313.48 357.181 315.128C357.023 316.711 352.277 311.096 352.281 311.09Z" fill="#E8C0A8"/>
<path d="M419.65 289.054C420.536 280.195 418.249 271.623 407.689 267.974C407.689 267.974 401.565 258.823 388.199 257.395C369.284 255.374 354.457 268.926 351.765 281.915C349.073 294.904 362.051 295.142 362.051 295.142C362.051 295.142 365.382 295.687 366.26 309.915C367.309 326.922 360.306 335.616 362.47 358.072C364.634 380.527 370.41 390.884 410.845 389.623C452.452 385.82 426.419 349.319 423.059 333.071C419.629 316.489 418.054 305.021 419.65 289.054Z" fill="#643053"/>
<path d="M403.396 379.692C367.357 378.644 373.224 320.605 374.9 305.309C376.576 290.013 371.547 289.804 367.985 288.966C359.979 289.126 352.715 286.588 352.35 279.681C352.118 280.426 351.919 281.172 351.764 281.916C349.072 294.905 362.05 295.143 362.05 295.143C362.05 295.143 365.381 295.688 366.258 309.916C367.308 326.923 360.304 335.617 362.468 358.073C364.633 380.528 370.408 390.885 410.843 389.624C429.392 387.929 434.493 379.732 434.157 369.731C432.244 374.21 425.603 380.338 403.396 379.692Z" fill="#532744"/>
<path d="M366.734 295.391C368.589 302.948 367.312 314.186 363.648 323.188C359.984 332.19 352.29 355.379 358.373 371.346C354.707 356.407 359.504 337.862 365.601 321.424C371.699 304.986 366.734 295.391 366.734 295.391Z" fill="#532744"/>
<path d="M401.292 469.104C417.572 469.041 426.477 466.299 435.312 461.228C435.236 460.893 435.155 460.546 435.081 460.214C426.175 465.396 417.633 468.04 401.289 468.104C401.151 468.105 401.017 468.105 400.879 468.105C382.439 468.105 366.753 463.325 360.939 461.302C360.875 461.625 360.8 461.964 360.734 462.29C366.722 464.363 382.439 469.105 400.879 469.105C401.015 469.105 401.154 469.105 401.292 469.104Z" fill="#F6BB7D"/>
<path d="M330.699 382.915C330.411 383.11 330.129 383.287 329.851 383.443C332.886 388.105 342.953 401.567 359.973 405.402C360.194 405.105 360.405 404.813 360.621 404.519C343.696 400.897 333.686 387.504 330.699 382.915Z" fill="#F6BB7D"/>
</g>
</g>
<defs>
<clipPath id="clip0_32_4">
<rect width="500" height="500" fill="white"/>
</clipPath>
</defs>
</svg>
