<svg width="155" height="147" viewBox="0 0 155 147" fill="none" xmlns="http://www.w3.org/2000/svg">
<ellipse cx="77.5" cy="73.5" rx="77.5" ry="73.5" fill="#DA0808"/>
<path d="M64.7347 80.3226H90.5325L77.9073 46.9512H77.6358L64.7347 80.3226ZM63.2414 38.549C65.5536 33.2568 70.848 29 77.7715 29C84.9665 29 89.9938 33.0267 92.2973 38.549L118.914 101.146C119.724 102.987 120 104.601 120 105.407C120 109.894 115.651 113 110.633 113C104.927 113 102.076 110.469 100.718 107.017L96.6458 96.1993H58.8972L54.8246 106.902C53.467 110.469 50.6118 113 45.0459 113C39.6157 113 35 109.549 35 104.947C35 103.106 35.6788 101.725 35.9503 101.146L63.2414 38.549Z" fill="#F0F0F0"/>
</svg>
