<svg width="155" height="147" viewBox="0 0 155 147" fill="none" xmlns="http://www.w3.org/2000/svg">
<ellipse cx="77.5" cy="73.5" rx="77.5" ry="73.5" fill="#0868DA"/>
<path d="M65.6108 100.426H84.9767C93.8366 100.426 100.405 96.7693 100.405 90.1638C100.405 84.6161 94.4928 80.8415 83.0078 80.8415H65.6108V100.426ZM65.6108 65.2674H78.4138C86.4533 65.2674 91.7036 61.8467 91.7036 55.9489C91.7036 50.405 85.6329 47.5702 78.4138 47.5702H65.6108V65.2674ZM41 40.8467C41 35.1848 46.4144 32 53.9617 32H85.4689C102.532 32 116.325 40.2569 116.325 52.7641C116.325 61.021 111.556 66.5688 101.056 70.1036V70.3434C115.007 71.7588 126 80.1337 126 90.3959C126 107.032 110.577 116 87.9247 116H54.1258C46.5732 116 41 112.575 41 107.032V40.8467Z" fill="white"/>
</svg>
