<svg width="155" height="147" viewBox="0 0 155 147" fill="none" xmlns="http://www.w3.org/2000/svg">
<ellipse cx="77.5" cy="73.5" rx="77.5" ry="73.5" fill="#DA6D08"/>
<path d="M83.3864 32C94.2938 32 115.502 34.7386 115.502 44.784C115.502 48.892 111.768 52.4294 106.242 52.4294C100.119 52.4294 95.9367 48.4356 83.3864 48.4356C64.8669 48.4356 55.3036 60.4209 55.3036 74.3423C55.3036 87.9215 65.0162 99.5644 83.3864 99.5644C95.9367 99.5644 101.01 94.7755 107.138 94.7755C113.864 94.7755 117 99.9067 117 102.531C117 113.49 94.4432 116 83.3864 116C53.0633 116 32 97.6245 32 74C32 50.2613 52.914 32 83.3864 32Z" fill="white"/>
</svg>
