<svg width="155" height="147" viewBox="0 0 155 147" fill="none" xmlns="http://www.w3.org/2000/svg">
<ellipse cx="77.5" cy="73.5" rx="77.5" ry="73.5" fill="#1C9D8E"/>
<path d="M35 41.3844C35 35.4163 40.2336 31 51.3287 31H103.253C113.301 31 118.123 35.0583 118.123 39.2359C118.123 43.2941 113.098 47.4756 103.253 47.4756H66.4015V64.9022H100.747C111.005 64.9022 116.036 68.9643 116.036 73.1419C116.036 77.2002 110.796 81.3778 100.747 81.3778H66.4015V99.5244H105.137C115.192 99.5244 120 103.583 120 107.76C120 111.822 114.976 116 105.137 116H51.1194C41.9083 116 35 112.419 35 107.048V41.3844Z" fill="white"/>
</svg>
