<svg width="155" height="147" viewBox="0 0 155 147" fill="none" xmlns="http://www.w3.org/2000/svg">
<ellipse cx="77.5" cy="73.5" rx="77.5" ry="73.5" fill="#ED6400"/>
<path d="M40 39.6867C40 34.8738 44.5285 31 51.3213 31C57.8122 31 62.6426 34.2868 62.6426 39.6867V65.0462L99.7863 34.2869C101.452 32.8782 104.315 31 108.546 31C114.278 31 119.722 34.4004 119.722 39.4519C119.722 42.504 117.301 44.9729 112.32 48.8429L83.7806 70.6846L118.655 98.9788C122.278 101.796 125 104.379 125 107.904C125 113.421 119.415 116 113.226 116C108.848 116 105.975 114.008 101.749 110.483L62.6426 77.6105V107.548C62.6426 112.13 58.119 116 51.3213 116C44.8304 116 40 112.717 40 107.548V39.6867Z" fill="white"/>
</svg>
