<svg width="155" height="147" viewBox="0 0 155 147" fill="none" xmlns="http://www.w3.org/2000/svg">
<ellipse cx="77.5" cy="73.5" rx="77.5" ry="73.5" fill="#673BC3"/>
<path d="M35.9931 43.7953C35.3111 42.418 34.9738 40.9404 35.0016 39.4519C35.0016 34.5216 40.2426 31 45.9085 31C50.7292 31 53.6992 33.5825 55.5407 36.752L77.5008 85.5928L99.4655 36.752C101.302 33.5825 104.277 31 109.098 31C114.764 31 120 34.5216 120 39.4519C120 41.0953 119.726 42.2692 119.008 43.7953L87.9874 109.195C86.1414 112.952 83.7379 116 77.5008 116C71.2682 116 68.8602 112.952 67.0188 109.195L35.9931 43.7953Z" fill="white"/>
</svg>
