<svg width="155" height="147" viewBox="0 0 155 147" fill="none" xmlns="http://www.w3.org/2000/svg">
<ellipse cx="77.5" cy="73.5" rx="77.5" ry="73.5" fill="#C33B3B"/>
<path d="M35.3811 42.7419C35.0953 41.2159 35 40.3943 35 38.7509C35 34.9947 37.5723 31 41.7642 31C46.3372 31 48.5315 34.2905 49.389 39.4552L57.487 89.3498H57.6775L70.0658 37.9293C71.1138 33.7036 73.975 31 77.5 31C81.025 31 83.8831 33.7036 84.9342 37.9293L97.3194 89.3498H97.5069L105.611 39.4552C106.462 34.2905 108.66 31 113.236 31C117.425 31 120 34.9947 120 38.7509C120 40.3943 119.902 41.2159 119.616 42.7419L107.513 106.843C106.561 111.777 103.414 115.999 98.0816 115.999C95.9665 116.031 93.9009 115.212 92.1985 113.665C90.496 112.118 89.25 109.929 88.6498 107.43L77.5922 62.1136H77.4047L66.3502 107.43C65.7485 109.929 64.5017 112.117 62.7989 113.664C61.0962 115.21 59.0305 116.03 56.9154 115.999C51.5802 115.999 48.4363 111.777 47.4835 106.843L35.3811 42.7419Z" fill="white"/>
</svg>
