<svg width="155" height="147" viewBox="0 0 155 147" fill="none" xmlns="http://www.w3.org/2000/svg">
<ellipse cx="77.5" cy="73.5" rx="77.5" ry="73.5" fill="#26653B"/>
<path d="M65.2563 70.5654L42.462 44.7375C41.0504 43.2116 40.2061 41.4508 40.2061 39.5689C40.2061 34.4041 44.8494 31 50.9043 31C54.422 31 58.0803 32.9955 60.0502 35.3432L77.5023 56.0062L94.9498 35.3432C96.9242 32.9955 100.583 31 104.096 31C110.151 31 114.798 34.4041 114.798 39.5689C114.798 41.4508 113.954 43.2116 112.543 44.7375L89.7437 70.5654L117.608 101.797C118.734 103.088 120 105.318 120 107.783C120 112.717 115.497 116 109.311 116C105.507 116 102.698 114.595 100.583 112.13L77.5023 85.3594L54.422 112.13C52.3068 114.595 49.4927 116 45.6937 116C39.5026 116 35 112.717 35 107.783C35 105.318 36.2664 103.088 37.392 101.797L65.2563 70.5654Z" fill="white"/>
</svg>
