<svg width="155" height="147" viewBox="0 0 155 147" fill="none" xmlns="http://www.w3.org/2000/svg">
<ellipse cx="77.5" cy="73.5" rx="77.5" ry="73.5" fill="#65265B"/>
<path d="M120 39.6405C120 34.906 115.414 31 108.995 31C105.016 31 101.5 32.302 99.518 34.5509L77.4975 59.2926L55.487 34.5509C53.495 32.302 49.9794 31 46.0053 31C39.5855 31 35 34.906 35 39.6405C35 41.5343 35.7643 43.4281 37.1399 44.9707L62.7006 72.8242V104.962C62.6999 106.411 63.0682 107.847 63.7843 109.186C64.5004 110.526 65.5504 111.743 66.8742 112.768C68.198 113.793 69.7697 114.606 71.4994 115.161C73.2291 115.715 75.083 116.001 76.9552 116H78.03C79.9022 116.001 81.7561 115.715 83.4858 115.161C85.2156 114.606 86.7872 113.793 88.111 112.768C89.4348 111.743 90.4848 110.526 91.2009 109.186C91.917 107.847 92.2853 106.411 92.2846 104.962V72.8395L117.86 44.9707C119.241 43.4281 120 41.5343 120 39.6405Z" fill="white"/>
</svg>
