<svg width="155" height="147" viewBox="0 0 155 147" fill="none" xmlns="http://www.w3.org/2000/svg">
<ellipse cx="77.5" cy="73.5" rx="77.5" ry="73.5" fill="#325B98"/>
<path d="M108.855 100.241C115.351 100.241 120 102.986 120 108.118C120 112.658 114.423 116 108.855 116H48.0074C39.7985 116 35 112.419 35 107.402C35 105.015 36.0835 102.628 38.1008 100.479L87.9484 46.7556H47.2334C41.0368 46.7556 36.3981 44.0103 36.3981 39.1165C36.3981 34.5808 41.3514 31 47.2334 31H103.902C112.875 31 116.899 35.4163 116.899 39.594C116.899 42.2199 115.506 45.2039 113.499 47.233L63.9508 100.241H108.855Z" fill="white"/>
</svg>
