<svg width="155" height="147" viewBox="0 0 155 147" fill="none" xmlns="http://www.w3.org/2000/svg">
<ellipse cx="77.5" cy="73.5" rx="77.5" ry="73.5" fill="#CB1FAF"/>
<path d="M108.834 65.8775C116.825 65.8775 120 69.5724 120 76.9658C120 99.2503 104.014 116 78.6416 116C52.8887 116 35 97.4029 35 73.4981C35 49.4779 52.7578 31 78.6416 31C97.7987 31 113.523 39.1979 113.523 47.2841C113.523 52.2491 110.106 55.3666 105.663 55.3666C97.0376 55.3666 95.2619 46.9377 78.6416 46.9377C62.7823 46.9377 54.7913 59.5233 54.7913 73.4981C54.7913 87.5884 62.5286 100.062 78.6416 100.062C88.662 100.062 100.213 94.9781 100.213 81.8153H87.2668C82.0663 81.8153 78.3879 78.4631 78.3879 73.7291C78.3879 68.8796 82.4468 65.8775 87.2668 65.8775H108.834Z" fill="white"/>
</svg>
