<svg width="155" height="147" viewBox="0 0 155 147" fill="none" xmlns="http://www.w3.org/2000/svg">
<ellipse cx="77.5" cy="73.5" rx="77.5" ry="73.5" fill="#AD9F22"/>
<path d="M109.375 31C106.557 31 103.855 32.0177 101.862 33.8291C99.8694 35.6405 98.75 38.0973 98.75 40.6591V61.9091H56.25V40.6591C56.25 38.0973 55.1306 35.6405 53.138 33.8291C51.1454 32.0177 48.4429 31 45.625 31C42.8071 31 40.1046 32.0177 38.112 33.8291C36.1194 35.6405 35 38.0973 35 40.6591V106.341C35 108.903 36.1194 111.359 38.112 113.171C40.1046 114.982 42.8071 116 45.625 116C48.4429 116 51.1454 114.982 53.138 113.171C55.1306 111.359 56.25 108.903 56.25 106.341V81.2273H98.75V106.341C98.75 108.903 99.8694 111.359 101.862 113.171C103.855 114.982 106.557 116 109.375 116C112.193 116 114.895 114.982 116.888 113.171C118.881 111.359 120 108.903 120 106.341V40.6591C120 38.0973 118.881 35.6405 116.888 33.8291C114.895 32.0177 112.193 31 109.375 31Z" fill="white"/>
</svg>
