<svg width="155" height="147" viewBox="0 0 155 147" fill="none" xmlns="http://www.w3.org/2000/svg">
<ellipse cx="77.5" cy="73.5" rx="77.5" ry="73.5" fill="#663AAC"/>
<path d="M44.7216 40.0384C45.3419 35.8127 49.374 31 54.8568 31C60.0261 31 64.0581 35.2258 65.1954 39.4515L77.3983 85.9425H77.6051L89.8079 39.4515C90.9419 35.2258 94.9739 31 100.147 31C105.626 31 109.658 35.8127 110.282 40.0384L119.897 105.553C120 106.253 120 106.962 120 107.545C120 112.713 116.692 116 112.556 116C107.28 116 105.216 113.3 104.492 107.783L98.389 59.9972H98.1789L85.7726 109.192C85.0489 112.009 83.0879 116 77.5017 116C71.9188 116 69.9512 112.009 69.2274 109.192L56.8178 59.9972H56.6144L50.5112 107.783C49.7875 113.3 47.7198 116 42.4471 116C38.3117 116 35 112.713 35 107.545C35 106.962 35 106.253 35.1067 105.553L44.7216 40.0384Z" fill="white"/>
</svg>
