<svg width="155" height="147" viewBox="0 0 155 147" fill="none" xmlns="http://www.w3.org/2000/svg">
<ellipse cx="77.5" cy="73.5" rx="77.5" ry="73.5" fill="#8F3AAC"/>
<path d="M35 40.1562C35 34.2869 39.4801 31 45.5048 31C48.1648 31 52.5049 32.7608 54.325 34.87L98.715 84.5401H98.995V40.1562C98.995 34.2869 103.48 31 109.495 31C115.52 31 120 34.2869 120 40.1562V106.844C120 112.717 115.52 116 109.495 116C106.84 116 102.635 114.239 100.675 112.13L56.285 63.0506H56.005V106.844C56.005 112.717 51.5249 116 45.5048 116C39.4801 116 35 112.717 35 106.844V40.1562Z" fill="white"/>
</svg>
