<svg width="155" height="147" viewBox="0 0 155 147" fill="none" xmlns="http://www.w3.org/2000/svg">
<ellipse cx="77.5" cy="73.5" rx="77.5" ry="73.5" fill="#3DAC3A"/>
<path d="M63.7119 68.292H77.931C85.5237 68.292 90.7785 64.386 90.7785 57.7577C90.7785 51.011 85.5237 47.3379 77.931 47.3379H63.7119V68.292ZM43 40.2361C43 34.5547 46.7273 31 53.6298 31H77.931C99.195 31 112.314 39.1709 112.314 57.7577C112.314 70.7776 100.852 78.2345 86.7661 80.1322L110.243 101.678C112.172 103.454 113 105.229 113 106.886C113 111.502 108.72 116 102.651 116C100.161 116 96.8482 115.171 94.6394 112.923L63.988 81.0791H63.7119V106.768C63.7119 112.69 59.2943 116 53.3537 116C47.4176 116 43 112.69 43 106.768V40.2361Z" fill="white"/>
</svg>
