<svg width="155" height="147" viewBox="0 0 155 147" fill="none" xmlns="http://www.w3.org/2000/svg">
<ellipse cx="77.5" cy="73.5" rx="77.5" ry="73.5" fill="#9C3AAC"/>
<path d="M111.139 42.5501C111.139 47.0532 106.711 51.0944 99.7334 51.0944C92.7453 51.0944 87.2954 47.6305 77.0715 47.6305C69.7483 47.6305 63.1063 50.2862 63.1063 55.1394C63.1063 67.0322 120 59.4116 120 89.2049C120 105.72 99.8982 116 76.3902 116C63.2766 116 35 113.922 35 103.064C35 98.5612 39.428 94.8664 46.4106 94.8664C54.4151 94.8664 63.9578 99.3695 75.0278 99.3695C86.2736 99.3695 92.4047 95.0936 92.4047 89.4359C92.4047 75.8111 35.5109 84.0091 35.5109 57.2177C35.5109 41.0491 55.0963 31 77.7527 31C87.2954 31 111.139 33.4285 111.139 42.5501Z" fill="white"/>
</svg>
