<svg width="155" height="147" viewBox="0 0 155 147" fill="none" xmlns="http://www.w3.org/2000/svg">
<ellipse cx="77.5" cy="73.5" rx="77.5" ry="73.5" fill="#3BC3B6"/>
<path d="M35 36.1489C35 29.6432 39.9679 26 45.6426 26C51.3172 26 56.2851 29.6432 56.2851 36.1489V81.5671C56.2851 93.5418 65.0333 102.23 77.5702 102.23C89.5836 102.23 98.8554 93.0213 98.8554 81.5671V36.1489C98.8554 29.6432 103.828 26 109.498 26C115.177 26 120 29.6432 120 36.1489V82.608C120 104.471 99.3449 121 77.5702 121C55.5274 121 35 104.732 35 82.608L35 36.1489Z" fill="white"/>
</svg>
